<?xml version="1.0" encoding="UTF-8" standalone="no"?>
<!-- Created with Inkscape (http://www.inkscape.org/) -->

<svg
   xmlns:dc="http://purl.org/dc/elements/1.1/"
   xmlns:cc="http://creativecommons.org/ns#"
   xmlns:rdf="http://www.w3.org/1999/02/22-rdf-syntax-ns#"
   xmlns:svg="http://www.w3.org/2000/svg"
   xmlns="http://www.w3.org/2000/svg"
   xmlns:sodipodi="http://sodipodi.sourceforge.net/DTD/sodipodi-0.dtd"
   xmlns:inkscape="http://www.inkscape.org/namespaces/inkscape"
   width="1000.0001"
   height="773"
   id="svg2991"
   version="1.1"
   inkscape:version="0.48.2 r9819"
   sodipodi:docname="New document 2">
  <defs
     id="defs2993" />
  <sodipodi:namedview
     id="base"
     pagecolor="#ffffff"
     bordercolor="#666666"
     borderopacity="1.0"
     inkscape:pageopacity="0.0"
     inkscape:pageshadow="2"
     inkscape:zoom="0.96424309"
     inkscape:cx="501.82048"
     inkscape:cy="362.83375"
     inkscape:document-units="px"
     inkscape:current-layer="layer1"
     showgrid="false"
     fit-margin-top="0"
     fit-margin-left="0"
     fit-margin-right="0"
     fit-margin-bottom="0"
     inkscape:window-width="1680"
     inkscape:window-height="1002"
     inkscape:window-x="-4"
     inkscape:window-y="-4"
     inkscape:window-maximized="1" />
  <metadata
     id="metadata2996">
    <rdf:RDF>
      <cc:Work
         rdf:about="">
        <dc:format>image/svg+xml</dc:format>
        <dc:type
           rdf:resource="http://purl.org/dc/dcmitype/StillImage" />
        <dc:title></dc:title>
      </cc:Work>
    </rdf:RDF>
  </metadata>
  <g
     inkscape:label="Layer 1"
     inkscape:groupmode="layer"
     id="layer1"
     transform="translate(-209.10239,-311.77868)">
    <g
       id="g3023"
       transform="translate(-3.6409664,-47.332487)">
      <path
         style="fill:#fcfcfc"
         d="m 212.74336,745.61124 0,-386.5 500,0 500.00004,0 0,386.5 0,386.49996 -500.00004,0 -500,0 0,-386.49996 z"
         id="path3039"
         inkscape:connector-curvature="0" />
      <path
         style="fill:#8ec9d1"
         d="m 548.24336,1117.5547 c -12.65,-7.9613 -48.2593,-30.2767 -79.13177,-49.5897 l -56.13177,-35.1146 -22.86823,-46.34728 c -19.90237,-40.33634 -23.15761,-46.35017 -25.09946,-46.36958 -2.59915,-0.026 -19.49678,3.9265 -67.01136,15.67443 l -34.24259,8.46645 -19.75184,-12.37377 c -10.86351,-6.80557 -19.88952,-13.08868 -20.05779,-13.96245 -0.32082,-1.66592 -3.88455,-0.72771 88.79481,-23.37676 33.91528,-8.28824 36,-8.88964 36,-10.3853 0,-0.54153 -8.51799,-18.32766 -18.92886,-39.52475 -18.05442,-36.75974 -19.05564,-38.54015 -21.67323,-38.54015 -1.50941,0 -11.55392,2.25068 -22.32114,5.00152 -29.9267,7.64574 -69.10191,16.99848 -71.20043,16.99848 -1.83,0 -1.87634,-6.03795 -1.87634,-244.5 l 0,-244.5 25.5,0 25.5,0 0,185.5 c 0,147.75687 0.25433,185.49102 1.25,185.45587 2.15883,-0.0762 10.61925,-2.49178 11.37525,-3.24779 0.39719,-0.39718 0.62149,-82.52354 0.49845,-182.50303 -0.12304,-99.97948 0.0719,-182.55131 0.43329,-183.49296 0.60054,-1.565 3.31116,-1.71209 31.55,-1.71209 l 30.89301,0 0,166.5 c 0,163.46696 0.0349,166.5 1.91821,166.5 1.05502,0 2.63002,-0.27314 3.5,-0.60699 1.43351,-0.55009 1.58179,-16.01036 1.58179,-164.91821 0,-90.37117 0.27314,-165.02303 0.60699,-165.89301 0.54887,-1.43035 12.21428,-1.58179 121.84501,-1.58179 114.21122,0 121.32732,0.10143 122.77864,1.75 1.25891,1.43 36.79695,73.82842 84.30651,171.75 11.29685,23.28384 46.48922,95.53689 73.45477,150.80912 l 22.3488,45.80911 3.57964,-0.63 c 1.9688,-0.3465 27.87964,-6.58593 57.57964,-13.8654 l 54,-13.23539 0.50716,-170.94372 c 0.27894,-94.01905 0.61644,-171.05622 0.75,-171.19372 0.13356,-0.1375 73.14284,-0.25 162.24288,-0.25 l 162,0 0,274.45986 0,274.45986 -3.75,1.07914 c -8.169,2.35079 -105.7802,26.00114 -107.3136,26.00114 -0.9007,0 -15.7673,-8.83395 -33.037,-19.63101 -17.2697,-10.79705 -32.1869,-19.84953 -33.1494,-20.11663 -1.6596,-0.46053 -1.75,5.64445 -1.75,118.131 l 0,118.6166 -164.98099,0 -164.98095,0 -0.57861,-2.75 c -0.31824,-1.5125 -0.92062,-3.425 -1.33864,-4.25 -0.41802,-0.825 -47.97871,-30.9892 -105.69044,-67.0316 L 491.24336,992.54795 473.07811,956.07959 c -9.99088,-20.05759 -18.33995,-36.87806 -18.55348,-37.37882 -0.44314,-1.03919 -18.78127,3.23902 -18.78127,4.38159 0,1.86835 44.97935,91.71204 46.63422,93.14924 1.02618,0.8911 11.09078,7.3744 22.36578,14.4071 89.87224,56.0574 159.65648,99.7925 160.45,100.5572 0.57528,0.5543 -17.76644,0.8993 -46.5,0.8746 l -47.45,-0.041 -23,-14.4751 z m 51.5,-307.33543 0,-185.77394 -18.35907,-32.91704 c -10.09749,-18.10438 -36.48604,-65.31705 -58.64122,-104.91705 -22.15518,-39.6 -45.89948,-82.125 -52.76511,-94.5 -6.86563,-12.375 -13.10208,-23.15893 -13.85878,-23.96429 -1.16805,-1.24315 -1.3698,28.12896 -1.33595,194.5 l 0.0399,195.96429 52.78985,107.42974 52.78986,107.42973 18.88494,11.74662 c 10.38671,6.46064 19.23834,11.5282 19.67028,11.26124 0.4319,-0.26695 0.7853,-84.08364 0.7853,-186.2593 z m -175,76.95041 c 1.925,-0.51172 5.4125,-1.42656 7.75,-2.03297 2.3375,-0.60641 4.25,-1.47888 4.25,-1.93882 0,-1.42343 -49.82215,-102.33737 -51.2102,-103.72542 -1.0775,-1.0775 -2.6996,-0.96872 -9.20067,0.61703 -4.3409,1.05884 -8.31734,2.34995 -8.83652,2.86913 -0.59197,0.59197 7.89522,18.78878 22.76005,48.7983 13.03722,26.31987 24.57634,49.76681 25.64248,52.10431 2.06046,4.51751 2.98942,4.86499 8.84486,3.30844 z m -212,138.97372 0,-68.10253 2.25,1.17556 c 1.2375,0.64656 11.25,6.81697 22.25,13.71203 11,6.89505 23.375,14.62731 27.5,17.18278 6.95716,4.31002 42.73997,26.67436 53,33.12506 2.475,1.5561 14.4,9.0406 26.5,16.6322 12.1,7.5916 22,14.4493 22,15.2394 0,1.6549 0.0455,1.6417 -34.5,10.0117 -14.025,3.398 -39,9.4791 -55.5,13.5135 -16.5,4.0344 -36.75,8.9626 -45,10.9517 -8.25,1.989 -15.7875,3.8515 -16.75,4.1388 -1.65465,0.494 -1.75,-3.1882 -1.75,-67.5802 z"
         id="path3037"
         inkscape:connector-curvature="0" />
      <path
         style="fill:#4d8a97"
         d="m 703.55086,1127.8729 -0.3075,-4.2383 -46.5,-29.0469 c -25.575,-15.9758 -69.675,-43.5245 -98,-61.2192 -28.325,-17.6948 -55.1,-34.55388 -59.5,-37.46476 l -8,-5.2925 -18,-36.22921 c -9.9,-19.92607 -18.31774,-36.51881 -18.70609,-36.87276 -0.74361,-0.67774 -18.57603,3.36453 -20.29391,4.60025 -1.00737,0.72463 -6.19272,1.9924 -45.5,11.12435 -32.24132,7.49037 -47.05819,10.77686 -51.5,11.42309 -4.40369,0.64069 -53.56334,12.99559 -65.52574,16.46806 l -7.52575,2.18459 -19.47425,-12.20138 c -10.71084,-6.71075 -19.68623,-12.40486 -19.9453,-12.65356 -0.25907,-0.24869 0.0396,-0.76778 0.66376,-1.15352 1.306,-0.80715 50.05777,-12.5879 58.30728,-14.08981 6.92031,-1.25992 51.96143,-12.47901 58,-14.44696 2.475,-0.8066 7.425,-2.34856 11,-3.42657 7.10435,-2.14228 59.62756,-14.90266 75.25,-18.28181 6.29629,-1.3619 9.75,-2.57282 9.75,-3.41851 0,-2.17803 -50.01673,-103.85167 -52.29995,-106.31496 -2.02854,-2.18852 -7.44114,-5.69565 -41.20005,-26.69584 -8.25,-5.13203 -16.35,-10.41786 -18,-11.7463 -1.65,-1.32843 -12,-7.97391 -23,-14.76773 -23.90699,-14.76543 -23.62967,-14.54889 -20.41194,-15.9379 1.32657,-0.57264 15.46194,-4.19294 31.41194,-8.04511 15.95,-3.85217 30.0125,-7.44755 31.25,-7.98974 l 2.25,-0.98579 0,-166.02144 0,-166.02144 121.52663,0 121.52662,0 5.8521,12.25 c 6.31892,13.22718 11.09694,23.03837 57.10039,117.25 16.651,34.1 34.42328,70.55 39.49396,81 52.76316,108.73792 77.27213,158.64987 78.52612,159.9166 1.10278,1.11399 2.42276,0.82916 48.97418,-10.56755 20.075,-4.91476 42.125,-10.29024 49,-11.94552 6.875,-1.65527 13.9625,-3.47062 15.75,-4.03411 l 3.25,-1.02452 0,-171.42245 0,-171.42245 162.00004,0 162,0 0,273.96146 0,273.96145 -3.75,1.0022 c -22.6899,6.06393 -107.009,26.10969 -108.3504,25.75889 -0.9697,-0.25357 -16.6438,-9.78068 -34.8313,-21.17134 l -33.0683,-20.71031 0,-140.40117 0,-140.40118 -2.25,0.0351 c -1.2375,0.0193 -14.6037,3.1233 -29.7027,6.89778 l -27.45263,6.86269 0.29443,253.60222 0.29444,253.60217 -135.03429,0 -135.03429,0 -0.3075,-4.2383 z m -103.3075,-317.84502 0,-187.41664 -6.62638,-11.5 c -5.0973,-8.84631 -114.09662,-203.66638 -133.24454,-238.1548 -7.24652,-13.05212 -6.62908,-30.58537 -6.62908,188.24442 l 0,197.3345 42.7176,87.03794 c 23.49468,47.87087 47.45718,96.48794 53.25,108.03794 l 10.5324,21 18.98786,11.75405 c 10.44332,6.46472 19.44332,11.60221 20,11.41664 0.67805,-0.22603 1.01214,-62.19995 1.01214,-187.75405 z m -387.5,-43.84764 0,-81.86824 7.5,-1.66859 c 4.4342,-0.98652 7.5,-2.1786 7.5,-2.91624 0,-1.62671 -7.67356,-5.93572 -9.05263,-5.08341 -0.58357,0.36067 -2.16047,0.37983 -3.50421,0.0426 l -2.44316,-0.61322 0,-157.48095 0,-157.48095 25,0 25,0 0,160.33753 c 0,88.18565 -0.29637,172.52215 -0.65859,187.41445 l -0.65859,27.0769 -4.09141,1.07807 c -2.25028,0.59294 -10.84141,2.6663 -19.09141,4.60746 -20.27605,4.77079 -22.5,5.41441 -22.5,6.51154 0,0.52012 1.9125,2.14961 4.25,3.62108 2.3375,1.47148 8.525,5.47392 13.75,8.89432 5.225,3.4204 20.525,13.08059 34,21.46709 31.24124,19.44377 29.55242,18.16194 33.04558,25.08186 1.72069,3.40867 3.64274,5.9097 4.54162,5.9097 0.85713,0 11.74216,-2.49066 24.18896,-5.53479 13.82018,-3.38002 23.66432,-5.30774 25.2859,-4.95158 3.19456,0.70164 13.93794,7.27524 13.93794,8.52826 0,0.48826 -0.7875,1.29629 -1.75,1.79562 -2.1521,1.11647 -26.30261,6.59533 -69.25,15.71027 -6.875,1.45911 -14.975,3.51395 -18,4.56631 -3.025,1.05236 -18.775,5.07142 -35,8.93124 -16.225,3.85983 -30.0625,7.21452 -30.75,7.45488 -0.99338,0.3473 -1.25,-16.37022 -1.25,-81.43121 z"
         id="path3035"
         inkscape:connector-curvature="0" />
      <path
         style="fill:#9a6037"
         d="m 703.55086,1127.9369 c -0.32941,-4.4718 -1.34088,-5.4219 -14.3075,-13.4395 -2.75,-1.7003 -14.225,-8.9182 -25.5,-16.0396 -11.275,-7.1214 -27.475,-17.1654 -36,-22.32 -8.525,-5.1546 -18.65,-11.481 -22.5,-14.0586 -7.27603,-4.8714 -77.54253,-48.8069 -99.65987,-62.31429 -6.96293,-4.25235 -13.17761,-8.35538 -13.81039,-9.11784 -1.16145,-1.39946 -23.51056,-46.15456 -31.61522,-63.31089 -2.40984,-5.10128 -5.09622,-9.5493 -5.96973,-9.8845 -0.87351,-0.3352 -10.21843,1.4849 -20.76649,4.04467 -10.54807,2.55976 -21.6533,5.06734 -24.6783,5.5724 -6.23081,1.0403 -38.67316,8.78783 -53,12.65687 -5.225,1.41105 -11.1875,2.79732 -13.25,3.08061 l -3.75,0.51508 0,-15.98259 c 0,-11.82792 0.33523,-16.26081 1.28961,-17.05287 0.70928,-0.58865 4.64678,-1.77193 8.75,-2.62951 8.86987,-1.85382 52.29834,-12.77332 73.46039,-18.47063 8.25,-2.22109 15.1125,-4.04648 15.25,-4.05641 1.13347,-0.0819 -0.74366,-4.95225 -6.62968,-17.20123 -21.94095,-45.6598 -45.17352,-91.59639 -47.23693,-93.3992 -1.31087,-1.14531 -6.65839,-4.70824 -11.88339,-7.91763 -5.225,-3.20939 -10.4,-6.61237 -11.5,-7.56219 -2.49986,-2.15855 -23.69648,-15.47328 -28.75,-18.0594 -4.39779,-2.25056 -4.55387,-3.35404 -1.36658,-9.66165 3.74428,-7.40989 7.34578,-20.00402 8.12749,-28.42117 l 0.71552,-7.7044 4.13679,-1.37891 4.13678,-1.37892 0.25293,-166.66668 0.25293,-166.66668 121.5237,0 121.52369,0 5.8521,12.25 c 6.31892,13.22718 11.09694,23.03837 57.10039,117.25 16.651,34.1 34.42328,70.55 39.49396,81 52.76316,108.73792 77.27213,158.64987 78.52612,159.9166 1.10671,1.11796 2.27686,0.86455 50.47418,-10.9308 20.9,-5.11486 43.99913,-10.76039 51.33141,-12.54561 7.33227,-1.78523 13.96977,-3.88423 14.75,-4.66446 1.21369,-1.21369 1.41859,-26.03529 1.41859,-171.84716 l 0,-170.42857 161.50004,0 161.5,0 0,273.93261 c 0,260.03596 -0.089,273.95733 -1.75,274.41977 -0.9625,0.26793 -4.675,1.1807 -8.25,2.02838 -8.8636,2.10166 -83.9402,20.29739 -91.9157,22.27689 -3.5286,0.87579 -7.3934,1.59235 -8.5884,1.59235 -2.1219,0 -61.8252,-36.53714 -66.2073,-40.51744 l -2.2114,-2.00861 0.1225,-139.90085 c 0.083,-95.23897 -0.2079,-140.23124 -0.9124,-140.93577 -0.7132,-0.71321 -9.2338,0.97455 -27.4111,5.42962 -14.50694,3.55548 -27.84248,6.77527 -29.63456,7.15507 -1.79207,0.3798 -3.70457,1.52438 -4.25,2.54352 -0.57953,1.08288 -0.99168,12.2181 -0.99168,26.79299 0,19.6127 0.32041,25.84815 1.5,29.19147 1.31617,3.73042 1.5,31.62702 1.5,227.62573 l 0,223.37423 -134.9425,0 -134.9425,0 -0.3075,-4.1743 z M 600.25049,996.86124 c 0.29988,-1.2375 0.42096,-85.95 0.26906,-188.25 l -0.27619,-186 -6.62638,-11.5 c -5.0973,-8.84631 -114.09662,-203.66638 -133.24454,-238.1548 -7.24659,-13.05226 -6.62908,-30.6028 -6.62908,188.40735 l 0,197.49744 21.60683,43.875 c 11.88376,24.13126 23.53569,47.92501 25.89317,52.87501 15.09653,31.69809 58.40303,118.2206 59.70079,119.27683 2.4946,2.03034 37.22078,24.09236 38.03016,24.1611 0.40202,0.0341 0.9763,-0.95043 1.27618,-2.18793 z M 244.24833,950.66262 c -9.89727,-6.33687 -18.13888,-11.9531 -18.31468,-12.48052 -0.33085,-0.99254 0.59506,-1.28449 17.30971,-5.45799 18.60041,-4.64435 32.70743,-7.60271 33.6059,-7.04742 0.49175,0.30392 0.8941,7.92987 0.8941,16.94656 l 0,16.39398 -3.75,1.06881 c -10.54396,3.00517 -10.12711,3.13723 -29.74503,-9.42342 z M 212.74336,797.11124 c 0,-27.5 0.22942,-50 0.50981,-50 1.09302,0 17.49019,11.34674 17.49019,12.1031 0,0.68976 -6.18623,2.87505 -8.1849,2.89132 -0.3767,0.003 -1.88811,0.46304 -3.35869,1.02215 -2.06652,0.78569 -2.4242,1.31731 -1.57485,2.34072 0.60441,0.72827 8.30696,5.78331 17.11677,11.23342 8.80982,5.45011 22.0892,13.84587 29.50976,18.65725 l 13.49191,8.74795 0,13.5268 c 0,13.11158 -0.0691,13.55264 -2.25,14.36899 -1.2375,0.46321 -11.7,3.17007 -23.25,6.01523 -11.55,2.84517 -24.40565,6.05504 -28.5681,7.13305 -4.16245,1.07801 -8.32495,1.96002 -9.25,1.96002 -1.55344,0 -1.6819,-3.81885 -1.6819,-50 z m 126.39404,17.58447 c -0.29875,-0.77854 -0.39713,-2.68951 -0.21861,-4.24661 0.37099,-3.23603 4.17016,-5.50817 12.18129,-7.2852 4.56714,-1.01309 5.1783,-0.89334 10.25,2.0084 2.9663,1.69715 5.39328,3.48535 5.39328,3.97379 0,0.95803 -2.68156,1.76899 -16.28873,4.92604 -10.45291,2.42523 -10.62229,2.43456 -11.31723,0.62358 z M 254.24336,695.02519 c -3.3,-2.18434 -9.15,-5.8358 -13,-8.11437 -3.85,-2.27857 -9.40375,-6.09061 -12.34167,-8.47121 -4.82844,-3.9125 -5.8613,-4.32837 -10.75,-4.32837 l -5.40833,0 0,-157.5 0,-157.5 25.00288,0 25.00288,0 -0.25288,169.66668 c -0.167,112.04485 -0.5925,169.76044 -1.25288,169.94274 -0.55,0.15183 -3.7,-1.51113 -7,-3.69547 z"
         id="path3033"
         inkscape:connector-curvature="0" />
      <path
         style="fill:#584734"
         d="m 675.11893,1104.9636 c -15.88156,-9.9813 -39.45057,-24.6557 -52.37557,-32.6099 -31.71795,-19.5196 -98.13214,-61.0048 -116,-72.45868 l -14.5,-9.29498 -18.0055,-36.38889 c -9.90303,-20.01388 -18.67803,-36.81185 -19.5,-37.32883 -1.00862,-0.63435 -4.74563,-0.072 -11.4945,1.72979 -10.87647,2.90374 -23.17091,5.85468 -57,13.68129 -12.1,2.79942 -26.05,6.19585 -31,7.54762 -4.95,1.35177 -10.6875,2.68783 -12.75,2.96903 l -3.75,0.51126 0,-15.98259 c 0,-18.02046 -0.13333,-17.68503 7.6132,-19.15413 8.7526,-1.65989 58.78019,-14.05263 62.3868,-15.45433 1.925,-0.74815 9.28911,-2.64117 16.36468,-4.20671 7.47417,-1.65373 13.07694,-3.39957 13.37124,-4.16651 0.4667,-1.21621 -21.73476,-48.05238 -42.90822,-90.51912 l -8.86158,-17.77332 -9.04787,-5.72668 c -4.97633,-3.14967 -11.1562,-7.15183 -13.73306,-8.89367 -8.50376,-5.74819 -29.62596,-19.04168 -32.93519,-20.72811 -3.88092,-1.97779 -3.9937,-3.19962 -0.86658,-9.38814 3.75019,-7.42158 7.3462,-20.00856 8.13129,-28.46168 l 0.71931,-7.74491 3.89487,-1.16693 c 2.14217,-0.64181 4.34347,-1.70748 4.89178,-2.36814 0.65602,-0.79046 0.90842,-57.84132 0.73812,-166.83819 l -0.25879,-165.63698 121.33333,3e-5 c 94.39942,3e-5 121.24392,0.2683 120.93051,1.20853 -0.22156,0.66467 7.55303,17.42717 17.27685,37.25 9.72383,19.82283 19.49558,39.86651 21.71502,44.54151 2.21943,4.675 9.74945,20.2 16.73337,34.5 6.98393,14.3 22.60996,46.475 34.72451,71.5 12.11455,25.025 33.28207,68.45 47.03893,96.5 13.75686,28.05 29.23179,59.67669 34.38872,70.28153 l 9.37625,19.28152 -0.0358,185.36852 c -0.0302,156.16389 -0.2528,185.54859 -1.41289,186.51139 -0.75737,0.6286 -13.23268,4.0463 -27.7229,7.5951 -14.49022,3.5487 -28.43125,7.1294 -30.98006,7.9571 -2.54882,0.8277 -5.30481,1.5048 -6.12443,1.5048 -0.81962,0 -14.48422,-8.1664 -30.36579,-18.1476 z m -73.37557,-293.92293 0,-188.07057 -18.63062,-33.17943 c -10.24683,-18.24869 -22.56829,-40.15443 -27.38102,-48.67943 -4.81272,-8.525 -13.24024,-23.6 -18.72782,-33.5 -9.13031,-16.47177 -45.09477,-80.71604 -70.95567,-126.75 -5.79334,-10.3125 -11.15694,-18.75 -11.91911,-18.75 -1.17635,0 -1.38576,29.9396 -1.38576,198.12515 l 0,198.12515 4.89212,10.12485 c 2.69067,5.56867 20.94531,42.74985 40.56588,82.62485 19.62057,39.875 41.30326,84.00255 48.18376,98.06122 l 12.50999,25.56122 19.67413,12.14018 c 10.82076,6.67709 20.46162,12.16204 21.42412,12.18878 1.66064,0.0461 1.75,-9.55529 1.75,-188.02197 z m -356.5,139.48634 c -9.9,-6.32918 -18.11001,-11.82444 -18.24448,-12.21169 -0.32273,-0.92947 48.68776,-13.35717 49.84804,-12.64007 0.49304,0.30471 0.89644,7.93131 0.89644,16.948 l 0,16.39398 -3.75,1.05578 c -9.73341,2.74033 -9.31422,2.87952 -28.75,-9.546 z m 823.46244,-37.01406 c -17.3043,-10.77905 -32.2321,-20.28262 -33.1727,-21.11904 -1.5995,-1.4222 -1.7025,-10.61843 -1.5907,-141.90904 0.066,-77.21356 -0.1489,-140.6568 -0.477,-140.98497 -0.6346,-0.63454 -5.905,0.5287 -39.22204,8.65677 -13.44696,3.28053 -21.45869,5.71355 -22.2753,6.76461 -0.96763,1.24543 -1.25517,8.24758 -1.19183,29.02418 0.0459,15.06052 -0.0552,27.49711 -0.22469,27.63688 -0.1695,0.13976 -18.05378,4.59554 -39.74284,9.90174 -30.39009,7.43489 -39.62334,9.35859 -40.25732,8.38739 -0.45246,-0.69312 -0.70687,-77.64746 -0.56534,-171.00964 l 0.25732,-169.7494 123.25004,-6e-4 123.25,-5.9e-4 0.097,128.25 c 0.1477,194.20027 0.3532,251.5292 0.904,252.08252 0.2758,0.27715 16.7008,-3.49756 36.5,-8.38824 19.7991,-4.89068 36.5609,-8.90388 37.2484,-8.91821 0.9912,-0.0207 1.25,19.12669 1.25,92.47393 l 0,92.5 -2.25,0.008 c -1.2375,0.004 -25.817,5.85418 -54.6211,13 -28.804,7.14542 -53.1209,12.992 -54.0375,12.992 -0.9165,0 -15.8246,-8.81923 -33.1289,-19.59829 z m -855.96244,-112.75458 0,-46.56685 3.94259,-1.18123 c 3.70737,-1.11075 4.24431,-0.98761 9,2.06411 2.78157,1.78493 5.05741,3.62727 5.05741,4.09408 0,0.72397 -6.1206,2.92037 -8.1849,2.93718 -0.3767,0.003 -1.88811,0.46304 -3.35869,1.02215 -2.06652,0.78569 -2.4242,1.31731 -1.57485,2.34072 0.60441,0.72827 8.30696,5.78331 17.11677,11.23342 8.80982,5.45011 22.0892,13.84587 29.50976,18.65725 l 13.49191,8.74795 0,13.5268 c 0,15.5965 1.05518,14.13045 -12.15954,16.8942 -10.08959,2.11016 -49.25699,11.42196 -51.23368,12.18049 -1.46153,0.56084 -1.60678,-3.59296 -1.60678,-45.95027 z m 126.39404,13.93734 c -0.29875,-0.77854 -0.39713,-2.68951 -0.21861,-4.24661 0.37099,-3.23603 4.17016,-5.50817 12.18129,-7.2852 4.56714,-1.01309 5.1783,-0.89334 10.25,2.0084 2.9663,1.69715 5.39328,3.48535 5.39328,3.97379 0,0.95803 -2.68156,1.76899 -16.28873,4.92604 -10.45291,2.42523 -10.62229,2.43456 -11.31723,0.62358 z M 248.24336,688.61304 c -6.6,-4.11266 -12.13458,-8.10134 -12.29907,-8.86372 -0.16589,-0.76892 0.7247,-1.61605 2,-1.90242 1.26449,-0.28393 6.77471,-1.68705 12.24494,-3.11804 7.69453,-2.01285 10.12443,-2.32064 10.73469,-1.35971 1.00654,1.58492 1.07118,22.74555 0.0694,22.73177 -0.4125,-0.006 -6.15,-3.37523 -12.75,-7.48788 z m -35.5,-238.83513 0,-90.66667 24.75741,0 24.75742,0 -0.24174,7.75 c -0.13296,4.2625 -0.40108,16.3 -0.59582,26.75 l -0.35408,19 -3.58038,9 c -3.97286,9.98658 -13.44623,35.3114 -23.75374,63.5 -10.5211,28.7727 -20.15151,54.45802 -20.59037,54.91667 -0.21929,0.22916 -0.3987,-40.38334 -0.3987,-90.25 z"
         id="path3031"
         inkscape:connector-curvature="0" />
    </g>
  </g>
</svg>
