<?xml version="1.0" encoding="UTF-8" standalone="no"?>
<!-- Created with Inkscape (http://www.inkscape.org/) -->

<svg
   xmlns:dc="http://purl.org/dc/elements/1.1/"
   xmlns:cc="http://creativecommons.org/ns#"
   xmlns:rdf="http://www.w3.org/1999/02/22-rdf-syntax-ns#"
   xmlns:svg="http://www.w3.org/2000/svg"
   xmlns="http://www.w3.org/2000/svg"
   xmlns:sodipodi="http://sodipodi.sourceforge.net/DTD/sodipodi-0.dtd"
   xmlns:inkscape="http://www.inkscape.org/namespaces/inkscape"
   width="570"
   height="725"
   id="svg2"
   version="1.1"
   inkscape:version="0.48.2 r9819"
   sodipodi:docname="New document 1">
  <defs
     id="defs4" />
  <sodipodi:namedview
     id="base"
     pagecolor="#ffffff"
     bordercolor="#666666"
     borderopacity="1.0"
     inkscape:pageopacity="0.0"
     inkscape:pageshadow="2"
     inkscape:zoom="1.1087891"
     inkscape:cx="384.81945"
     inkscape:cy="333.43183"
     inkscape:document-units="px"
     inkscape:current-layer="layer1"
     showgrid="false"
     fit-margin-top="0"
     fit-margin-left="0"
     fit-margin-right="0"
     fit-margin-bottom="0"
     inkscape:window-width="1680"
     inkscape:window-height="1002"
     inkscape:window-x="-4"
     inkscape:window-y="-4"
     inkscape:window-maximized="1" />
  <metadata
     id="metadata7">
    <rdf:RDF>
      <cc:Work
         rdf:about="">
        <dc:format>image/svg+xml</dc:format>
        <dc:type
           rdf:resource="http://purl.org/dc/dcmitype/StillImage" />
        <dc:title></dc:title>
      </cc:Work>
    </rdf:RDF>
  </metadata>
  <g
     inkscape:label="Layer 1"
     inkscape:groupmode="layer"
     id="layer1"
     transform="translate(9.819449,-140.79401)">
    <g
       id="g2996"
       transform="translate(-76.660208,20.74335)">
      <path
         style="fill:#fdfdf9"
         d="m 66.840759,482.55066 0,-362.5 285.000001,0 285,0 0,362.5 0,362.5 -285,0 -285.000001,0 0,-362.5 z"
         id="path3004"
         inkscape:connector-curvature="0" />
      <path
         style="fill:#fbed5d"
         d="m 363.84076,844.05066 c 0,-0.55 0.42344,-1 0.94098,-1 0.51754,0 1.2191,0.45 1.55902,1 0.33992,0.55 -0.0835,1 -0.94098,1 -0.85746,0 -1.55902,-0.45 -1.55902,-1 z m -64.84287,-62.75 c -2.33377,-1.5125 -4.50877,-3.80688 -4.83333,-5.09863 -0.32457,-1.29175 -2.4427,-4.25678 -4.70696,-6.58897 -2.26426,-2.33218 -4.76691,-5.5503 -5.56143,-7.15137 -3.93352,-7.92653 -8.29781,-14.1361 -11.39374,-16.21115 -2.00818,-1.34599 -3.65943,-3.42007 -3.98068,-5 -0.36477,-1.79402 -1.60335,-3.15877 -3.69152,-4.06758 -1.72842,-0.75224 -3.40872,-2.10224 -3.73401,-3 -0.32529,-0.89777 -2.31584,-3.71975 -4.42345,-6.27108 -2.1076,-2.55133 -3.83201,-5.10851 -3.83201,-5.68261 0,-0.57411 -0.9,-1.32948 -2,-1.67861 -1.1,-0.34913 -2,-1.23945 -2,-1.97849 0,-1.7715 -5.69326,-6.51982 -7.82673,-6.52767 -0.9203,-0.003 -2.95111,-0.67263 -4.51292,-1.48721 -1.95057,-1.01734 -3.39296,-1.18492 -4.6069,-0.53523 -1.35336,0.72429 -2.98237,0.0952 -6.9555,-2.68617 -3.68884,-2.58234 -6.40344,-3.69288 -9.39309,-3.8427 -4.26211,-0.21359 -11.73999,-3.77992 -17.03159,-8.12267 -1.55469,-1.27592 -3.41209,-2.31986 -4.12755,-2.31986 -0.71546,0 -1.85115,-0.66309 -2.52376,-1.47354 -0.67261,-0.81044 -2.86521,-1.77278 -4.87244,-2.13853 -2.00724,-0.36575 -4.87676,-1.526 -6.37672,-2.57832 -1.8049,-1.26627 -4.34127,-1.89392 -7.5,-1.85595 -7.86843,0.0946 -14.05962,-0.40703 -14.8562,-1.20366 -0.41246,-0.4125 -1.49041,-0.75 -2.39544,-0.75 -2.70422,0 -9.42907,-3.69549 -10.77963,-5.92371 -0.69217,-1.14196 -1.86292,-2.07629 -2.60169,-2.07629 -1.87519,0 -7.63984,-5.69224 -7.63984,-7.54388 0,-0.83957 0.72823,-2.63791 1.61829,-3.99631 1.19203,-1.81926 1.33123,-2.81571 0.52848,-3.78297 -0.80208,-0.96644 -0.67775,-1.90145 0.4709,-3.54137 0.85839,-1.22553 1.32152,-2.85154 1.02918,-3.61337 -0.29234,-0.76183 0.39566,-3.3042 1.52889,-5.64972 1.66776,-3.45185 1.83482,-4.62583 0.87661,-6.16017 -0.94934,-1.52013 -0.88261,-2.12502 0.33689,-3.0539 1.79283,-1.36558 3.5616,-5.60196 4.64337,-11.12129 0.72522,-3.70015 0.52558,-4.21413 -3.01029,-7.75 -2.08287,-2.08286 -4.17747,-3.78917 -4.65467,-3.7918 -0.47721,-0.003 -2.58019,-1.57763 -4.6733,-3.5 -2.09311,-1.92237 -4.11811,-3.49354 -4.5,-3.49148 -0.38189,0.002 -2.21206,0.92901 -4.06703,2.05991 -1.85498,1.13089 -3.99248,1.81833 -4.75,1.52765 -2.23709,-0.85846 -1.57513,-3.56559 1.12268,-4.5913 1.375,-0.52277 2.5,-1.55245 2.5,-2.28816 0,-2.1597 5.48823,-6.84545 7.23342,-6.17576 0.94678,0.36331 2.14131,-0.233 3.04163,-1.51838 1.11362,-1.58991 2.11138,-1.95882 4.00947,-1.48243 1.99516,0.50076 2.66615,0.19552 3.18858,-1.45053 0.36392,-1.14661 0.96885,-2.09163 1.34429,-2.10005 2.54964,-0.0572 3.15302,-1.73673 1.68274,-4.68396 -1.75404,-3.51606 -1.18062,-5.83818 1.86752,-7.56269 1.98492,-1.12299 1.85899,-1.24206 -1.82136,-1.72222 -3.83001,-0.49968 -3.96227,-0.64556 -4.22708,-4.6624 -0.18434,-2.7962 0.23256,-4.56646 1.28015,-5.43588 1.3269,-1.10123 2.27171,-0.5081 6.47708,4.06619 2.70796,2.94552 4.92356,5.50417 4.92356,5.68588 0,0.18171 -0.66088,0.33039 -1.46862,0.33039 -2.02935,0 -0.909,2.45995 1.77443,3.89607 1.20985,0.64749 2.96505,2.51076 3.90045,4.1406 1.02619,1.78804 2.52484,2.96333 3.77861,2.96333 2.56987,0 3.6674,2.50914 1.9845,4.5369 -0.6899,0.83129 -1.02965,1.73615 -0.755,2.0108 0.8835,0.8835 3.81039,-0.72546 4.84859,-2.66535 0.72637,-1.35723 2.11347,-1.88235 4.97222,-1.88235 4.40095,0 4.70448,-0.49898 2.34909,-3.86176 -1.18888,-1.69737 -1.32097,-2.60154 -0.5,-3.42251 1.62832,-1.62832 1.36334,-4.40674 -0.48802,-5.11717 -0.88207,-0.33848 -1.36321,-1.24228 -1.0692,-2.00845 0.31608,-0.82369 -0.25458,-1.5994 -1.39625,-1.89795 -1.07071,-0.28 -1.9308,-1.3691 -1.9308,-2.4449 0,-1.06699 -0.7204,-3.38406 -1.60089,-5.14905 -1.01315,-2.0309 -1.38036,-4.3846 -1.00021,-6.41097 0.33037,-1.76105 0.1225,-4.77361 -0.46195,-6.69458 -1.6807,-5.52417 -2.78154,-14.39694 -1.92218,-15.49266 0.43137,-0.55 0.3957,-3.43166 -0.0793,-6.40369 -0.47496,-2.97203 -0.65714,-5.73769 -0.40484,-6.14592 0.2523,-0.40823 -0.21111,-2.02657 -1.02981,-3.59631 -0.81869,-1.56974 -1.4913,-3.37213 -1.49469,-4.0053 -0.005,-0.99456 -5.54103,-5.03817 -8.50616,-6.2134 -2.76409,-1.09556 -4.5,-3.73341 -4.5,-6.83812 0,-2.33443 -0.77984,-4.11549 -2.5,-5.70968 -1.375,-1.27431 -2.5,-2.94698 -2.5,-3.71706 0,-0.77008 -0.83094,-2.96847 -1.84653,-4.88533 -2.98222,-5.62872 -3.44287,-8.89456 -1.6422,-11.64273 0.88138,-1.34517 1.72532,-4.88994 1.87541,-7.87728 0.18189,-3.62036 0.90151,-6.12614 2.15806,-7.51462 1.78007,-1.96695 1.95683,-1.98511 3.17022,-0.3257 0.70677,0.96657 1.28504,3.41629 1.28504,5.44382 0,4.14943 1.96651,6.39411 4.81083,5.49136 2.40276,-0.76261 4.44311,1.56665 3.55924,4.06321 -0.54425,1.53731 -0.42077,1.65067 0.68275,0.62675 2.46093,-2.28341 3.22899,-1.35965 2.49435,3 -1.79569,10.65638 -1.7989,10.75 -0.36834,10.75 0.7687,0 3.05858,-1.98701 5.08862,-4.41559 4.43978,-5.3114 9.68267,-7.48425 13.33822,-5.52786 1.31688,0.70478 2.39433,2.01537 2.39433,2.91243 0,0.89706 0.54,2.17102 1.2,2.83102 0.93333,0.93333 0.93333,1.46667 0,2.4 -1.6367,1.6367 -1.50715,2.8 0.31182,2.8 1.23144,0 1.37053,0.78818 0.75,4.25 -1.38339,7.71757 -0.85282,10.99031 2.53714,15.65004 1.76057,2.42002 3.20104,5.43096 3.20104,6.69098 0,2.91848 1.78072,4.05411 3.31653,2.11507 0.65091,-0.8218 2.64597,-1.68893 4.43347,-1.92694 2.56844,-0.34201 3.25,-0.0741 3.25,1.27741 0,0.9406 1.0125,1.99506 2.25,2.34324 2.15547,0.60647 2.1724,0.69251 0.4028,2.04795 -1.01596,0.77819 -2.59096,1.14449 -3.5,0.814 -1.38186,-0.50238 -1.34051,-0.24522 0.25219,1.56868 1.04774,1.19327 2.68014,2.16957 3.62755,2.16957 0.94742,0 2.25778,0.64489 2.91193,1.43309 0.94841,1.14277 0.73265,1.88979 -1.06506,3.6875 -1.45067,1.45067 -2.39627,1.82882 -2.65232,1.06068 -0.57653,-1.72959 -2.22709,-0.39173 -2.22709,1.80517 0,1.02762 1.12822,2.75586 2.50716,3.84053 1.59406,1.25389 2.28349,2.55501 1.89301,3.57258 -0.3998,1.04188 -0.0747,1.60045 0.93157,1.60045 1.80692,0 2.5789,4.26526 3.07687,17 0.19463,4.9772 1.19465,11.19391 2.41292,15 1.14429,3.575 2.80658,8.75 3.69397,11.5 0.88739,2.75 2.0346,7.025 2.54935,9.5 1.17901,5.66889 7.4591,18.62346 10.78631,22.25 1.38766,1.5125 3.31227,2.75 4.27691,2.75 0.96464,0 2.03201,0.45 2.37193,1 0.33992,0.55 1.18514,1 1.87826,1 1.98592,0 0.0524,-13.83472 -2.40516,-17.20951 -1.0852,-1.49023 -1.9731,-3.55798 -1.9731,-4.59501 0,-1.03703 -0.90334,-2.70302 -2.00743,-3.7022 -1.10409,-0.99919 -2.6177,-2.98143 -3.36359,-4.40499 -0.74589,-1.42356 -2.08978,-3.93829 -2.98641,-5.58829 -0.89664,-1.65 -1.63991,-4.125 -1.65172,-5.5 -0.0288,-3.35032 -1.32055,-5.19445 -3.14751,-4.49338 -1.68518,0.64667 -1.69067,0.60113 -2.09068,-17.33652 -0.21068,-9.44738 -0.54343,-11.54263 -2.00266,-12.61024 -1.89404,-1.38573 -2.36029,-3.55986 -0.76342,-3.55986 0.54262,0 1.67394,-1.64508 2.51405,-3.65574 1.36422,-3.26504 1.36565,-3.83454 0.0134,-5.32874 -0.83271,-0.92015 -1.51403,-2.37692 -1.51403,-3.23727 0,-0.86035 -0.675,-1.82329 -1.5,-2.13988 -0.825,-0.31658 -1.5,-1.44158 -1.5,-2.5 0,-1.05841 0.675,-2.18341 1.5,-2.5 1.02029,-0.39152 1.5,0.054 1.5,1.39301 0,1.08274 0.45,1.96862 1,1.96862 0.55,0 1,-0.64844 1,-1.44098 0,-2.08236 1.86077,-2.91946 3.48786,-1.5691 1.10333,0.91568 1.67517,0.72189 2.69674,-0.91391 1.32005,-2.11373 4.8154,-2.89477 4.8154,-1.07601 0,0.55 0.94878,1 2.10841,1 1.74962,0 2.00163,0.42542 1.48095,2.5 -0.99902,3.98039 1.16329,2.91535 3.375,-1.66236 1.39431,-2.8859 1.70155,-4.53527 1.00184,-5.37837 -1.36672,-1.64679 0.50265,-6.45927 2.50905,-6.45927 0.83861,0 1.53164,-0.7875 1.54006,-1.75 0.008,-0.9625 0.49365,-2.425 1.07829,-3.25 0.83378,-1.17657 0.97045,-0.91886 0.63384,1.19517 -0.40201,2.52484 -0.23317,2.66157 2.67171,2.16347 1.70547,-0.29244 3.7042,-0.71932 4.44163,-0.94863 0.73743,-0.2293 2.6069,0.48464 4.15437,1.58654 1.54748,1.1019 3.28007,2.00345 3.8502,2.00345 1.9524,0 2.35106,2.12549 0.73383,3.91251 -1.45703,1.61 -1.46732,2.07301 -0.10412,4.68698 0.83194,1.59528 1.51539,3.44718 1.51878,4.11533 0.003,0.66815 0.95291,1.7215 2.11004,2.34078 1.8785,1.00534 2.03277,1.69513 1.44005,6.43911 -0.74744,5.98225 0.66171,8.08442 3.09269,4.6137 1.703,-2.43138 4.17492,-2.7631 4.97883,-0.66815 0.63867,1.66434 3.48484,0.71455 9.29337,-3.10126 3.76445,-2.47299 7.25493,-1.73784 6.82472,1.43737 -0.12845,0.948 0.21646,1.94863 0.76646,2.22363 0.55,0.275 1.14605,-1.03003 1.32455,-2.90008 0.37388,-3.91685 3.76931,-7.28752 6.51053,-6.46306 2.42039,0.72796 7.04664,-3.47198 5.66206,-5.14031 -0.68513,-0.82553 0.51427,-2.79764 4.00634,-6.58741 2.74132,-2.97503 4.98699,-5.95166 4.99037,-6.61473 0.007,-1.45817 4.65189,-8.449 6.31627,-9.50724 0.90182,-0.57339 0.88727,-0.76025 -0.0601,-0.77186 -2.24883,-0.0276 -1.31045,-3.04183 1.25,-4.01531 1.45743,-0.55412 2.5,-1.74381 2.5,-2.8528 0,-1.04627 0.675,-2.46251 1.5,-3.1472 0.825,-0.68469 1.5,-2.05526 1.5,-3.04572 0,-0.99046 1.125,-3.13782 2.5,-4.77191 1.375,-1.6341 2.5,-4.14362 2.5,-5.57673 0,-2.11268 0.47297,-2.60564 2.5,-2.60564 1.55556,0 2.5,-0.56667 2.5,-1.5 0,-0.825 0.45,-1.5 1,-1.5 0.55,0 1,-0.64671 1,-1.43713 0,-1.07617 -0.85478,-1.29842 -3.4032,-0.88487 -2.79145,0.45299 -3.61232,0.16152 -4.56657,-1.62152 -0.63986,-1.19558 -0.88551,-3.43891 -0.54589,-4.98519 0.50051,-2.27879 0.22896,-2.913 -1.43343,-3.34772 -2.53374,-0.66259 -2.73151,-4.24331 -0.30924,-5.59888 0.95792,-0.53608 1.39152,-1.32483 0.96357,-1.75278 -1.2178,-1.2178 -20.66862,-1.03585 -21.49146,0.20103 -0.39258,0.59012 -1.53231,1.3754 -2.53273,1.74508 -1.34425,0.49672 -1.64114,1.26061 -1.13761,2.92705 1.06841,3.53591 2.17177,4.23692 4.68635,2.97745 2.05066,-1.0271 5.73201,-1.62482 8.21134,-1.33321 0.51762,0.0609 0.0676,0.75923 -1,1.55189 -1.06762,0.79266 -2.95363,1.19387 -4.19113,0.89159 -1.61829,-0.3953 -2.25,-0.1045 -2.25,1.03575 0,2.63252 -4.11204,4.43475 -11.5,5.04023 -3.85,0.31553 -8.93089,0.79152 -11.29087,1.05775 -3.26291,0.3681 -4.43293,0.11383 -4.8839,-1.06137 -0.49239,-1.28315 -2.07812,-1.46517 -9.34329,-1.07248 -4.81264,0.26013 -9.69667,0.97947 -10.85341,1.59854 -1.15674,0.61907 -5.59637,1.17898 -9.86584,1.24425 -12.29309,0.18794 -13.55361,0.025 -12.90409,-1.66757 0.37195,-0.96929 -0.44432,-2.01798 -2.3296,-2.99289 -3.69628,-1.91142 -4.50015,-3.24237 -3.029,-5.015 1.98264,-2.38894 0.33442,-3.18888 -5.70753,-2.77007 l -5.79247,0.40152 2.47426,-1.98918 c 2.40322,-1.93208 2.42216,-2.04675 0.65986,-3.99406 -1.17234,-1.29543 -1.58171,-2.73797 -1.15687,-4.07655 0.5635,-1.77542 0.23641,-2.07166 -2.28742,-2.07166 -1.61972,0 -3.44614,-0.6039 -4.05871,-1.34201 -1.30789,-1.57591 -0.5062,-2.73915 1.38708,-2.01263 0.81102,0.31121 1.45015,-0.36208 1.65223,-1.74058 0.4718,-3.21836 2.82957,-3.67427 2.82957,-0.54713 0,2.81335 0.28086,3.07382 4.37074,4.05345 2.71652,0.65067 2.84242,0.53722 2.34349,-2.11174 -0.28999,-1.53965 -0.80992,-3.69936 -1.1554,-4.79936 -0.47886,-1.52467 0.0216,-2.29708 2.10588,-3.25 1.50371,-0.6875 3.51164,-1.25 4.46207,-1.25 0.95043,0 2.68581,-1.21758 3.85639,-2.70573 1.86542,-2.37151 2.37822,-2.54967 4.1513,-1.44236 1.74171,1.08771 2.34193,0.94252 4.31702,-1.04427 1.26172,-1.2692 2.63402,-3.87018 3.04956,-5.77996 0.46856,-2.15348 2.60586,-5.36193 5.62723,-8.44743 2.67945,-2.73632 4.87172,-5.33628 4.87172,-5.77769 0,-1.50434 -2.36599,-0.80735 -4.69879,1.3842 -1.796,1.68725 -2.59878,1.91567 -3.51445,1 -0.65274,-0.65272 -1.94219,-1.18676 -2.86546,-1.18676 -0.92327,0 -2.23787,-1.35 -2.92132,-3 -1.35571,-3.27298 -2.56763,-3.64416 -5.25,-1.60795 -2.12579,1.6137 -2.2436,2.60795 -0.30902,2.60795 0.79254,0 1.7406,0.48478 2.10679,1.07729 0.99408,1.60846 -8.66888,0.009 -10.70634,-1.77187 -1.31468,-1.14928 -2.44132,-1.23379 -5.43359,-0.40759 -6.54578,1.80738 -8.63548,-1.58423 -9.06453,-14.71185 -0.33199,-10.15787 -0.80437,-11.87815 -2.80559,-10.21729 -0.70632,0.5862 -1.97227,0.80179 -2.81321,0.47909 -1.17718,-0.45173 -1.78157,0.59104 -2.62675,4.53197 -0.60377,2.81528 -1.09776,5.71644 -1.09776,6.44703 0,0.73058 -0.675,1.88853 -1.5,2.57322 -0.825,0.68469 -1.5,2.08979 -1.5,3.12244 0,2.12855 -2.79728,2.56942 -3.56749,0.56228 -0.2776,-0.72341 -0.0855,-2.41091 0.42683,-3.75 0.75906,-1.98386 0.46775,-2.92891 -1.57313,-5.10346 -2.79441,-2.97744 -2.34974,-4.83126 1.15887,-4.83126 1.6108,0 2.84907,-1.00031 4.0231,-3.25 4.00144,-7.66757 4.68815,-8.75 5.5512,-8.75 0.50064,0 1.39192,0.9 1.98062,2 0.5887,1.1 1.49298,2 2.0095,2 1.57505,0 3.9905,-5.69022 3.9905,-9.40065 0,-2.17059 0.60857,-3.84054 1.60224,-4.39663 1.04724,-0.58606 1.70842,-2.58355 1.90877,-5.76661 0.21924,-3.48312 0.90206,-5.35218 2.39776,-6.56332 1.15018,-0.93136 2.09123,-2.80364 2.09123,-4.16064 0,-1.35699 0.66566,-3.01971 1.47925,-3.69493 1.94433,-1.61365 4.52075,-6.84022 4.52075,-9.17086 0,-1.0155 0.9,-2.74636 2,-3.84636 1.1,-1.1 2,-2.34175 2,-2.75945 0,-0.4177 -0.9,-1.32152 -2,-2.00848 -1.1,-0.68696 -1.98782,-2.2577 -1.97294,-3.49054 0.0346,-2.87024 6.15201,-9.48728 9.1658,-9.91449 1.82957,-0.25934 2.37432,-1.05153 2.63167,-3.82704 0.1785,-1.925 1.099,-4.4 2.04556,-5.5 0.94656,-1.1 2.32754,-3.21597 3.06884,-4.70216 1.30769,-2.6217 5.46938,-4.79784 9.1755,-4.79784 0.99879,0 3.40785,-1.39768 5.35347,-3.10596 3.79417,-3.33132 6.5321,-3.30007 6.5321,0.0746 0,1.139 0.65894,2.03138 1.5,2.03138 0.825,0 1.5,-0.41968 1.5,-0.93261 0,-0.51294 0.9,-1.21826 2,-1.56739 2.58354,-0.81999 2.52007,-1.64679 -0.36546,-4.76033 -1.301,-1.4038 -3.36614,-4.61951 -4.5892,-7.14602 -1.22307,-2.52653 -2.85861,-4.59367 -3.63455,-4.59367 -0.77593,0 -1.41079,-0.71845 -1.41079,-1.59655 0,-0.8781 -1.81025,-3.6531 -4.02278,-6.16667 -3.81926,-4.33891 -5.86899,-8.67834 -4.66698,-9.88035 0.30274,-0.30274 2.11178,-0.59469 4.0201,-0.64879 3.22493,-0.0914 3.46966,-0.32674 3.46966,-3.33633 0,-2.37874 -0.94646,-4.18443 -3.56667,-6.80464 -1.96166,-1.96167 -3.9087,-3.56667 -4.32675,-3.56667 -0.8333,0 -4.12149,-6.11842 -3.57949,-6.66043 0.98973,-0.98972 9.95292,6.38633 11.83949,9.74304 1.31196,2.3343 2.94355,3.91739 4.03743,3.91739 1.00965,0 3.61785,1.125 5.79599,2.5 4.96672,3.13535 6,3.13535 6,0 0,-2.82783 1.16167,-3.21505 3,-1 0.68469,0.825 2.43966,1.5 3.89994,1.5 1.46028,0 3.61018,0.669 4.77755,1.48666 1.16738,0.81767 4.6105,2.1347 7.65138,2.92675 3.04088,0.79205 6.47788,1.94798 7.63777,2.56874 2.69398,1.44177 6.03336,0.40386 6.03336,-1.87522 0,-1.92156 -3.43757,-5.43273 -6.31697,-6.45223 -1.27077,-0.44994 -1.72169,-1.44853 -1.5,-3.3219 0.52102,-4.40287 2.25399,-3.72227 6.7149,2.6372 2.32516,3.31473 5.06974,6.47751 6.09907,7.0284 2.76687,1.48078 7.003,1.24402 7.003,-0.39141 0,-2.58014 3.03986,-2.65804 5.55553,-0.14237 1.34446,1.34446 2.44447,2.91493 2.44447,3.48993 0,0.575 0.70714,1.04545 1.57143,1.04545 0.86428,0 2.22731,0.65588 3.02894,1.45751 1.92497,1.92497 4.56044,0.83159 4.19163,-1.73899 -0.37419,-2.60815 2.35764,-2.97798 11.5423,-1.56258 5.25629,0.81002 7.62298,1.74567 10.25,4.05222 3.90266,3.42658 4.21327,3.15168 1.49303,-1.32139 -1.50133,-2.46875 -1.67887,-3.55195 -0.81016,-4.94297 0.83114,-1.33086 0.79942,-2.15863 -0.12539,-3.27297 -1.0675,-1.28625 -0.61058,-1.48209 3.31928,-1.42268 2.51258,0.038 5.05667,0.67075 5.6705,1.41037 0.61233,0.73782 2.10479,1.34148 3.31657,1.34148 1.21178,0 3.26012,1.125 4.55187,2.5 1.29175,1.375 2.75912,2.5 3.26084,2.5 0.50171,0 2.78577,1.30505 5.07568,2.90012 2.28992,1.59506 8.65576,4.36708 14.14633,6.16004 l 9.98285,3.25992 11.01715,-1.20333 c 11.80481,-1.28935 24.71942,-4.20981 27.00522,-6.10685 0.77101,-0.63988 2.43911,-1.01638 3.70689,-0.83666 1.86954,0.26502 2.36368,1.03526 2.61541,4.07676 0.44953,5.43152 1.85351,4.59988 2.43404,-1.44178 0.40227,-4.18655 1.05617,-5.64211 3.37723,-7.51766 3.1288,-2.52826 6.99394,-2.69592 6.68713,-0.29008 -0.10518,0.82474 -1.12357,6.22452 -2.26309,11.99952 -1.13952,5.775 -2.31136,12.1875 -2.60408,14.25 -0.75903,5.348 -2.79422,4.64504 -4.77874,-1.6506 -0.93632,-2.97032 -2.42553,-5.67809 -3.30937,-6.01725 -1.71933,-0.65976 -4.35349,0.98091 -4.35349,2.71155 0,0.57685 -0.67812,1.79813 -1.50693,2.71396 -1.35487,1.49712 -1.25409,1.95913 0.99878,4.57874 3.14766,3.66005 3.14439,4.4136 -0.0192,4.4136 -1.724,0 -3.92003,-1.49532 -6.90904,-4.7045 l -4.38174,-4.7045 -14.34096,-0.34422 c -19.62272,-0.47099 -24.92318,-0.7548 -27.84096,-1.49073 -1.375,-0.34681 -3.83098,-0.91583 -5.45774,-1.2645 -1.71146,-0.36682 -4.92184,-2.71504 -7.61908,-5.57295 -5.67979,-6.01812 -7.17636,-5.26001 -5.86122,2.96908 1.29638,8.11166 -1.93483,12.62476 -3.48914,4.87337 -0.70441,-3.5129 -6.09202,-10.57518 -7.21263,-9.45458 -0.37469,0.3747 0.10542,1.55055 1.06693,2.613 2.72486,3.01094 1.66223,5.6432 -2.13023,5.27682 -2.62996,-0.25408 -3.19708,0.0728 -3.4703,2 -0.30445,2.14753 -0.73336,2.28594 -6.32659,2.04165 -7.37144,-0.32195 -13.66821,-1.23928 -15,-2.18524 -0.55,-0.39066 -3.475,-0.56268 -6.5,-0.38228 -14.80046,0.88268 -18.30927,0.80126 -20.11978,-0.46687 -1.03605,-0.72568 -2.35124,-1.03048 -2.92265,-0.67733 -1.19618,0.73928 -0.22611,4.61929 1.42721,5.70847 0.71792,0.47295 0.54699,0.74014 -0.47979,0.75 -2.51581,0.0241 -5.18203,-3.53646 -4.42774,-5.91303 1.05519,-3.3246 -0.9929,-2.38623 -3.02415,1.38557 -1.02628,1.90568 -2.77989,3.58862 -3.90747,3.75 -1.61909,0.23172 -2.26523,1.43888 -3.0988,5.78931 -1.18917,6.20631 -3.75374,7.95663 -5.38223,3.67336 -1.20065,-3.15795 -2.71458,-4.07306 -7.0646,-4.27031 -4.2848,-0.19429 -7.87197,2.68154 -7.34407,5.88774 0.2728,1.65689 -0.76075,3.08439 -4.11479,5.68319 -2.67417,2.07201 -4.72294,4.58072 -5.08421,6.2256 -0.77694,3.53738 0.21733,5.31911 2.09751,3.7587 0.8661,-0.7188 2.88022,-0.88823 5.43264,-0.457 3.12933,0.52869 4.40585,1.36135 5.58611,3.64372 0.84142,1.62713 1.30068,3.72343 1.02057,4.65844 -0.88175,2.94329 3.88959,5.54268 8.91067,4.85447 4.6913,-0.64302 5.79975,0.0837 6.85057,4.49129 0.44299,1.8581 0.18633,2.81629 -0.86212,3.21862 -2.29031,0.87887 -1.77577,2.52653 1.00712,3.225 1.375,0.3451 2.5,1.07641 2.5,1.62513 0,0.54872 -1.125,1.88259 -2.5,2.96417 -2.99349,2.35468 -3.19393,4.37959 -0.5724,5.78259 1.40452,0.75168 2.11641,2.59293 2.62339,6.78519 0.38269,3.16446 1.14537,6.31606 1.69485,7.00356 1.61422,2.01969 4.75416,1.52434 4.75416,-0.75 0,-1.1 0.38026,-2 0.84501,-2 1.53819,0 4.15499,3.62261 4.15499,5.75202 0,1.15199 1.15798,3.4707 2.57328,5.1527 1.75339,2.08379 2.36865,3.70287 1.93105,5.08165 -0.45514,1.434 -0.11233,2.20523 1.17672,2.64737 5.3824,1.84615 12.31895,5.77847 12.31895,6.98361 0,0.76046 0.47829,1.38265 1.06286,1.38265 0.58457,0 0.98275,0.7875 0.88484,1.75 -0.32062,3.15202 0.0321,4.25 1.36521,4.25 0.7221,0 2.62765,1.37229 4.23455,3.04954 2.2077,2.30434 3.49862,2.90473 5.28275,2.45694 2.76428,-0.69379 5.16979,0.96806 5.16979,3.57156 0,1.00823 1.125,3.49092 2.5,5.5171 1.4855,2.18901 2.5,3.01863 2.5,2.04441 0,-1.84436 1.53886,-2.19471 2.53812,-0.57787 0.36089,0.58393 1.67858,1.45041 2.9282,1.92552 3.04451,1.15751 3.94758,5.72092 1.40178,7.08339 -2.50453,1.34039 -2.35978,2.61242 0.81933,7.19988 2.66647,3.8477 2.67352,3.90381 0.90387,7.18986 -1.44541,2.68396 -1.56115,3.7275 -0.61043,5.50392 0.64522,1.20562 0.85846,2.94437 0.47385,3.86389 -0.38461,0.91952 -0.87715,7.74686 -1.09455,15.17186 -0.21739,7.425 -0.54245,16.425 -0.72234,20 -0.17989,3.575 0.0916,7.32996 0.60322,8.34435 0.70309,1.39389 0.35985,2.45153 -1.40537,4.3304 -1.89037,2.01207 -2.34381,3.61466 -2.3783,8.40565 -0.0234,3.25578 0.36654,5.9196 0.86663,5.9196 0.50009,0 0.6739,0.9 0.38624,2 -0.28766,1.1 -0.11514,2 0.38337,2 0.49851,0 0.90638,1.14083 0.90638,2.53518 0,1.39435 0.76829,3.70775 1.70732,5.14089 2.69696,4.11607 10.62143,11.27526 12.50875,11.30075 3.10528,0.0419 8.63997,3.23476 8.09033,4.66709 -0.70605,1.83995 2.7697,1.76576 5.25247,-0.11211 2.88577,-2.18268 4.88434,-1.85434 8.33537,1.36941 3.7845,3.53524 3.98953,6.9199 0.61144,10.09346 -2.51176,2.35967 -3.87387,2.52378 -17.00568,2.04893 -3.29988,-0.11932 -7.5,3.70998 -7.5,6.83785 0,2.94025 -4.35957,6.31739 -7.22633,5.59788 -6.4496,-1.61875 -17.42376,7.91323 -12.99947,11.29112 2.93188,2.23847 9.48555,3.56184 18.7258,3.78128 11.70574,0.27798 19.45787,1.34836 22.21482,3.06732 1.21815,0.75952 3.46815,1.39096 5,1.40319 1.53185,0.0122 3.91018,0.90222 5.28518,1.97776 1.375,1.07554 2.94113,1.96553 3.48028,1.97776 0.53915,0.0122 3.6151,1.64854 6.83544,3.63625 5.43561,3.35505 6.29688,3.58099 12.01972,3.15323 8.12068,-0.60701 10.1789,0.4265 11.7051,5.87755 0.67949,2.42691 0.95947,4.68853 0.62217,5.02583 -0.33729,0.33729 -3.21189,0.58279 -6.38799,0.54554 -6.14305,-0.072 -14.05139,2.91831 -15.29602,5.78384 -2.92901,6.74347 -6.93065,13.5384 -9.57829,16.26427 -4.8161,4.95842 -7.73495,10.62771 -6.33819,12.3107 0.87424,1.05339 0.62961,2.43018 -1.04729,5.89419 -2.6385,5.45042 -3.37942,5.98824 -8.51493,6.18089 -10.2064,0.38286 -20.27595,2.31058 -25.31562,4.84642 -4.55671,2.29283 -6.69272,2.69817 -14.96115,2.83911 l -9.64554,0.16442 -2.17577,3.23009 -2.17577,3.23009 -1.22066,-2.94693 c -1.97192,-4.76064 -3.88196,-5.82241 -5.84979,-3.25183 -1.49749,1.95617 -2.07942,2.06646 -6.08996,1.15427 -3.67994,-0.837 -4.58148,-0.7455 -5.29969,0.53787 -0.47599,0.85054 -1.46297,1.54644 -2.1933,1.54644 -0.73032,0 -1.88563,0.67207 -2.56734,1.49348 -0.9956,1.19963 -0.92132,2.16396 0.37756,4.90113 0.88936,1.87421 1.61703,4.12714 1.61703,5.00652 0,0.87938 0.417,1.59887 0.92668,1.59887 0.50967,0 1.07817,0.78669 1.26335,1.7482 0.18517,0.96152 1.2233,1.74902 2.30696,1.75 1.17543,10e-4 2.12442,0.80865 2.35233,2.0018 0.45892,2.40247 1.91496,3.46408 4.77936,3.48469 1.36897,0.01 2.53858,0.99676 3.2772,2.76531 1.53907,3.6851 10.02307,6.78064 12.80365,4.67164 2.61148,-1.98075 4.09802,-1.73234 6.74867,1.12776 1.43092,1.54399 2.61848,2.13554 3.01127,1.5 0.35671,-0.57717 1.52811,-1.0494 2.60312,-1.0494 2.17494,0 5.36369,-1.59777 8.5032,-4.26065 2.27115,-1.92636 7.69445,-1.86911 9.66558,0.10202 0.6373,0.63725 1.74368,1.15863 2.45868,1.15863 2.96799,0 0.64528,5.68398 -2.81575,6.89051 -2.02461,0.70578 -3.49982,2.32909 -4.82818,5.3129 -1.05204,2.36312 -3.13163,5.4156 -4.62131,6.78329 -1.48968,1.36768 -3.73339,4.06768 -4.98602,6 -3.28397,5.06589 -10.19295,12.0133 -11.94683,12.0133 -0.88633,0 -1.50819,0.92219 -1.51722,2.25 -0.0188,2.75764 -0.94123,4.19537 -3.23469,5.04156 -0.9625,0.35512 -1.75,1.47379 -1.75,2.48593 0,1.01214 -0.66069,2.71376 -1.4682,3.78138 -0.8075,1.06762 -1.4825,2.71826 -1.5,3.66808 -0.0175,0.94982 -1.1568,2.46407 -2.5318,3.36501 -1.375,0.90093 -2.5,2.53852 -2.5,3.63907 0,2.94626 -6.81077,11.76897 -9.08517,11.76897 -1.56926,0 -1.91483,0.72634 -1.91483,4.02475 0,3.37294 -0.40488,4.17869 -2.5,4.97525 -1.375,0.52277 -2.5,1.52993 -2.5,2.23812 0,0.70819 -1.00451,1.73183 -2.23225,2.27475 -1.22773,0.54292 -2.76414,2.06464 -3.41424,3.3816 -0.90725,1.8379 -5.95496,7.10553 -6.80888,7.10553 -0.0794,0 -2.05374,-1.2375 -4.3875,-2.75 z m -91.44662,-120.249 c -0.28751,-1.09946 -0.17535,-2.21372 0.24926,-2.47614 0.42461,-0.26242 0.57117,-1.52773 0.32571,-2.81181 -0.2606,-1.36324 0.20255,-2.87319 1.11309,-3.62887 1.17699,-0.97681 1.30798,-1.76398 0.53417,-3.20985 -0.56387,-1.05362 -0.77528,-2.32008 -0.46979,-2.81438 0.30549,-0.49429 -0.15447,-1.60861 -1.02212,-2.47626 -0.96389,-0.96389 -1.32931,-2.35971 -0.93938,-3.58826 0.38624,-1.21695 -0.3763,-4.2266 -1.93164,-7.62391 -1.41339,-3.08726 -2.56981,-6.17314 -2.56981,-6.8575 0,-0.68437 -0.9,-2.38847 -2,-3.78689 -1.1,-1.39842 -2,-3.11118 -2,-3.80612 0,-0.69494 -0.7875,-2.13007 -1.75,-3.18917 -0.9625,-1.0591 -2.65,-4.69453 -3.75,-8.07874 l -2,-6.1531 -3.87505,0.30888 c -2.13128,0.16989 -4.88026,0.96753 -6.10886,1.77253 -1.96756,1.2892 -2.38293,1.28397 -3.48492,-0.0439 -1.10028,-1.32575 -1.59289,-1.23805 -4.08582,0.72747 -1.55908,1.22924 -2.85959,3.22092 -2.89002,4.42596 -0.0304,1.20504 -0.49059,2.45999 -1.02258,2.78878 -1.35058,0.8347 -0.11009,6.61345 1.93633,9.02024 1.07578,1.26524 1.61475,3.38866 1.46703,5.77988 -0.14294,2.31408 0.35392,4.3673 1.28127,5.29464 0.99817,0.99817 1.31583,2.50943 0.93145,4.43135 -0.32083,1.60412 -0.1291,3.19731 0.42605,3.54041 0.55516,0.34311 1.68983,2.32444 2.52149,4.40297 1.6536,4.13274 5.08409,6.3687 7.60589,4.95744 1.05368,-0.58967 1.9823,-0.38924 2.80841,0.60617 0.67882,0.81793 1.88444,1.48714 2.67916,1.48714 0.98987,0 1.24503,0.62989 0.81017,2 -0.5406,1.70328 -0.1797,2 2.43261,2 2.36507,0 3.06739,0.4425 3.06739,1.93261 0,1.06294 0.90048,2.21842 2.00106,2.56773 1.10059,0.34931 2.46642,1.50463 3.03519,2.56738 1.44024,2.69113 5.38075,2.63487 4.67426,-0.0667 z m 26.28949,-31.001 c 0,-0.55 -0.70156,-1 -1.55902,-1 -0.85746,0 -1.2809,0.45 -0.94098,1 0.33992,0.55 1.04148,1 1.55902,1 0.51754,0 0.94098,-0.45 0.94098,-1 z m 70,-6.23926 c 0,-2.37853 -4.42315,-10.76074 -5.67826,-10.76074 -2.19676,0 -1.68022,6.73778 0.61054,7.96375 1.06275,0.56877 2.22015,1.94114 2.57199,3.04971 0.64325,2.02669 2.49573,1.8391 2.49573,-0.25272 z m 82.55,-5.63994 c 0.5225,-0.48356 2.6608,-1.42615 4.75179,-2.09464 2.09098,-0.6685 3.63127,-1.73536 3.42288,-2.3708 -0.55437,-1.69038 -5.58695,-2.01455 -7.43711,-0.47905 -0.87532,0.72645 -2.95181,1.77147 -4.61442,2.32226 -4.36194,1.44502 -4.63003,3.50143 -0.45647,3.50143 1.86083,0 3.81083,-0.39564 4.33333,-0.8792 z m -101.72668,-7.45367 c 0.21801,-1.12408 -0.35203,-1.66713 -1.75,-1.66713 -1.14032,0 -2.07332,0.6 -2.07332,1.33333 0,3.06275 3.23923,3.34555 3.82332,0.3338 z m -7.82332,-1.66713 c 0,-0.55 -0.45,-1 -1,-1 -0.55,0 -1,0.45 -1,1 0,0.55 0.45,1 1,1 0.55,0 1,-0.45 1,-1 z m 130.1038,-2.2962 c -1.28349,-1.28349 -2.58505,-0.2915 -1.63484,1.24598 0.36808,0.59556 1.12735,0.79971 1.68727,0.45366 0.683,-0.42212 0.66575,-0.98146 -0.0524,-1.69964 z m -25.56268,-3.77033 c 0.88388,-1.43016 0.46305,-1.72452 -3.01304,-2.1076 -2.17686,-0.2399 -3.05167,0.13583 -3.31586,1.42413 -0.27869,1.35899 0.31463,1.75 2.65544,1.75 1.65787,0 3.31092,-0.47994 3.67346,-1.06653 z m -26.60542,-1.87257 c 1.18984,-0.7529 1.21168,-1.17839 0.12755,-2.48468 -2.34904,-2.83043 -5.94504,-1.3165 -4.68325,1.97167 0.63202,1.64701 2.44156,1.85078 4.5557,0.51301 z m -75.9357,-9.16789 c 0,-1.14261 -2.71175,-1.16842 -3.4138,-0.0325 -0.2925,0.47329 -0.27507,1.11728 0.0388,1.4311 0.78033,0.78039 3.375,-0.29484 3.375,-1.3986 z m -57,-17.89301 c 0,-1.94919 -1.06067,-2.606 -2.26443,-1.40223 -0.80112,0.80111 0.24738,3.40223 1.37142,3.40223 0.49115,0 0.89301,-0.9 0.89301,-2 z m -52,-37 c 0,-0.55 -0.45,-1 -1,-1 -0.55,0 -1,0.45 -1,1 0,0.55 0.45,1 1,1 0.55,0 1,-0.45 1,-1 z m 137.99997,-87.21482 c 2e-5,-0.39315 -0.88963,-1.19094 -1.97699,-1.77288 -1.72618,-0.92383 -2.17024,-0.59561 -3.5,2.58694 -2.23553,5.35038 -1.90956,5.79447 1.97699,2.69339 1.92498,-1.53595 3.49998,-3.1143 3.5,-3.50745 z m 6.00003,-12.61087 c 0,-1.58037 -4.52462,-4.93585 -8.2754,-6.13707 -2.07648,-0.66501 -5.16075,-2.3748 -6.85394,-3.79952 -2.20695,-1.85703 -4.56972,-2.71407 -8.34565,-3.0272 -5.8204,-0.48268 -8.1849,1.10257 -5.05655,3.39008 1.24862,0.91301 1.58894,2.03457 1.1491,3.78701 -0.90123,3.59079 0.76045,4.02309 5.40566,1.40631 3.66803,-2.06631 4.19139,-2.13648 5.27443,-0.70726 1.69537,2.23726 5.10947,3.89802 9.99889,4.86386 5.79236,1.14422 6.70346,1.17463 6.70346,0.22379 z m -38,-2.23333 c 0,-0.51754 -0.675,-0.94098 -1.5,-0.94098 -1.54641,0 -1.9867,1.17996 -0.86052,2.30615 0.79893,0.79893 2.36052,-0.10419 2.36052,-1.36517 z m -4.53691,-20.88125 c 0.35684,-0.57739 1.78064,-0.52212 3.68913,0.14318 2.58669,0.90172 3.26226,0.80784 4.02759,-0.55973 0.50576,-0.90375 1.70721,-1.64318 2.66988,-1.64318 0.96267,0 2.29192,-0.54161 2.95389,-1.20358 0.66198,-0.66198 2.43948,-1.22448 3.95,-1.25 3.80924,-0.0644 3.66219,-3.34316 -0.25358,-5.65438 -2.13644,-1.261 -4.20218,-1.61474 -7.17635,-1.22888 -3.33208,0.4323 -5.20145,-0.0161 -9.24728,-2.21811 -4.71039,-2.56372 -5.19853,-2.64447 -6.86564,-1.13575 -0.9871,0.8933 -3.06249,1.52665 -4.61199,1.40744 -1.91448,-0.14729 -3.18281,0.41928 -3.958,1.76804 -0.62741,1.09163 -2.0294,2.65051 -3.11554,3.46416 -1.89464,1.41933 -1.83375,1.51563 1.5,2.3724 1.91114,0.49116 4.7123,0.90937 6.2248,0.92936 1.5125,0.02 2.75,0.3369 2.75,0.70426 0,0.36735 0.91753,1.65277 2.03896,2.85648 2.14366,2.30095 4.44607,2.83082 5.42413,1.24829 z m -53.46309,-23.05973 c 0,-0.55 -0.42344,-1 -0.94098,-1 -0.51754,0 -1.2191,0.45 -1.55902,1 -0.33992,0.55 0.0835,1 0.94098,1 0.85746,0 1.55902,-0.45 1.55902,-1 z m 87.83948,-19.54705 c 1.54919,-3.40009 1.52958,-3.45295 -1.28046,-3.45295 -3.13427,0 -3.95855,1.38738 -2.35235,3.95932 1.65715,2.65352 2.22942,2.57375 3.63281,-0.50637 z m -46.83948,-60.45295 c 0,-0.55 -0.675,-1 -1.5,-1 -0.825,0 -1.5,0.45 -1.5,1 0,0.55 0.675,1 1.5,1 0.825,0 1.5,-0.45 1.5,-1 z m 17,-13 c 0,-0.55 -0.45,-1 -1,-1 -0.55,0 -1,0.45 -1,1 0,0.55 0.45,1 1,1 0.55,0 1,-0.45 1,-1 z m 18.5,-2 c -0.33992,-0.55 -0.81648,-1 -1.05902,-1 -0.24254,0 -0.44098,0.45 -0.44098,1 0,0.55 0.47656,1 1.05902,1 0.58246,0 0.7809,-0.45 0.44098,-1 z m 1,-10 c 0.33992,-0.55 -0.28197,-1 -1.38197,-1 -1.1,0 -2.27811,0.45 -2.61803,1 -0.33992,0.55 0.28197,1 1.38197,1 1.1,0 2.27811,-0.45 2.61803,-1 z m 84.5,398 c 0,-0.55 0.45,-1 1,-1 0.55,0 1,0.45 1,1 0,0.55 -0.45,1 -1,1 -0.55,0 -1,-0.45 -1,-1 z m 23.5382,-20.34841 c -1.33512,-0.97626 -1.45569,-1.7384 -0.62195,-3.93131 0.56884,-1.49616 1.49539,-2.72028 2.059,-2.72028 0.56361,0 1.02475,-1.05586 1.02475,-2.34636 0,-4.61553 2.73773,-8.25697 7.24327,-9.63426 2.3412,-0.71567 5.38173,-1.43273 6.75673,-1.59346 3.12539,-0.36534 7.28198,-5.22026 9.04626,-10.56609 0.7392,-2.23979 2.04369,-4.32921 2.89887,-4.64315 2.41528,-0.88666 2.73281,-1.88462 2.4419,-7.67474 -0.17863,-3.55558 0.1823,-5.76955 1.05924,-6.49735 1.4576,-1.2097 9.23075,-0.37619 10.13491,1.08676 1.15772,1.87324 4.52009,0.69662 8.23395,-2.88135 2.14083,-2.0625 5.18897,-4.82264 6.77364,-6.13365 1.58467,-1.31101 2.88797,-3.07743 2.89623,-3.92538 0.008,-0.84795 1.31131,-1.88962 2.8957,-2.31482 1.58438,-0.4252 3.83438,-1.62922 5,-2.67561 1.16561,-1.04638 2.9068,-2.18045 3.8693,-2.52014 0.9625,-0.3397 1.75,-1.24381 1.75,-2.00914 0,-1.39565 6.30106,-8.67126 7.50977,-8.67126 3.40425,0 12.49023,-16.57314 12.49023,-22.78262 0,-2.73939 1.35965,-7.62265 3.61997,-13.00131 0.75902,-1.80616 1.38003,-4.35719 1.38003,-5.66896 0,-1.31177 0.64626,-3.659 1.43613,-5.21607 4.09091,-8.06437 7.29186,-15.30292 8.54835,-19.33104 0.77203,-2.475 2.89135,-5.98416 4.70961,-7.79814 2.45824,-2.45246 3.30591,-4.17804 3.30591,-6.72976 0,-1.8874 0.60581,-5.12823 1.34624,-7.20186 3.22718,-9.03794 3.43932,-10.08404 2.28589,-11.27246 -0.85005,-0.87584 -0.24244,-1.95523 2.43862,-4.33213 6.00399,-5.32285 11.19352,-11.60132 11.52411,-13.9423 0.1727,-1.22284 0.61198,-3.23585 0.9762,-4.47335 0.53096,-1.80407 0.26582,-2.25 -1.3378,-2.25 -2.4024,0 -3.4785,-3.22477 -2.19905,-6.58998 0.79265,-2.08482 0.63175,-2.34688 -1.31555,-2.14268 -1.69009,0.17723 -2.21866,-0.29178 -2.21866,-1.96866 0,-1.21072 -0.86733,-2.83805 -1.92739,-3.61629 -1.85527,-1.36203 -1.86286,-1.55095 -0.20308,-5.04868 1.04004,-2.19173 2.43785,-3.63371 3.5224,-3.63371 2.09377,0 4.27227,-2.27122 6.23465,-6.5 0.81359,-1.75323 2.30307,-3.13015 3.58402,-3.31316 1.92618,-0.2752 2.07109,-0.63084 1.19548,-2.93387 -1.34138,-3.5281 0.45611,-7.73217 5.31925,-12.44101 4.57628,-4.43108 6.63067,-5.1974 10.24722,-3.8224 2.31106,0.87867 2.63498,1.44586 2.08261,3.64667 -0.49461,1.97072 -0.15439,2.95618 1.39537,4.04167 1.12721,0.78953 2.04947,2.14438 2.04947,3.01077 0,0.86639 0.87019,2.98327 1.93376,4.70416 1.06358,1.72089 2.09537,4.33558 2.29287,5.81041 0.19751,1.47484 1.08086,3.49495 1.963,4.48914 0.88214,0.99419 1.76745,2.70762 1.96735,3.80762 0.22563,1.24163 1.30754,2.12804 2.85324,2.33766 2.88022,0.39062 6.98978,3.86531 6.98978,5.90998 0,0.80021 0.74903,1.24791 1.75,1.04599 1.34831,-0.27199 1.67049,-1.14776 1.40361,-3.81541 l -0.34639,-3.46238 3.5565,3.77098 c 2.15646,2.28651 3.817,5.23583 4.21825,7.49209 0.36396,2.0466 1.95691,5.71074 3.53989,8.14253 3.17976,4.8848 3.79281,9.07856 1.32711,9.07856 -0.85306,0 -2.17496,1.4625 -2.93754,3.25 -1.63865,3.84098 -7.78071,8.96118 -10.24865,8.54357 -1.25852,-0.21296 -1.98433,0.70034 -2.64338,3.32621 -0.56756,2.26135 -1.91621,4.21505 -3.5937,5.20597 -2.4601,1.45321 -2.82213,1.44925 -4.3187,-0.0473 -1.75224,-1.75223 -2.18097,-1.27873 -2.91701,3.22158 -0.25061,1.53235 -0.96578,1.92481 -3.05854,1.67843 -4.13399,-0.48668 -3.46116,2.33584 1.26855,5.32157 4.18488,2.6418 5.09718,4.865 2.41821,5.89301 -2.58547,0.99214 -8.93474,0.69046 -10.10534,-0.48014 -1.91943,-1.91943 -2.66906,1.03606 -0.78955,3.1129 2.46368,2.72234 1.19936,5.37243 -2.16077,4.52909 -2.76454,-0.69389 -8.36255,-5.67617 -8.36255,-7.44278 0,-0.57296 -0.81175,-1.47618 -1.80388,-2.00715 -2.73126,-1.46173 -4.73621,0.30906 -4.36431,3.85458 0.46898,4.47101 -2.42068,4.04548 -3.26996,-0.48153 -0.47039,-2.50742 -0.22663,-3.95609 0.84622,-5.02894 1.50447,-1.50447 1.16861,-4.44907 -0.50745,-4.44907 -0.48698,0 -2.05475,1.0125 -3.48395,2.25 -2.32081,2.00953 -2.53314,2.7468 -1.98664,6.89836 0.52828,4.01319 0.26741,5.05776 -1.90907,7.64436 -2.87693,3.41904 -3.25409,7.71558 -0.96426,10.98477 2.01735,2.88016 3.07488,2.80375 4.7227,-0.34122 0.7388,-1.41005 2.4318,-3.10641 3.76223,-3.7697 1.33042,-0.66329 2.89539,-2.16162 3.4777,-3.32963 2.16722,-4.347 3.72447,-5.44542 7.28352,-5.1375 2.78742,0.24116 3.83476,0.97579 5.29912,3.71694 1.77267,3.31829 6.75554,6.03077 11.14803,6.06856 1.27443,0.011 1.75,0.83032 1.75,3.01506 0,2.48772 -0.40387,3 -2.36514,3 -1.30083,0 -3.59379,0.96645 -5.09547,2.14767 -2.11901,1.66682 -2.61168,2.74087 -2.20044,4.7971 0.29144,1.45718 0.2219,3.07823 -0.15453,3.60233 -1.28524,1.78942 -10.76165,4.38821 -16.7103,4.5826 -5.14654,0.16817 -6.27086,0.57263 -8.42908,3.03218 -1.36973,1.56097 -3.05364,2.83812 -3.74204,2.83812 -0.6884,0 -1.89213,1.23856 -2.67494,2.75236 -0.78282,1.5138 -2.36937,3.60854 -3.52568,4.65499 -1.15631,1.04644 -2.10238,2.45613 -2.10238,3.13263 0,0.6765 -1.0732,1.93319 -2.38488,2.79264 -2.5266,1.65548 -8.63724,12.28647 -12.64395,21.99728 -2.21833,5.37644 -2.87468,6.06233 -8.4383,8.81812 -3.31808,1.64351 -7.00709,3.90003 -8.19779,5.01448 -1.42803,1.33658 -2.85763,1.80642 -4.20003,1.38036 -2.43512,-0.77288 -7.66175,1.72641 -9.38677,4.4886 -0.67615,1.0827 -2.02113,1.96854 -2.98883,1.96854 -0.9677,0 -1.75945,0.45 -1.75945,1 0,0.55 -1.125,1 -2.5,1 -2.08747,0 -2.5,0.47483 -2.5,2.87756 0,1.58265 -0.675,3.43775 -1.5,4.12244 -0.825,0.68469 -1.5,1.81303 -1.5,2.50743 0,1.5983 -4.74485,4.7683 -5.98757,4.00025 -0.51209,-0.31649 -1.73688,-0.14304 -2.72175,0.38544 -0.98488,0.52849 -2.57818,1.20461 -3.54068,1.5025 -0.9625,0.29788 -1.75,1.40063 -1.75,2.45055 0,2.41734 -2.28778,4.36437 -4.24547,3.61313 -0.89776,-0.3445 -3.37629,1.0496 -6.17959,3.47584 -2.57435,2.22808 -5.50509,4.49229 -6.51276,5.03158 -1.00767,0.53929 -2.12879,2.16254 -2.49138,3.60722 -0.80487,3.20686 -4.54375,8.42606 -6.03617,8.42606 -0.5991,0 -2.34408,1.43002 -3.87775,3.17782 -2.76378,3.14966 -6.83372,5.79137 -9.02119,5.85545 -1.51593,0.0444 -5.63569,3.53136 -5.63569,4.77003 0,1.62853 -2.69423,2.14077 -4.4618,0.84829 z m 152.12136,-165.2068 c 0.32824,-0.85537 0.1531,-2.54287 -0.38919,-3.75 -0.71639,-1.59468 -0.56301,-3.08567 0.56095,-5.453 1.4482,-3.05025 1.41628,-3.43319 -0.50012,-6 -3.06294,-4.10248 -4.69896,-3.49352 -5.49105,2.04386 -0.47768,3.33945 -0.25663,5.60591 0.73149,7.5 0.77882,1.49289 1.41881,3.72685 1.4222,4.96435 0.007,2.58558 2.74129,3.10381 3.66572,0.69479 z m -0.15956,-27.01443 c 0,-2.04928 -2.57704,-2.99851 -5.30189,-1.95289 -1.4644,0.56195 -1.35854,0.8973 0.80842,2.56089 2.93173,2.25073 4.49347,2.03942 4.49347,-0.608 z M 97.383464,622.11976 c -0.739541,-1.1966 1.141625,-2.38223 2.473607,-1.55902 1.118359,0.69118 0.384169,2.48992 -1.016312,2.48992 -0.485081,0 -1.140864,-0.41891 -1.457295,-0.9309 z M 421.47815,547.36568 c -2.07355,-2.77179 -1.1194,-4.7447 2.00639,-4.14858 2.22336,0.42401 2.97987,4.07619 1.15448,5.57348 -0.97007,0.79571 -1.76911,0.4355 -3.16087,-1.4249 z m -8.88739,-9.00435 c -2.08611,-0.54515 -2.36455,-3.31067 -0.33333,-3.31067 0.77916,0 1.62521,-0.5625 1.8801,-1.25 0.34177,-0.92184 0.93178,-0.80375 2.24743,0.44981 1.4787,1.40893 1.56383,1.9651 0.49745,3.25 -0.7076,0.85261 -1.56894,1.49799 -1.91409,1.43419 -0.34516,-0.0638 -1.41506,-0.3218 -2.37756,-0.57333 z m -194.75,-13.31067 c 0,-0.55 0.45,-1 1,-1 0.55,0 1,0.45 1,1 0,0.55 -0.45,1 -1,1 -0.55,0 -1,-0.45 -1,-1 z m -41.55385,-46.08713 c -1.03052,-1.66742 1.28721,-3.57951 2.66672,-2.2 1.15392,1.15392 0.43172,3.28713 -1.11287,3.28713 -0.48508,0 -1.18431,-0.48921 -1.55385,-1.08713 z m 147.22052,0.42046 c -0.36667,-0.36666 -0.65236,-1.60416 -0.63487,-2.75 0.0312,-2.04685 0.0575,-2.04934 1.5,-0.1422 0.80751,1.06762 1.4682,2.30512 1.4682,2.75 0,0.97839 -1.41114,1.06439 -2.33333,0.1422 z m 111.51452,-1.56619 c -3.14586,-0.81517 -5.96921,-2.51242 -13.68501,-8.22669 -2.1979,-1.62775 -4.18092,-3.08749 -4.40672,-3.24387 -1.1909,-0.82477 3.46372,-4.25578 5.07832,-3.74333 1.00772,0.31984 1.83222,0.21105 1.83222,-0.24175 0,-1.39971 -6.33778,-3.72248 -9.5,-3.48172 -1.90789,0.14526 -4.0342,-0.61159 -5.84091,-2.07904 -2.40933,-1.95691 -2.86508,-3.10054 -3,-7.52801 -0.14322,-4.69975 -0.38355,-5.22066 -2.40909,-5.22164 -1.274,-6.2e-4 -2.25,-0.61561 -2.25,-1.41776 0,-0.77916 -0.50168,-1.58389 -1.11485,-1.78828 -0.81394,-0.27131 -0.79202,-1.92668 0.0812,-6.13302 0.91429,-4.40408 0.9202,-6.09379 0.0251,-7.17233 -0.64403,-0.77601 -1.20134,-3.41968 -1.23845,-5.87481 -0.0523,-3.46164 -0.48122,-4.57206 -1.91024,-4.94576 -2.19435,-0.57383 -2.52585,-4.66913 -0.37794,-4.66913 0.80565,0 1.94648,-0.9 2.53518,-2 0.5887,-1.1 1.95453,-2 3.03518,-2 1.08065,0 1.96482,-0.465 1.96482,-1.03333 0,-0.56834 1.4625,-2.49817 3.25,-4.28852 1.7875,-1.79035 3.80285,-4.47535 4.47856,-5.96667 1.06132,-2.34237 1.8781,-2.74061 6,-2.92549 2.62429,-0.1177 6.86122,-0.10885 9.41539,0.0197 3.26962,0.16452 6.03882,-0.47341 9.35728,-2.15559 4.16577,-2.1117 5.19461,-2.26215 8.85605,-1.2951 4.7643,1.25835 17.49605,1.04506 25.90511,-0.43396 l 5.76239,-1.01351 4.23761,4.48985 c 2.33068,2.46942 5.81261,6.36436 7.73761,8.65542 1.925,2.29107 4.66266,5.35394 6.08368,6.8064 3.22513,3.29646 4.91632,6.40745 4.91632,9.0437 0,3.05362 -2.56613,1.58809 -6.02694,-3.44202 -1.99057,-2.8932 -3.94823,-4.51612 -5.98802,-4.96413 -2.20043,-0.4833 -3.57946,-1.74156 -5.03443,-4.59354 -2.144,-4.20257 -2.57927,-4.27914 -10.34983,-1.8205 -1.59458,0.50449 -4.25115,0.91729 -5.90351,0.91729 -1.65236,0 -5.46371,1.16349 -8.46967,2.58554 -3.04018,1.43823 -6.37185,2.3485 -7.50817,2.05134 -2.7163,-0.71033 -5.71943,0.99266 -5.71943,3.24332 0,2.22124 2.20791,4.25866 7.68189,7.0887 2.30003,1.18911 4.71763,2.80757 5.37244,3.59656 0.65481,0.789 1.8216,1.43454 2.59287,1.43454 0.77126,0 1.82676,1.1164 2.34554,2.4809 0.56921,1.49714 1.4872,2.27216 2.31503,1.95449 0.75449,-0.28952 1.949,0.16907 2.65446,1.0191 0.70546,0.85003 1.86441,1.54551 2.57545,1.54551 2.65892,0 8.23819,7.36611 11.48944,15.1691 0.61167,1.468 2.66624,3.40657 4.56571,4.30793 1.89948,0.90136 3.22016,2.01655 2.93484,2.4782 -0.28531,0.46165 -0.24597,2.20325 0.0874,3.87022 0.55603,2.78015 0.80417,2.94065 2.99977,1.94026 3.02473,-1.37816 4.28466,-0.23666 2.12382,1.92418 -0.99605,0.99605 -4.12053,1.88112 -7.94047,2.2493 -6.46634,0.62323 -9.77919,2.11121 -17.52111,7.86965 -4.21335,3.13388 -4.57436,3.22641 -6.82765,1.75 -2.73703,-1.79338 -3.84022,-2.00014 -2.94523,-0.55202 0.34224,0.55376 -0.34601,2.36663 -1.52944,4.0286 -2.13964,3.00485 -2.20062,3.02047 -10.88573,2.78796 -4.80372,-0.1286 -10.16226,-0.6039 -11.90786,-1.05624 z m 40.81881,-12.76714 c 0,-0.55 -0.45,-1 -1,-1 -0.55,0 -1,0.45 -1,1 0,0.55 0.45,1 1,1 0.55,0 1,-0.45 1,-1 z m -16.05788,-5.43026 c 0.95284,-1.1481 0.74601,-1.66628 -1.04839,-2.62661 -1.87712,-1.00461 -2.44843,-0.90501 -3.56456,0.62139 -0.73105,0.99976 -1.32917,2.18173 -1.32917,2.62661 0,1.37896 4.68893,0.88862 5.94212,-0.62139 z m 20.05788,-10.98915 c 0,-2.9046 -10.09667,-12.50285 -16.43392,-15.62267 -10.45513,-5.14705 -28.79833,-5.12951 -31.5597,0.0302 -1.46146,2.73077 0.84483,4.01192 7.22214,4.01192 4.42933,0 7.202,0.69092 11.55,2.87812 3.14681,1.58297 7.6496,3.20016 10.00618,3.59376 2.35659,0.3936 5.50659,1.73147 7,2.97303 3.3702,2.80185 4.85155,3.37621 8.9653,3.47614 2.17729,0.0529 3.25,-0.38955 3.25,-1.34046 z m -264.87812,19.5159 c -0.75796,-0.48009 -1.09501,-1.33095 -0.749,-1.89081 0.87687,-1.4188 4.62712,-0.27524 4.62712,1.41095 0,1.56104 -1.81631,1.78578 -3.87812,0.47986 z m -0.12188,-5.03747 c 0,-0.58246 0.45,-1.05902 1,-1.05902 0.55,0 1,0.19844 1,0.44098 0,0.24254 -0.45,0.7191 -1,1.05902 -0.55,0.33992 -1,0.14148 -1,-0.44098 z m -90.93297,-1.93378 c -1.65112,-3.08514 -2.57799,-10.55906 -1.20418,-9.71 1.45656,0.9002 4.13715,7.1896 4.13715,9.70688 0,2.41569 -1.64087,2.41744 -2.93297,0.003 z m -2.55678,-17.11391 c -1.4343,-1.58488 -2.57556,-1.86462 -5.62069,-1.37768 -3.45134,0.55189 -3.93997,0.34981 -5.05116,-2.08899 -0.96663,-2.12152 -0.96967,-3.05827 -0.0142,-4.37232 0.6688,-0.91979 1.87513,-3.10407 2.68074,-4.85396 0.80561,-1.74989 1.92157,-3.46395 2.4799,-3.80902 0.55833,-0.34506 1.01515,-1.10594 1.01515,-1.69082 0,-0.68143 -0.52675,-0.62627 -1.46638,0.15356 -2.23214,1.85251 -3.86615,0.86492 -2.2426,-1.35542 2.22697,-3.04555 14.73137,-4.78983 22.33175,-3.11512 2.90828,0.64083 3.28738,0.38968 5.5195,-3.65673 3.02545,-5.48454 5.24643,-5.69526 5.67148,-0.53809 0.27297,3.31202 -0.17479,4.25422 -3.44542,7.25 -2.06754,1.89379 -4.37655,3.44326 -5.13114,3.44326 -0.91823,0 -1.16142,0.66338 -0.73533,2.00586 0.52694,1.66024 -0.15064,2.34331 -3.93262,3.96446 -4.08632,1.7516 -4.5726,2.30585 -4.60104,5.24414 -0.0593,6.12158 -3.97806,8.64211 -7.45795,4.79687 z m 20.44391,-6.09698 c -0.61391,-1.1471 -0.81795,-2.38389 -0.45342,-2.74842 0.6784,-0.67841 3.49926,2.56643 3.49926,4.0252 0,1.58904 -1.94944,0.77185 -3.04584,-1.27678 z m 54.6191,0.31646 c -0.64974,-2.04715 0.0642,-13.20162 0.89838,-14.03579 0.30893,-0.30893 1.05391,-0.0695 1.65551,0.53213 0.72649,0.72649 0.85472,3.47459 0.38184,8.18333 -0.69342,6.90479 -1.79768,8.90601 -2.93573,5.32033 z m 1.05445,-18.74596 c -1.13836,-1.13836 -1.56009,-2.54259 -1.16644,-3.88393 0.33912,-1.1555 0.88294,-3.56342 1.20849,-5.35092 0.5471,-3.00388 3.33024,-4.74112 3.33024,-2.07874 0,0.64419 0.72286,1.97001 1.60636,2.94626 1.48017,1.63558 1.45209,1.99525 -0.35742,4.57874 -1.08007,1.54206 -2.16052,3.42651 -2.401,4.18767 -0.34784,1.101 -0.80174,1.01942 -2.22023,-0.39908 z m 29.55979,-3.54735 c 0.24062,-0.72188 1.02812,-1.50937 1.75,-1.75 0.75,-0.25 1.125,0.125 0.875,0.875 -0.24063,0.72187 -1.02813,1.50937 -1.75,1.75 -0.75,0.25 -1.125,-0.125 -0.875,-0.875 z m 284.30846,-48.48764 c -1.09778,-1.62242 -1.99596,-4.29986 -1.99596,-5.94986 0,-2.26898 -0.50293,-3.07193 -2.06396,-3.29517 -1.36531,-0.19526 -3.01988,-2.18304 -4.88791,-5.87227 -1.55317,-3.06741 -4.14733,-7.08436 -5.76481,-8.92656 -2.82106,-3.21301 -3.39501,-6.37463 -1.28332,-7.06917 1.64301,-0.54038 7.6751,3.61677 8.20869,5.6572 0.27235,1.04147 1.46181,2.03137 2.64325,2.19978 1.76434,0.25149 2.09329,0.87694 1.84145,3.50124 -0.25818,2.69038 0.1715,3.44228 2.72036,4.76035 1.66483,0.86091 3.4903,2.43106 4.05661,3.48921 1.27047,2.3739 1.3489,8.31949 0.1267,9.60539 -0.49661,0.5225 -1.06093,1.82744 -1.25403,2.89986 -0.30915,1.71684 -0.58963,1.59733 -2.34707,-1 z M 288.34076,312.05066 c -0.33992,-0.55 -0.16803,-1 0.38197,-1 0.55,0 1.27811,0.45 1.61803,1 0.33992,0.55 0.16803,1 -0.38197,1 -0.55,0 -1.27811,-0.45 -1.61803,-1 z m -6.5,-11 c 0,-0.55 0.45,-1 1,-1 0.55,0 1,0.45 1,1 0,0.55 -0.45,1 -1,1 -0.55,0 -1,-0.45 -1,-1 z m 196.66667,-2.66667 c -1.25798,-1.25797 -0.66657,-4.33333 0.83333,-4.33333 0.93333,0 1.5,0.94444 1.5,2.5 0,2.42787 -0.97373,3.19294 -2.33333,1.83333 z m -2.25072,-10.69176 c -0.90863,-2.36785 -0.0467,-5.14157 1.59775,-5.14157 0.97534,0 1.4863,1.00269 1.4863,2.91667 0,3.16095 -2.13406,4.70052 -3.08405,2.2249 z m -228.4792,-5.21779 c -1.08413,-1.30629 -1.06229,-1.73178 0.12755,-2.48468 0.78964,-0.49966 1.98237,-0.91537 2.65052,-0.92379 1.43912,-0.0181 3.49325,3.44329 2.58333,4.35321 -1.15798,1.15797 -4.0374,0.65059 -5.3614,-0.94474 z m 12.73914,0.17399 c -0.29595,-0.77123 -0.28493,-1.6554 0.0245,-1.96482 0.76849,-0.76849 4.29962,1.20438 4.29962,2.40223 0,1.50763 -3.72222,1.1311 -4.32411,-0.43741 z M 392.05887,259.0544 c -1.19386,-1.28146 -2.66737,-3.83499 -3.27447,-5.67451 -0.6071,-1.83952 -1.86278,-3.75077 -2.79041,-4.24722 -0.92762,-0.49645 -2.28261,-2.55089 -3.01107,-4.56542 -1.19306,-3.29934 -1.14179,-3.80122 0.51668,-5.05789 1.01264,-0.7673 2.18476,-1.4094 2.60472,-1.4269 1.1423,-0.0476 5.45488,9.89124 6.27792,14.4682 0.39562,2.2 1.15317,4.54737 1.68345,5.21638 1.96956,2.48481 0.17893,3.63349 -2.00682,1.28736 z m -72.21811,-1.56276 c 0,-0.85746 0.45,-1.2809 1,-0.94098 0.55,0.33992 1,1.04148 1,1.55902 0,0.51754 -0.45,0.94098 -1,0.94098 -0.55,0 -1,-0.70156 -1,-1.55902 z m 98.1765,-7.72831 c -0.98355,-1.18511 -0.77695,-1.74445 1.09815,-2.97306 2.04341,-1.33889 2.63445,-1.34313 5.12777,-0.0367 3.19664,1.67489 2.5352,2.95962 -1.98968,3.86459 -2.03892,0.40779 -3.41961,0.12919 -4.23624,-0.85478 z M 271.31684,243.9753 c -0.91525,-2.88372 0.24888,-3.6695 2.00245,-1.35164 1.8617,2.46079 1.88675,3.427 0.0889,3.427 -0.78794,0 -1.72903,-0.93391 -2.09131,-2.07536 z m 114.52392,-11.92464 c 0,-2 0.5,-3 1.5,-3 1.57004,0 1.92139,1.73831 0.89301,4.41821 -1.00222,2.61174 -2.39301,1.78749 -2.39301,-1.41821 z m 96.75,-5.50385 c -2.13129,-2.88926 -2.1808,-3.49615 -0.28518,-3.49615 0.80565,0 1.94648,-0.9 2.53518,-2 0.5887,-1.1 1.78578,-2 2.66018,-2 1.25996,0 1.4551,0.6736 0.94051,3.24653 -0.35711,1.78559 -1.42586,4.00601 -2.375,4.93426 -1.62177,1.5861 -1.83107,1.54487 -3.47569,-0.68464 z m -31.75,-12.43713 c 0,-0.58246 0.45,-1.05902 1,-1.05902 0.55,0 1,0.19844 1,0.44098 0,0.24254 -0.45,0.7191 -1,1.05902 -0.55,0.33992 -1,0.14148 -1,-0.44098 z m -5.02571,-12.73165 c -3.2003,-0.52829 -5.58757,-5.31292 -4.06776,-8.15272 1.52851,-2.85605 4.67423,-3.29704 6.78665,-0.95141 0.99375,1.10346 2.84919,2.40486 4.1232,2.89201 1.77972,0.68052 2.24307,1.52272 2,3.63524 -0.26286,2.28442 -0.82384,2.77017 -3.31638,2.87166 -1.65,0.0672 -4.13657,-0.0655 -5.52571,-0.29478 z m -107.38061,-8.4344 c -2.52653,-2.8101 -4.59368,-5.70347 -4.59368,-6.4297 0,-1.4756 2.67629,-4.46327 3.9981,-4.46327 1.32753,0 1.71725,-3.31118 0.6092,-5.17591 -0.67885,-1.14243 -0.62251,-2.49529 0.17699,-4.25 1.26533,-2.77709 4.21571,-3.5288 4.21571,-1.07409 0,0.825 -0.45,1.5 -1,1.5 -1.81783,0 -1.03787,2.75683 0.9252,3.27019 1.74228,0.45561 1.92292,1.46449 1.90125,10.61864 -0.0132,5.56335 -0.38735,10.33979 -0.83151,10.6143 -0.44417,0.27451 -2.87474,-1.80006 -5.40126,-4.61016 z m 13.60632,-11.09297 c -0.66,-0.66 -1.2,-1.7299 -1.2,-2.37756 0,-0.64765 -0.67177,-1.73507 -1.49282,-2.41648 -0.82106,-0.68142 -1.96767,-3.00236 -2.54803,-5.15766 -0.99688,-3.70212 -0.87456,-4.11025 2.21287,-7.38352 4.0874,-4.33342 7.09804,-4.6573 6.6444,-0.71478 -0.24966,2.16979 -0.77244,2.68716 -2.47783,2.45215 -1.18878,-0.16382 -2.43199,0.13996 -2.7627,0.67506 -0.83203,1.34626 1.50371,6.33508 3.73881,7.98559 1.34992,0.99685 1.67071,2.07098 1.19463,4 -0.86676,3.51201 -1.85627,4.39026 -3.30933,2.9372 z m 109.05875,-5.05 c -0.54237,-0.6875 -0.99387,-1.925 -1.00333,-2.75 -0.009,-0.825 -0.34395,-2.2875 -0.7433,-3.25 -0.48366,-1.1657 -0.27302,-1.74489 0.63089,-1.73469 2.42648,0.0274 3.55583,1.41577 4.25806,5.23469 0.53315,2.8994 0.36681,3.75 -0.73331,3.75 -0.78258,0 -1.86663,-0.5625 -2.40901,-1.25 z m -8.89712,-3.25 c -0.31659,-0.825 -0.28593,-2.25489 0.0681,-3.17754 0.59008,-1.53775 0.77706,-1.54421 2.24373,-0.0775 1.6493,1.64927 1.2094,4.75508 -0.67346,4.75508 -0.58452,0 -1.32179,-0.675 -1.63837,-1.5 z m -89.36163,-9.964 c 0,-2.04077 2.78923,-3.14677 4.25055,-1.68545 1.30604,1.30604 1.03274,1.66022 -2.00055,2.59261 -1.68351,0.51748 -2.25,0.28909 -2.25,-0.90716 z"
         id="path3002"
         inkscape:connector-curvature="0" />
      <path
         style="fill:#e35c58"
         d="m 364.11159,844.44649 c 0.33229,-0.33229 1.19479,-0.36781 1.91667,-0.0789 0.79773,0.31922 0.56078,0.55618 -0.60417,0.60416 -1.05416,0.0434 -1.64479,-0.19293 -1.3125,-0.52522 z M 297.14166,779.4952 c -2.01749,-1.67138 -2.91928,-3.18785 -2.60664,-4.38341 0.32563,-1.2452 -0.64856,-2.68723 -3.05585,-4.52336 -3.75655,-2.86526 -6.36981,-6.65279 -10.72051,-15.53777 -1.83149,-3.74027 -4.16891,-6.55972 -7.30554,-8.81214 -2.72413,-1.95619 -4.61236,-4.09603 -4.61236,-5.22694 0,-1.05315 -1.04465,-2.59929 -2.32144,-3.43588 -1.27679,-0.83658 -5.20144,-5.11205 -8.72145,-9.50104 -3.52001,-4.38899 -6.97537,-8.20076 -7.67857,-8.47061 -0.70319,-0.26984 -1.27854,-1.1013 -1.27854,-1.84769 0,-2.0372 -4.10421,-5.46438 -7.5,-6.26281 -1.65,-0.38795 -3.94496,-1.5613 -5.09991,-2.60744 -1.87129,-1.695 -2.23845,-1.73514 -3.37244,-0.36876 -1.74478,2.10232 -2.80443,1.94095 -6.68365,-1.01788 -4.36839,-3.33193 -9.54695,-5.45674 -11.93643,-4.89763 -3.07042,0.71845 -13.74367,-5.61067 -14.42048,-8.55118 -0.42263,-1.83623 -1.26304,-2.52637 -3.16527,-2.59932 -1.42442,-0.0546 -3.87955,-1.00995 -5.45584,-2.12294 -1.57629,-1.11299 -4.44098,-2.28312 -6.36598,-2.6003 -12.55477,-2.06861 -17.31444,-2.82116 -23.71547,-3.74965 -8.14537,-1.18151 -12.39385,-2.98001 -15.0669,-6.37825 -1.00741,-1.28071 -2.69469,-2.49476 -3.74952,-2.69791 -3.94932,-0.76057 -5.87722,-9.40552 -2.95784,-13.26332 0.84708,-1.11936 1.19924,-2.89753 0.84968,-4.29029 -0.3614,-1.43991 -0.01,-3.05333 0.89096,-4.08831 1.89426,-2.17658 2.85225,-6.46646 2.74723,-12.3022 -0.0525,-2.917 0.45657,-5.04 1.39533,-5.8191 0.81289,-0.67463 1.77208,-2.56569 2.13155,-4.20235 0.35947,-1.63665 1.72614,-4.13304 3.03705,-5.54753 2.85284,-3.07827 2.06213,-5.42312 -2.46041,-7.29642 -4.05695,-1.68044 -10.76709,-8.03192 -12.04981,-11.40573 -1.87345,-4.92755 -1.449,-5.80151 2.46132,-5.06793 3.2257,0.60514 3.83645,0.302 7.46383,-3.70469 2.17287,-2.40007 4.22226,-5.15126 4.55422,-6.11376 0.82578,-2.39435 2.46967,-2.19821 6.5245,0.77849 3.02301,2.21922 8.94428,11.22921 8.94428,13.60988 0,0.4739 -1.125,0.86163 -2.5,0.86163 -2.52528,0 -3.34217,1.36148 -1.5,2.5 0.55,0.33992 1,1.42262 1,2.40601 0,0.98338 0.9,2.82568 2,4.09399 1.1,1.26831 2,3.50872 2,4.9787 0,1.52238 1.02492,3.63553 2.38138,4.90987 1.79456,1.68589 2.49556,3.61395 2.8447,7.82417 0.30888,3.72465 1.03676,6.00628 2.18363,6.8449 0.94618,0.69186 1.61776,1.86192 1.49241,2.60014 -0.12535,0.73822 0.11917,2.57972 0.54339,4.09222 0.62102,2.21416 1.35338,2.75 3.75861,2.75 4.10184,0 8.54201,2.833 9.71532,6.19875 0.77629,2.22687 1.59022,2.80125 3.96952,2.80125 3.59537,0 5.16961,1.91042 2.21166,2.68394 -2.38524,0.62375 -2.88245,3.31606 -0.61241,3.31606 0.94724,0 1.40162,0.81788 1.25,2.25 -0.17505,1.65339 0.29243,2.25987 1.76299,2.28721 1.10066,0.0205 2.54058,0.37058 3.19982,0.77801 0.71197,0.44002 1.62413,-0.0542 2.24661,-1.21737 0.57639,-1.077 2.06147,-2.1021 3.30018,-2.27801 1.77279,-0.25176 2.31732,-1.06484 2.55816,-3.81984 0.16828,-1.925 0.949,-3.99465 1.73493,-4.59922 1.50238,-1.1557 1.77671,-9.9985 0.3692,-11.90078 -0.40694,-0.55 -1.71784,-3.925 -2.9131,-7.5 -1.19525,-3.575 -2.76218,-7.85 -3.48207,-9.5 -0.71988,-1.65 -2.74723,-6.4875 -4.50522,-10.75 -1.75799,-4.2625 -3.60435,-7.75 -4.10303,-7.75 -0.49867,0 -0.90668,-0.57985 -0.90668,-1.28856 0,-1.81508 -3.73292,-8.92834 -5.14268,-9.79962 -0.64523,-0.39878 -2.20865,-0.25324 -3.47427,0.32342 -1.78507,0.81333 -2.88302,0.66719 -4.89583,-0.65166 -3.36736,-2.20637 -4.06757,-4.20771 -2.72065,-7.77611 0.85789,-2.27281 0.75579,-3.69646 -0.47349,-6.60253 -0.86197,-2.03772 -1.61804,-5.67851 -1.68015,-8.09065 -0.0799,-3.10303 -0.62475,-4.6385 -1.86293,-5.25 -0.9625,-0.47536 -2.51492,-1.23659 -3.44982,-1.69162 -0.93489,-0.45503 -2.53196,-1.94191 -3.54903,-3.30417 -1.53016,-2.04947 -1.68953,-3.18759 -0.92368,-6.59615 0.50906,-2.26563 0.58371,-4.49126 0.1659,-4.94584 -1.15965,-1.2617 -2.23845,-10.32651 -1.22896,-10.32651 1.34212,0 4.91923,4.21433 5.66335,6.67221 0.3617,1.19472 2.43972,3.78222 4.61782,5.75 3.75249,3.39016 4.32952,3.57779 11.00276,3.57779 6.27723,0 7.32929,-0.28672 9.68093,-2.63836 l 2.63835,-2.63835 2.09442,2.62664 c 2.15902,2.70768 3.25335,6.09771 5.85899,18.15007 2.43857,11.27959 7.4234,29.9561 8.97269,33.61772 5.00417,11.8269 11.70286,24.08422 15.51109,28.38228 9.96935,11.25168 17.82032,18.52651 23.71256,21.97243 3.42631,2.00378 7.16776,4.51721 8.31433,5.5854 1.14657,1.06819 2.72339,1.94217 3.50404,1.94217 0.78065,0 1.97957,0.675 2.66426,1.5 0.68469,0.825 2.07396,1.5 3.08726,1.5 1.01331,0 2.3296,0.91039 2.9251,2.02309 0.8078,1.50939 1.50321,1.78776 2.73875,1.09632 1.24827,-0.69857 2.64266,-0.0822 5.66304,2.50309 2.20386,1.88643 4.57245,3.21289 5.26352,2.94769 0.69108,-0.26519 2.73382,0.84427 4.53942,2.46546 1.8056,1.62119 4.40791,3.96604 5.78291,5.21078 2.35555,2.13239 4.00012,3.04 10,5.51885 6.73825,2.78391 9.75044,3.70765 12.5,3.83334 1.65,0.0754 8.33489,0.43736 14.85531,0.80431 8.37264,0.47117 12.26345,0.32843 13.24467,-0.48591 0.76415,-0.63419 2.33706,-0.90524 3.49535,-0.60234 1.15828,0.3029 3.18568,0.0588 4.50532,-0.54249 1.75199,-0.79826 3.07386,-0.78589 4.89935,0.0459 3.85968,1.75858 3.21698,5.2438 -2,10.84567 -2.475,2.65759 -4.5,5.29706 -4.5,5.86549 0,1.66607 -9.81044,11.47075 -11.47753,11.47075 -0.87195,0 -1.52247,0.88265 -1.52247,2.06574 0,2.90888 -1.8023,5.93426 -3.53518,5.93426 -0.80565,0 -1.46482,0.81399 -1.46482,1.80887 0,0.99488 -0.66069,2.68238 -1.4682,3.75 -0.8075,1.06762 -1.4825,2.7111 -1.5,3.65217 -0.0175,0.94108 -0.97619,2.59089 -2.13045,3.66624 -1.15426,1.07536 -3.12499,4.13039 -4.37939,6.78896 -2.56476,5.43574 -5.90599,9.33376 -8.00055,9.33376 -0.89672,0 -1.51235,1.34924 -1.71104,3.75 -0.24931,3.01222 -0.75304,3.81287 -2.56037,4.06955 -1.2375,0.17575 -2.25,0.9115 -2.25,1.63499 0,0.72349 -1.05597,2.00734 -2.34659,2.85299 -1.29063,0.84565 -2.89604,2.86403 -3.56759,4.48529 -1.22533,2.9582 -4.65466,5.20718 -7.94009,5.20718 -0.9681,0 -3.14827,-1.14996 -4.84483,-2.55546 z m -97.3009,-114.00356 c 0,-0.85746 0.45,-1.2809 1,-0.94098 0.55,0.33992 1,1.04148 1,1.55902 0,0.51754 -0.45,0.94098 -1,0.94098 -0.55,0 -1,-0.70156 -1,-1.55902 z m 142.3077,-21.08152 c -0.28945,-0.75427 -1.94705,-1.35946 -3.72356,-1.35946 -1.76103,0 -4.06942,-0.63436 -5.12974,-1.40968 -1.81369,-1.32621 -1.82801,-1.52001 -0.24171,-3.27284 2.54919,-2.81683 0.70815,-4.81748 -4.43312,-4.81748 -3.80589,0 -4.31789,-0.27671 -4.62578,-2.5 -0.19041,-1.375 -0.97791,-2.85986 -1.75,-3.29969 -0.77208,-0.43983 -1.40379,-1.36204 -1.40379,-2.04936 0,-0.68731 -4.21582,-5.39851 -9.36849,-10.46932 -7.44387,-7.32561 -9.80638,-10.36392 -11.5,-14.78963 -2.31858,-6.05881 -2.65008,-8.392 -1.19233,-8.392 0.51655,0 3.01892,-1.8 5.56082,-4 2.5419,-2.2 5.22459,-4 5.96152,-4 1.58822,0 10.8803,-4.20887 12.78862,-5.79264 0.73264,-0.60803 5.57272,-2.52626 10.75575,-4.26273 l 9.42369,-3.15723 12.53521,2.09795 c 6.89436,1.15387 15.01021,2.01897 18.03521,1.92244 7.20999,-0.23008 15.94033,1.08136 18.71482,2.81126 1.21815,0.75952 3.49065,1.38095 5.05,1.38095 1.55935,0 3.26268,0.4141 3.78518,0.92022 0.5225,0.50611 3.425,2.2307 6.45,3.8324 7.98499,4.22796 18.3579,10.2534 19.39865,11.26833 1.30212,1.26981 -2.00571,5.85835 -5.20154,7.21543 -3.80155,1.6143 -7.19711,4.81443 -7.19711,6.7829 0,5.39317 -12.96574,19.33022 -22.58237,24.27408 -1.6953,0.87154 -4.99148,3.17965 -7.32485,5.12912 -6.30807,5.27024 -12.31077,6.75844 -28.4281,7.04793 -10.91366,0.19603 -13.94547,-0.0386 -14.35698,-1.11095 z m 44.2423,-26.23866 c 0.5225,-0.48356 2.6608,-1.42615 4.75179,-2.09464 2.09098,-0.6685 3.63127,-1.73536 3.42288,-2.3708 -0.55437,-1.69038 -5.58695,-2.01455 -7.43711,-0.47905 -0.87532,0.72645 -2.95181,1.77147 -4.61442,2.32226 -4.36194,1.44502 -4.63003,3.50143 -0.45647,3.50143 1.86083,0 3.81083,-0.39564 4.33333,-0.8792 z m 20.5538,-11.417 c -1.28349,-1.28349 -2.58505,-0.2915 -1.63484,1.24598 0.36808,0.59556 1.12735,0.79971 1.68727,0.45366 0.683,-0.42212 0.66575,-0.98146 -0.0524,-1.69964 z m -45.74876,-6.49381 c -0.81122,-3.31593 -1.54096,-3.8242 -6.66749,-4.64396 -2.9578,-0.47297 -4.44527,-0.23688 -5.56549,0.88334 -3.56914,3.56914 5.94564,9.82188 11.13695,7.31877 1.32122,-0.63706 1.594,-1.52264 1.09603,-3.55815 z m 20.6319,2.81114 c 0.92683,-1.49964 0.21669,-4.13922 -1.414,-5.25582 -1.59332,-1.09101 -8.4194,-0.91785 -10.63868,0.26987 -1.91304,1.02383 -2.63458,4.9195 -1.18426,6.39398 1.22817,1.24863 12.32453,0.0683 13.23694,-1.40803 z m 107.68191,-5.68561 c -2.03103,-2.03104 2.00101,-17.89442 7.32707,-28.82715 2.01316,-4.13238 3.00408,-7.68772 3.00408,-10.77838 0,-4.71799 1.17896,-6.39701 4.1493,-5.90923 2.09178,0.3435 5.8507,-4.85183 5.8507,-8.08646 0,-2.0493 -0.39535,-2.38138 -2.38278,-2.00146 -1.31053,0.25053 -2.68632,-0.0356 -3.05732,-0.63591 -1.05298,-1.70377 4.43411,-13.31495 7.60692,-16.09693 1.56816,-1.375 2.84715,-3.05077 2.84219,-3.72394 -0.005,-0.67317 1.79998,-4.81152 4.01096,-9.19634 2.37355,-4.70722 3.93156,-9.13278 3.80409,-10.80564 -0.24069,-3.15881 3.14024,-10.97029 7.0129,-16.20295 1.90038,-2.56776 2.11394,-3.26627 0.85036,-2.78139 -1.11107,0.42636 -1.68732,0.14593 -1.68732,-0.82112 0,-0.88901 0.96006,-1.46862 2.43261,-1.46862 1.51601,0 2.661,-0.71957 3.03873,-1.90969 0.33336,-1.05034 1.19952,-2.40218 1.9248,-3.00411 1.0753,-0.89243 1.27558,0.3367 1.08514,6.65969 -0.30552,10.14414 -1.32266,15.29723 -3.5044,17.75411 -1.18371,1.33299 -1.73099,3.44782 -1.64099,6.34124 0.10187,3.27525 -0.3525,4.70085 -1.85043,5.80571 -1.092,0.80546 -1.85057,2.12599 -1.68571,2.93452 0.16487,0.80853 -0.56174,2.69596 -1.61468,4.19429 -2.42971,3.45748 -3.81432,17.99136 -1.53368,16.0986 1.0641,-0.88313 1.79048,-0.78444 3.12664,0.42476 1.98583,1.79715 9.64763,1.30911 12.22197,-0.77851 2.50734,-2.03329 4,-2.6856 4,-1.74804 0,0.48983 -2.22865,2.33472 -4.95256,4.09975 -4.51201,2.92368 -5.41161,3.14826 -10.11304,2.52459 -5.09968,-0.6765 -5.15181,-0.65636 -4.42505,1.70926 0.40449,1.31661 1.1806,2.95049 1.72471,3.63084 1.54955,1.9376 0.14819,5.54182 -4.02277,10.34632 -6.94494,7.99983 -12.21129,16.16385 -12.21129,18.93024 0,7.35054 -4.27727,13.83588 -11.9516,18.12145 -3.05162,1.70411 -6.25992,3.72185 -7.12955,4.48386 -0.86963,0.76202 -1.88213,1.0845 -2.25,0.71664 z m -165.66885,-31.7765 c 0,-0.24254 0.45,-0.7191 1,-1.05902 0.55,-0.33992 1,-0.14148 1,0.44098 0,0.58246 -0.45,1.05902 -1,1.05902 -0.55,0 -1,-0.19844 -1,-0.44098 z m 13.5,-5.55867 c -1.90842,-0.82041 -1.89697,-0.863 0.25,-0.93006 1.2375,-0.0387 2.25,-0.56372 2.25,-1.1668 0,-0.69515 -1.82644,-0.96968 -4.98972,-0.75 -3.34257,0.23212 -5.1478,-0.0661 -5.46861,-0.90349 -0.2634,-0.6875 -1.21681,-1.25 -2.11869,-1.25 -1.24977,0 -1.49055,0.59462 -1.01234,2.5 0.46304,1.84486 0.22939,2.5 -0.89159,2.5 -1.09455,0 -1.51905,-1.07122 -1.51905,-3.83333 0,-2.10834 0.31176,-4.1451 0.6928,-4.52614 0.38104,-0.38104 0.83328,-3.09908 1.00498,-6.04009 0.2241,-3.83879 -0.1124,-5.69965 -1.19281,-6.59631 -1.54875,-1.28535 -2.00892,-4.16684 -0.85045,-5.32532 0.35999,-0.35999 2.07244,0.98577 3.80546,2.99057 2.70772,3.13238 3.54842,3.54533 5.97687,2.93582 1.55427,-0.39009 4.18031,-2.23904 5.83564,-4.10876 3.38203,-3.82007 4.89034,-4.27866 16.25403,-4.9419 7.17345,-0.41867 8.48624,-0.20733 12.35207,1.9885 2.37906,1.35133 4.89222,2.45696 5.58481,2.45696 2.11653,0 0.54166,4.76667 -2.15967,6.53664 -1.90814,1.25027 -2.33973,2.1838 -1.8717,4.04857 0.75767,3.0188 -2.18874,8.05808 -3.78068,6.46614 -0.57824,-0.57824 -3.39955,-1.05135 -6.26956,-1.05135 -6.14336,0 -8.38179,-0.69622 -8.38179,-2.60699 0,-0.85178 1.06847,-1.39494 2.75,-1.39798 3.6772,-0.007 9.19684,-4.3894 7.59206,-6.02833 -0.89113,-0.91009 -1.9856,-0.90942 -4.75,0.003 -1.97563,0.65201 -3.59206,1.62697 -3.59206,2.16657 0,1.725 -6.1162,8.66093 -8.09323,9.17794 -1.42946,0.37381 -1.90677,1.3982 -1.90677,4.09225 0,1.97649 -0.1882,3.59362 -0.41821,3.59362 -0.23002,0 -1.01752,0.19353 -1.75,0.43006 -0.73249,0.23654 -2.23179,0.0432 -3.33179,-0.42971 z m 13.49164,-16.97402 c 1.15965,-0.73316 1.22473,-1.20996 0.29238,-2.14231 -0.93234,-0.93234 -1.54009,-0.91639 -2.73063,0.0717 -2.58855,2.1483 -0.49575,3.92558 2.43825,2.07064 z m -70.63001,15.47367 c -1.56824,-4.08677 2.88772,-6.09193 5.96973,-2.68635 1.2661,1.39903 1.37011,2.08488 0.45499,3 -1.67367,1.67367 -5.73826,1.47523 -6.42472,-0.31365 z m 103.32002,-14.7754 c -2.02491,-1.80147 -3.68165,-3.85178 -3.68165,-4.55623 0,-0.70446 2.01966,-2.17422 4.48812,-3.26614 4.79038,-2.11901 6.48648,-1.79776 9.79185,1.85464 1.57983,1.74569 1.61062,2.2254 0.30446,4.74303 -2.84702,5.48764 -5.74518,5.81318 -10.90278,1.2247 z M 182.53036,525.89683 c -0.92928,-0.52005 -1.6896,-1.83731 -1.6896,-2.92724 0,-2.0333 -0.40914,-2.29024 -5.40229,-3.39268 -4.62717,-1.02164 -8.08283,-5.5453 -9.30851,-12.18538 -0.87287,-4.72874 -0.81264,-6.14147 0.31632,-7.41961 0.76697,-0.86831 1.39448,-2.02999 1.39448,-2.58152 0,-1.10585 8.71278,-3.3873 10.42524,-2.72986 0.5931,0.2277 1.1356,3.32502 1.21051,6.91129 0.11035,5.28225 0.81228,7.86785 3.75,13.81335 1.98784,4.02307 3.61425,8.02046 3.61425,8.88308 0,2.02264 -2.15281,2.83602 -4.3104,1.62857 z m 365.3104,-7.31099 c 0,-1.63028 3.37961,-3.82223 4.36852,-2.83333 0.34731,0.34732 0.63148,1.45648 0.63148,2.46482 0,1.28889 -0.74242,1.83333 -2.5,1.83333 -1.52887,0 -2.5,-0.56901 -2.5,-1.46482 z M 153.97881,504.38388 c -0.62593,-3.11673 -1.13805,-6.7938 -1.13805,-8.17126 0,-1.37746 -0.61128,-3.21491 -1.3584,-4.08322 -1.70518,-1.98177 -3.79929,-8.07874 -2.77479,-8.07874 0.41952,0 1.49677,1.53924 2.3939,3.42052 1.22807,2.57531 2.10922,3.2955 3.56591,2.91457 1.82466,-0.47716 1.92734,0.068 1.80408,9.57908 -0.0719,5.54677 -0.40608,10.08521 -0.74265,10.08543 -0.33657,2.2e-4 -1.12407,-2.54965 -1.75,-5.66638 z m 18.10875,-14.48642 c -0.78442,-0.78442 -0.84228,-1.73413 -0.18093,-2.96987 0.81774,-1.52796 1.36654,-1.63703 3.45319,-0.68629 2.81623,1.28316 3.24799,3.30104 0.89915,4.20237 -2.22008,0.85193 -2.85662,0.76858 -4.17141,-0.54621 z m 392.7532,-12.80528 c 0,-0.61883 0.87724,-2.06676 1.94943,-3.21761 l 1.94943,-2.09247 -0.75395,2.81912 c -0.74308,2.77848 -3.14491,4.68087 -3.14491,2.49096 z m -121.75,-2.74725 c -1.51013,-0.29087 -2.25208,-1.15037 -2.25632,-2.61382 -0.004,-1.38877 -1.13288,-2.82169 -3.10909,-3.94655 -2.39738,-1.36459 -2.85259,-2.06753 -2.00235,-3.09201 1.29632,-1.56196 0.48492,-2.72001 -1.39922,-1.997 -0.72679,0.2789 -2.47467,-0.24854 -3.88416,-1.17207 -2.39637,-1.57016 -4.27433,-1.9295 -15.45679,-2.95755 -5.74635,-0.52829 -8.14207,-2.78519 -8.14207,-7.67026 0,-2.11475 0.42223,-3.84501 0.93828,-3.84501 0.51606,0 2.42856,-1.37933 4.25,-3.06517 5.39001,-4.98875 8.82462,-5.93483 21.54557,-5.93483 11.11745,0 11.83417,0.13515 22.12787,4.17269 5.85106,2.29498 11.34281,4.76463 12.2039,5.48812 0.86109,0.72349 3.11109,1.60755 5,1.96458 1.88891,0.35702 4.21344,1.32447 5.16562,2.14989 1.35333,1.17315 2.04334,1.24173 3.16097,0.31417 1.04227,-0.865 1.61678,-0.88392 2.11991,-0.0698 0.3796,0.6142 1.36027,0.85959 2.17927,0.54531 2.65311,-1.01809 3.49189,0.50641 1.74528,3.17207 -1.53555,2.34354 -1.53998,2.62568 -0.0543,3.45709 0.88972,0.49791 1.61767,1.61718 1.61767,2.48727 0,1.24657 -0.79506,1.4804 -3.75,1.10287 -2.0625,-0.26352 -5.98094,-0.21027 -8.70764,0.11833 -4.23818,0.51074 -5.04296,0.96025 -5.54554,3.09744 -0.57695,2.45344 -0.76771,2.5 -10.24229,2.5 -10.19413,0 -13.19545,1.05887 -10.88662,3.84084 0.93354,1.12485 0.84406,1.55571 -0.42417,2.04238 -1.67469,0.64264 -2.45349,0.63145 -6.19374,-0.089 z m 4.75,-8.29427 c 0,-0.55 -0.70156,-1 -1.55902,-1 -0.85746,0 -1.2809,0.45 -0.94098,1 0.33992,0.55 1.04148,1 1.55902,1 0.51754,0 0.94098,-0.45 0.94098,-1 z m 11.75,-5.25245 c 3.04035,-1.46681 2.83881,-3.56166 -0.42138,-4.37992 -2.13913,-0.53689 -3.13817,-0.12779 -5.01429,2.05332 -1.2886,1.49809 -2.11103,3.09898 -1.82762,3.55754 0.58443,0.94563 3.92542,0.37942 7.26329,-1.23094 z m -174.50037,10.10826 c -0.79676,-0.8007 -4.92457,-1.35941 -11.37813,-1.54007 -5.57026,-0.15593 -10.63259,-0.69787 -11.24962,-1.20431 -0.61703,-0.50643 -3.82188,-1.11546 -7.12188,-1.35339 -6.38815,-0.46058 -12.48439,-2.45208 -13.79969,-4.50804 -0.43983,-0.6875 -1.78983,-1.25689 -3,-1.26531 -4.99076,-0.0347 -5.86303,-3.75218 -1.93113,-8.23017 1.3964,-1.59035 1.29078,-1.96961 -1.1883,-4.26715 -1.49651,-1.38691 -2.57691,-3.23887 -2.4009,-4.11545 0.17601,-0.87659 3.79574,-3.45637 8.04384,-5.73286 5.30083,-2.84063 8.25378,-5.1212 9.41321,-7.26986 0.92917,-1.72195 2.94958,-3.87522 4.4898,-4.78505 1.54022,-0.90983 3.37927,-2.20097 4.08678,-2.86919 1.66961,-1.5769 9.49893,-4.52835 18.17056,-6.84982 3.78629,-1.01362 7.38629,-2.23756 8,-2.71985 0.61371,-0.48229 2.24083,-1.10442 3.61583,-1.3825 1.375,-0.27808 3.2875,-0.83661 4.25,-1.24118 1.25389,-0.52706 1.75,-0.27113 1.75,0.90279 0,2.32619 2.86755,3.13372 4.29804,1.21037 1.32941,-1.78743 6.95378,-2.47037 10.45689,-1.26972 1.72561,0.59144 2.38827,0.34588 2.82299,-1.0461 0.31244,-1.00042 0.98523,-2.60034 1.49508,-3.55538 1.29843,-2.43219 1.18356,-2.76357 -0.95799,-2.76357 -1.03674,0 -2.62212,-1.125 -3.52305,-2.5 -0.90094,-1.375 -2.43769,-2.5 -3.41501,-2.5 -0.97732,0 -2.31695,-0.54 -2.97695,-1.2 -0.93333,-0.93333 -1.46667,-0.93333 -2.4,0 -1.77517,1.77517 -3.46882,1.4702 -5.83111,-1.05 -1.98058,-2.11297 -2.1876,-2.14342 -3.3992,-0.5 -1.67409,2.27075 -2.72002,2.20619 -5.99518,-0.37005 -1.48237,-1.16603 -3.98705,-2.18502 -5.56596,-2.26443 -1.57891,-0.0794 -3.20175,-0.47539 -3.60631,-0.87995 -0.40457,-0.40456 -1.69557,-0.73557 -2.86891,-0.73557 -1.17333,0 -2.72958,-0.5625 -3.45833,-1.25 -1.06,-1 -1.41667,-1 -1.78333,0 -0.25842,0.70477 -2.14098,1.25 -4.31599,1.25 -2.1217,0 -4.1583,0.48646 -4.52576,1.08103 -0.36746,0.59456 -1.68295,0.82632 -2.92331,0.515 -1.44725,-0.36323 -3.06322,0.13478 -4.51061,1.3901 -1.7986,1.55991 -2.66596,1.73639 -4.28235,0.87133 -1.60293,-0.85787 -2.21583,-0.74723 -2.92998,0.52888 -0.49668,0.88751 -1.6804,1.61366 -2.6305,1.61366 -0.9501,0 -3.2462,1.38717 -5.10246,3.0826 -3.74932,3.42447 -6.97836,4.9174 -10.63581,4.9174 -2.86184,0 -3.14908,-1.35588 -0.67649,-3.1933 0.96713,-0.71868 4.39708,-4.3442 7.62212,-8.0567 3.22504,-3.7125 6.48376,-6.75 7.24159,-6.75 0.75783,0 1.37788,-0.69083 1.37788,-1.53518 0,-2.2346 3.00472,-6.46482 4.59196,-6.46482 0.74906,0 2.08127,-1.09784 2.96046,-2.43965 0.87918,-1.34181 2.14469,-2.23008 2.81222,-1.97392 0.66754,0.25616 3.34208,-0.94404 5.94343,-2.6671 4.08158,-2.70352 4.9537,-2.94692 6.36406,-1.77609 0.89888,0.74622 2.57787,1.43109 3.7311,1.52194 5.61402,0.44227 15.06072,3.24882 16.20564,4.8146 0.72252,0.9881 4.46327,2.52831 8.58575,3.53507 7.79589,1.90385 13.36964,3.70973 15.80538,5.12089 3.50349,2.02977 6.76162,3.12232 10.76176,3.60876 3.23244,0.39309 4.98349,1.34026 7.25,3.92167 3.49678,3.98262 3.74713,5.33383 0.98824,5.33383 -2.10908,0 -2.69104,1.45488 -1,2.5 0.55,0.33992 1,2.66894 1,5.17559 0,4.32218 0.12912,4.53288 2.5,4.07966 3.05978,-0.58491 3.17311,-0.18585 0.37283,1.31281 -1.16995,0.62614 -2.40745,0.75447 -2.75,0.28519 -0.34256,-0.46929 -2.12933,-1.91175 -3.9706,-3.20548 -2.39449,-1.68242 -3.65491,-2.04509 -4.42638,-1.27362 -1.39612,1.39612 1.4789,4.70944 4.81245,5.54611 1.47809,0.37097 2.19151,1.12027 1.86838,1.96234 -0.64378,1.67765 7.22686,8.6174 9.77332,8.6174 1.11665,0 1.82,0.72884 1.82,1.88595 0,1.03728 1.63763,3.47658 3.63917,5.42068 3.00778,2.92145 3.72385,4.41597 4.12723,8.61404 0.32689,3.40205 0.94137,5.07933 1.86083,5.07933 1.71217,0 1.70916,0.63539 -0.034,7.20121 -1.99531,7.51535 -2.61658,8.79879 -4.2592,8.79879 -0.79861,0 -1.17391,0.45 -0.83399,1 0.80344,1.29999 -1.10616,1.28115 -3.56574,-0.0352 -1.33788,-0.71597 -1.9343,-2.09766 -1.9343,-4.48093 0,-2.85607 -0.43474,-3.55488 -2.54029,-4.08334 -1.65195,-0.41461 -3.14321,-0.0919 -4.26435,0.92267 -2.03051,1.83759 -6.41016,2.00631 -19.44536,0.74913 -0.4125,-0.0398 -0.75,-1.35259 -0.75,-2.91734 0,-2.86321 -2.60978,-6.15499 -4.87977,-6.15499 -2.03359,0 -4.52745,7.11829 -3.2247,9.20433 1.62868,2.60792 1.35237,3.79567 -0.88299,3.79567 -1.23118,0 -2.94831,1.52209 -4.51254,4 -1.78504,2.82769 -3.21836,4 -4.89057,4 -1.30102,0 -2.98287,0.92528 -3.73746,2.05619 -1.10056,1.64942 -1.61933,1.80761 -2.62234,0.79962 z m 29.75037,-34.21945 c 0,-2.02254 -4.61586,-6.27088 -10.39718,-9.56936 -4.47434,-2.55279 -6.21129,-2.93679 -14.10282,-3.11778 -10.85372,-0.24894 -16.84709,0.89901 -17.31256,3.31599 -0.22603,1.1737 0.30486,1.73479 1.64141,1.73479 1.29593,0 2.33525,1.03199 3.02131,3 1.18135,3.38883 1.40382,3.48284 4.16341,1.75945 1.5476,-0.96649 2.40895,-0.97667 3.89902,-0.0461 1.52508,0.95243 2.76158,0.86095 6.10277,-0.45151 3.77566,-1.48312 4.27623,-1.49217 5.06009,-0.0915 1.02148,1.82528 8.97507,4.13324 16.17455,4.69349 0.9625,0.0749 1.75,-0.47746 1.75,-1.22746 z m -39,-1.63636 c 0,-1.11111 -0.66667,-2 -1.5,-2 -1.52241,0 -2.05126,2.1154 -0.83333,3.33333 1.26779,1.26779 2.33333,0.65891 2.33333,-1.33333 z m 42,-24 c 0,-0.55 -0.45,-1 -1,-1 -0.55,0 -1,0.45 -1,1 0,0.55 0.45,1 1,1 0.55,0 1,-0.45 1,-1 z m -14.75,44.75 c 0.22917,-0.6875 1.01667,-1.25 1.75,-1.25 0.73333,0 1.52083,0.5625 1.75,1.25 0.24786,0.74359 -0.46111,1.25 -1.75,1.25 -1.28889,0 -1.99786,-0.50641 -1.75,-1.25 z m 168.19113,-19.30517 c -1.86402,-1.49339 -1.85176,-1.51185 0.30887,-0.46481 1.2375,0.59969 2.25,1.29951 2.25,1.55516 0,0.76522 -0.51861,0.54424 -2.55887,-1.09035 z m -56.7647,-6.19483 c -0.46502,-0.78977 0.95973,-5.25 1.67704,-5.25 0.22985,0 1.62646,0.627 3.10356,1.39333 l 2.68565,1.39333 -2.29385,1.60667 c -2.46855,1.72904 -4.46413,2.05956 -5.1724,0.85667 z m 9.40008,-0.57349 c -1.49854,-1.49854 -1.34446,-3.83212 0.49673,-7.52287 1.55384,-3.11475 3.00562,-3.64355 8.92676,-3.25154 2.67481,0.17709 9.72796,2.25607 11.09221,3.26952 0.60072,0.44625 3.75072,2.17756 7,3.84736 l 5.90779,3.03599 -9,-0.60638 c -4.95,-0.3335 -9.5951,-0.79425 -10.32244,-1.02389 -0.72735,-0.22964 -2.13155,0.0155 -3.12046,0.54474 -3.44827,1.84546 -9.84738,2.84028 -10.98059,1.70707 z m -1.89016,-20.89016 c -0.65249,-0.65249 -1.18635,-1.73873 -1.18635,-2.41387 0,-0.67514 -1.38431,-2.31091 -3.07624,-3.63504 l -3.07623,-2.40752 2.82623,-1.87958 c 2.58984,-1.72237 10.73548,-3.25198 20.82624,-3.9108 2.2,-0.14364 4.225,-0.35636 4.5,-0.47271 2.3951,-1.01337 12.99169,-0.68014 15.3581,0.48296 2.59458,1.27525 3.00949,1.22325 4.5,-0.56404 2.27703,-2.7304 6.07875,-2.97661 7.5004,-0.48575 0.62783,1.1 1.5915,2.3375 2.1415,2.75 1.30056,0.97542 -1.30327,2.71428 -4.09501,2.73469 -1.15226,0.008 -2.88525,0.88851 -3.85109,1.95575 -3.31263,3.66042 -15.52374,6.53542 -17.07784,4.02083 -0.94895,-1.53544 -12.33035,-0.40311 -14.35376,1.42805 -1.0172,0.92055 -2.59502,1.29982 -3.94206,0.94756 -1.37362,-0.35921 -2.93768,0.0386 -4.02678,1.02424 -1.37365,1.24314 -2.05199,1.34035 -2.96711,0.42523 z M 401.14394,281.05094 c -1.20826,-0.49307 -4.13326,-0.7735 -6.5,-0.62318 -5.58051,0.35444 -8.80318,-1.07789 -8.80318,-3.91262 0,-1.21796 -0.28125,-3.62073 -0.625,-5.33948 -0.71843,-3.59213 0.38642,-3.98265 4.19933,-1.48434 2.94292,1.92828 18.69984,7.35934 21.35134,7.35934 2.45794,0 4.86316,2.79551 2.93695,3.41352 -3.32652,1.06728 -10.55447,1.40496 -12.55944,0.58676 z m -25.80318,-1.00028 c -0.33992,-0.55 -0.14148,-1 0.44098,-1 0.58246,0 1.05902,0.45 1.05902,1 0,0.55 -0.19844,1 -0.44098,1 -0.24254,0 -0.7191,-0.45 -1.05902,-1 z m 41.04271,0.0691 c -0.31644,-0.512 -0.11799,-1.21356 0.44098,-1.55902 1.19337,-0.73755 3.01631,0.19857 3.01631,1.54894 0,1.2168 -2.70662,1.22469 -3.45729,0.0101 z m -68.54271,-1.0691 c -0.825,-0.53316 -2.6824,-0.97627 -4.12756,-0.98469 -1.44515,-0.008 -3.22816,-0.73901 -3.96225,-1.62352 -2.20591,-2.65797 1.38505,-4.48797 7.78576,-3.96774 4.33269,0.35216 5.30405,0.14407 5.30405,-1.13623 0,-0.86203 -0.78679,-2.14265 -1.74843,-2.84582 -0.96163,-0.70316 -1.50253,-1.52438 -1.20198,-1.82492 0.30054,-0.30054 3.11233,1.74548 6.24842,4.54672 7.51254,6.7104 7.63798,11.04231 0.22192,7.66333 -1.96907,-0.89717 -2.84989,-0.89717 -3.74706,0 -1.41608,1.41608 -2.77308,1.46524 -4.77287,0.17287 z m 97.5,-3 c -0.9233,-1.49394 0.36137,-3 2.55902,-3 2.21233,0 2.49036,1.05062 0.74098,2.8 -1.46225,1.46225 -2.4817,1.52403 -3.3,0.2 z m -117.25,-0.70833 c -1.73004,-0.63435 -1.57586,-3.29167 0.19098,-3.29167 1.81892,0 3.06412,1.91918 1.92189,2.96213 -0.47458,0.43333 -1.42537,0.58162 -2.11287,0.32954 z m 43.81345,-1.72413 c -1.25277,-1.33352 -2.09095,-2.98505 -1.86261,-3.67006 0.24423,-0.7327 1.36257,0.085 2.71625,1.98609 2.80956,3.94565 2.27036,5.00932 -0.85364,1.68397 z m -56.31345,-2.13951 c -1.5125,-0.82055 -2.75,-1.87507 -2.75,-2.34339 0,-0.46832 1.2375,-1.0929 2.75,-1.38795 1.94081,-0.37861 3.41207,0.0798 5,1.55773 1.2375,1.15182 2.25,2.46577 2.25,2.91989 0,1.31797 -4.25171,0.88032 -7.25,-0.74628 z m -14.75,-0.37819 c -1.81104,-1.00519 -9.72031,-4.56645 -12.5,-5.62831 -3.36196,-1.28429 -7.89367,-1.51248 -10,-0.50355 -1.1,0.5269 -3.71439,1.12368 -5.80976,1.32619 -3.58891,0.34684 -3.77482,0.22895 -3.20694,-2.03365 0.33155,-1.321 0.11159,-2.99372 -0.4888,-3.71715 -2.03591,-2.45312 0.65238,-2.41576 7.91525,0.11002 5.79184,2.0142 7.53287,2.27415 8.70668,1.29998 1.18101,-0.98015 2.03631,-0.79689 4.38489,0.93948 1.60473,1.18643 3.63326,2.15715 4.50785,2.15715 0.87458,0 2.95013,0.70327 4.61232,1.56283 2.1247,1.09872 3.39229,1.25566 4.2685,0.52847 1.51907,-1.26072 5.61001,1.26633 5.61001,3.4654 0,1.60071 -5.40428,1.93384 -8,0.49314 z"
         id="path3000"
         inkscape:connector-curvature="0" />
      <path
         style="fill:#625858"
         d="m 364.11159,844.44649 c 0.33229,-0.33229 1.19479,-0.36781 1.91667,-0.0789 0.79773,0.31922 0.56078,0.55618 -0.60417,0.60416 -1.05416,0.0434 -1.64479,-0.19293 -1.3125,-0.52522 z m -65.27083,-65.39583 c 0,-0.55 -0.94223,-1 -2.09384,-1 -1.92721,0 -2.04108,-0.38358 -1.43089,-4.8202 0.52103,-3.78833 0.31797,-5.1065 -0.94854,-6.15762 -1.22061,-1.01301 -1.89229,-1.05662 -2.76911,-0.1798 -1.71455,1.71455 -2.75762,1.40923 -2.75762,-0.8072 0,-1.08065 -0.89238,-2.4424 -1.98306,-3.02611 -1.85609,-0.99335 -7.01694,-10.39503 -7.01694,-12.78298 0,-0.59451 -1.19419,-2.02028 -2.65375,-3.16837 -2.35226,-1.85028 -2.52267,-2.37511 -1.5,-4.61963 1.53919,-3.37815 1.46602,-3.75301 -0.62578,-3.206 -2.05936,0.53854 -4.22047,-1.40566 -4.22047,-3.79687 0,-1.13062 -0.52583,-1.44742 -1.67228,-1.00748 -1.12924,0.43333 -2.91722,-0.57395 -5.50612,-3.10194 -3.35673,-3.27777 -3.757,-4.15321 -3.21643,-7.03472 0.39725,-2.1175 0.22113,-3.29108 -0.49388,-3.29108 -0.61121,0 -1.11129,0.64844 -1.11129,1.44098 0,0.79254 -0.41468,1.69727 -0.92151,2.01051 -1.08068,0.6679 -4.07849,-4.92211 -4.07849,-7.60513 0,-1.17969 -0.72214,-1.84636 -2,-1.84636 -2.9243,0 -6,-3.55806 -6,-6.94098 0,-1.61754 -0.45,-3.2191 -1,-3.55902 -0.55,-0.33992 -1,-1.49148 -1,-2.55902 0,-1.06754 0.45,-1.94098 1,-1.94098 0.55,0 1,-0.91583 1,-2.03518 0,-1.70153 0.31678,-1.86565 1.93228,-1.00107 2.50507,1.34068 3.55886,4.73954 2.03771,6.5724 -0.95808,1.15442 -0.82565,1.57674 0.66739,2.1284 3.12067,1.15305 8.36262,5.49007 8.36262,6.91896 0,2.15436 3.8469,3.78844 5.56392,2.36344 1.17347,-0.97389 1.43608,-0.79292 1.43608,0.98962 0,1.20987 0.44853,1.90425 1.00706,1.55906 0.55389,-0.34231 1.26959,0.0617 1.59046,0.8979 0.40372,1.05209 1.41968,1.35303 3.29895,0.97718 1.79138,-0.35828 3.16357,-0.003 4.03199,1.04309 1.90618,2.29681 3.07154,1.95011 3.07154,-0.9138 0,-2.52528 1.36148,-3.34217 2.5,-1.5 0.92241,1.49249 2.5,1.20695 2.5,-0.45249 0,-1.48526 3.53174,-1.49804 7.25,-0.0262 1.89108,0.74855 2.37685,3.97328 0.75,4.97873 -1.64172,1.01464 -1.13138,2.76439 0.61125,2.09568 1.30932,-0.50243 1.49097,-0.13909 0.9694,1.939 -0.92526,3.68652 0.13386,4.69848 2.9715,2.83919 1.50792,-0.98802 2.44785,-1.17575 2.44785,-0.48888 0,0.61326 0.81,1.11501 1.8,1.11501 0.99,0 2.30975,0.50975 2.93278,1.13278 1.57912,1.57912 4.26722,0.32275 4.26722,-1.99441 0,-1.05841 0.675,-2.18341 1.5,-2.5 2.11751,-0.81256 1.86173,-2.31051 -0.5,-2.92812 -2.39261,-0.62572 -2.683,-2.71029 -0.37756,-2.71029 1.23638,0 1.35987,-0.31639 0.51899,-1.32959 -1.39222,-1.67752 -7.09754,-0.94835 -7.84627,1.00279 -0.3003,0.78259 0.23887,1.99681 1.19817,2.69826 1.51879,1.11057 1.56853,1.55663 0.38487,3.45196 -0.74761,1.19712 -1.71219,2.17658 -2.1435,2.17658 -1.52137,0 -2.72905,-5.18312 -2.10989,-9.05518 0.5627,-3.51889 0.86962,-3.85883 3.001,-3.32389 1.3601,0.34136 2.37419,0.15123 2.37419,-0.44513 0,-1.03225 3.809,-2.75459 5.25,-2.37393 0.4125,0.10897 1.65,-0.70187 2.75,-1.80187 3.6959,-3.6959 4.80054,-2.3112 2.53446,3.17704 -0.54182,1.31225 -0.26203,1.56448 1.28632,1.15958 2.49692,-0.65296 3.36197,-5.6307 1.45233,-8.35709 -1.93763,-2.76635 -3.41771,-2.45337 -6.02311,1.27367 -1.2375,1.77025 -2.25,2.69368 -2.25,2.05206 0,-0.64162 1.0125,-2.75374 2.25,-4.69359 2.62504,-4.11491 6.39081,-4.77104 9.25,-1.61167 0.99549,1.1 2.41523,2 3.15499,2 0.73975,0 1.34501,-0.9 1.34501,-2 0,-2.37095 0.27481,-2.41686 3.79966,-0.63475 2.01793,1.02023 4.84839,1.18815 11.20034,0.66445 9.56463,-0.78858 15.26605,0.39725 15.82329,3.29106 0.21479,1.11541 -1.23265,3.37275 -3.73634,5.82698 -2.24782,2.20342 -4.08695,4.39168 -4.08695,4.86281 0,0.47114 -1.2375,0.999 -2.75,1.17303 -2.64707,0.30458 -2.73665,0.50357 -2.39333,5.31642 0.34872,4.88869 0.31357,4.96104 -1.57875,3.25 -1.06447,-0.9625 -2.34997,-1.74205 -2.85666,-1.73233 -1.80837,0.0347 -5.55137,9.61574 -4.84932,12.41294 0.63055,2.5123 0.50756,2.62745 -2.10588,1.97152 -2.72239,-0.68328 -2.7642,-0.62678 -2.18367,2.95063 0.64935,4.00143 0.51475,4.14422 -2.42381,2.57155 -1.71463,-0.91764 -1.9621,-0.79328 -1.68432,0.84638 0.17909,1.05713 -0.30778,2.68526 -1.08194,3.61807 -1.06614,1.28462 -1.12676,1.9768 -0.24994,2.85362 2.33035,2.33035 1.35372,4.04684 -1.92898,3.3903 l -3.0866,-0.61732 0.6745,3.99232 c 0.54227,3.20969 0.37478,3.99232 -0.85439,3.99232 -0.84088,0 -1.81153,-0.45734 -2.15699,-1.01631 -1.07801,-1.74426 -2.48992,-3.9e-4 -2.48992,3.07533 0,2.07624 -0.51455,2.98577 -1.75,3.09329 -0.9625,0.0838 -2.27638,0.20217 -2.91973,0.2631 -1.49276,0.14138 -4.84296,4.40735 -5.7601,7.33459 -0.69422,2.21578 -4.57017,3.2759 -4.57017,1.25 z m 22.81184,-36.26148 c 0.22808,-1.18434 -0.30393,-1.73852 -1.66896,-1.73852 -1.31664,0 -2.11336,-0.77157 -2.32333,-2.25 -0.37656,-2.65142 -3.14149,-3.03235 -3.62918,-0.5 -0.18536,0.9625 0.15712,1.75 0.76106,1.75 0.60394,0 1.53824,1.15774 2.07623,2.57276 1.10334,2.902 4.23632,3.01054 4.78418,0.16576 z m -0.81184,-8.7534 c 2.50979,-1.97812 2.18508,-2.91723 -1.5,-4.33821 -0.62306,-0.24025 -0.51605,-1.20407 0.28388,-2.55693 0.70613,-1.19424 1.01707,-2.60303 0.69098,-3.13066 -0.32609,-0.52762 0.30711,-0.95932 1.40711,-0.95932 3.02517,0 3.67874,-2.06846 1.2358,-3.91117 -1.77415,-1.33824 -1.93716,-1.88265 -0.89382,-2.98519 1.06012,-1.12027 0.93572,-1.17419 -0.73514,-0.31867 -1.10615,0.56638 -2.90018,2.01211 -3.98672,3.21272 -1.86229,2.05781 -1.87598,2.25574 -0.23881,3.45287 2.22362,1.62596 2.18608,2.05289 -0.39175,4.4545 -2.38208,2.21925 -1.89224,5.36658 0.76134,4.89185 0.9128,-0.1633 1.88023,0.3373 2.14984,1.11244 0.33838,0.97288 -0.0166,1.21487 -1.14626,0.78138 -1.05747,-0.40579 -1.63645,-0.10836 -1.63645,0.84065 0,1.95751 0.99584,1.82151 4,-0.54626 z m -24,-25.48512 c 0,-0.825 0.40186,-1.5 0.89301,-1.5 0.49116,0 1.15203,0.675 1.46862,1.5 0.35062,0.91371 0.002,1.5 -0.89301,1.5 -0.80774,0 -1.46862,-0.675 -1.46862,-1.5 z m -68.35793,-1.92351 c -1.03188,-1.57486 -2.22231,-2.23752 -3.4451,-1.91775 -1.11912,0.29266 -3.15953,-0.5978 -5.08791,-2.22042 -2.73076,-2.29779 -3.58028,-2.54465 -5.59614,-1.62616 -1.88314,0.85801 -2.86039,0.73038 -4.70627,-0.61464 -1.28129,-0.93364 -3.22445,-2.19575 -4.31813,-2.8047 -1.09369,-0.60895 -2.1451,-1.904 -2.33647,-2.87788 -0.29062,-1.47894 0.19521,-1.69097 2.94854,-1.28687 3.32756,0.48838 11.89941,-2.50285 11.89941,-4.15242 0,-2.70358 -11.98239,-6.16508 -14.39887,-4.15958 -0.97447,0.80874 -2.31009,0.68565 -5.06912,-0.46714 -3.48437,-1.45586 -3.88659,-1.43889 -5.75799,0.24293 -1.94953,1.75205 -2.058,1.7392 -3.49647,-0.41402 -1.38754,-2.07699 -1.67009,-2.12621 -4.32484,-0.75339 -2.10527,1.08868 -3.51867,1.21087 -5.46161,0.47217 -1.44171,-0.54814 -4.617,-0.99662 -7.0562,-0.99662 -2.43919,0 -4.4349,-0.41801 -4.4349,-0.92891 0,-0.5109 -1.6875,-0.95306 -3.75,-0.98258 -9.03485,-0.1293 -10.11932,-0.30558 -10.66744,-1.73396 -0.36634,-0.95466 -1.27512,-1.26951 -2.522,-0.87377 -1.41065,0.44772 -2.43296,-0.1195 -3.69966,-2.05273 -1.90838,-2.91256 -2.20698,-9.64603 -0.45367,-10.23046 1.34404,-0.44802 1.43482,-3.45534 0.14331,-4.74759 -1.20113,-1.20183 1.69392,-7.45 3.45192,-7.45 0.68896,0 1.82868,0.69407 2.53271,1.54238 0.88807,1.07006 1.59927,1.22318 2.32245,0.5 0.57331,-0.57331 1.80423,-1.04238 2.73539,-1.04238 2.00567,0 3.3139,-2.77857 2.0607,-4.37675 -0.48443,-0.61779 -0.75439,-3.37325 -0.59989,-6.12325 0.5606,-9.97887 0.54649,-14.06619 -0.0604,-17.5 l -0.61861,-3.5 2.5626,2.80576 c 1.40943,1.54317 2.5626,3.65412 2.5626,4.69099 0,1.03687 0.39627,2.13012 0.8806,2.42946 1.33861,0.82731 1.91792,5.18242 0.92529,6.95616 -0.56734,1.01377 -0.33379,2.62989 0.6569,4.54567 0.84546,1.63495 1.53721,3.68898 1.53721,4.56451 0,0.87552 0.45834,2.13537 1.01854,2.79966 0.56019,0.66428 1.87639,2.25017 2.92487,3.52418 1.04849,1.27402 3.17765,2.65368 4.73147,3.06592 2.26909,0.602 2.88817,1.39461 3.14545,4.02715 0.40249,4.11815 -2.11555,7.09054 -6.0067,7.09054 -3.83447,0 -4.38082,1.96788 -1.8977,6.8352 2.47517,4.85175 3.87003,5.88616 4.77104,3.53815 0.387,-1.0085 0.17158,-1.9205 -0.50706,-2.14671 -1.71267,-0.57089 -1.44922,-3.22664 0.32009,-3.22664 0.825,0 1.5,0.45 1.5,1 0,0.55 0.45,1 1,1 0.55,0 1,-0.708 1,-1.57332 0,-2.44615 3.45205,-1.24234 3.81933,1.33189 0.32154,2.25353 0.93174,2.52344 8.43067,3.72913 2.97565,0.47843 3.75,0.28383 3.75,-0.94239 0,-2.05427 2.61743,-1.98464 3.41386,0.0908 0.56544,1.47352 0.79968,1.48383 2.35699,0.10375 1.03372,-0.91607 3.4124,-1.48104 5.91444,-1.40475 2.30192,0.0702 4.41455,-0.10163 4.69475,-0.38182 0.28019,-0.2802 0.15934,-2.07182 -0.26855,-3.98137 -1.87813,-8.3814 1.25456,-14.6217 5.89599,-11.74479 2.06388,1.27927 3.02922,0.67375 4.34769,-2.72714 0.59291,-1.52933 4.08519,0.88738 4.49005,3.10718 0.18988,1.04105 1.63796,3.24936 3.21796,4.90736 2.05878,2.16042 2.70799,3.64449 2.29132,5.23785 -0.38573,1.47505 -0.0671,2.42065 0.94667,2.80968 1.11759,0.42886 1.44877,1.76267 1.23286,4.96523 -0.22275,3.30405 0.17568,4.805 1.62326,6.11505 1.40109,1.26797 1.75194,2.49443 1.30096,4.54775 -0.45552,2.07394 -0.18803,2.97636 1.01958,3.43977 0.90041,0.34552 1.39132,1.26872 1.09092,2.05157 -0.51067,1.33079 1.87098,6.09144 3.70549,7.40683 0.45123,0.32355 0.12908,1.16204 -0.7159,1.86331 -0.84497,0.70127 -1.26298,1.7173 -0.9289,2.25786 0.33736,0.54586 -0.22328,0.82859 -1.26101,0.63591 -1.02764,-0.19081 -2.51214,-1.80907 -3.2989,-3.59613 -1.7938,-4.0745 -3.93378,-4.17798 -4.72369,-0.22841 -0.80649,4.03242 -1.8059,4.45219 -3.70377,1.55568 z m -52.80051,-40.69439 c 0.87911,-1.40769 0.98831,-2.45223 0.32564,-3.1149 -0.66267,-0.66267 -1.53716,0.0475 -2.60778,2.1179 -1.22475,2.36841 -1.3028,3.1149 -0.32565,3.1149 0.70683,0 1.88033,-0.95305 2.60779,-2.1179 z m 40.28682,-14.22741 c -0.61408,-0.73992 -1.39475,-2.87742 -1.73482,-4.75 -0.99508,-5.47931 -3.42102,-12.27505 -5.00865,-14.03066 -0.80872,-0.89429 -1.74209,-3.36929 -2.07415,-5.5 -0.33207,-2.13072 -1.3565,-4.99903 -2.27651,-6.37403 -2.54167,-3.79864 -4.8362,-12.11904 -4.31065,-15.63126 0.37232,-2.4882 0.85955,-3.029 2.37247,-2.63337 2.39627,0.62664 2.38007,0.23971 -0.19704,-4.70458 -2.42138,-4.64552 -4.52254,-5.15124 -5.93768,-1.42913 -0.67596,1.77792 -1.48557,2.41116 -2.55704,2 -0.86233,-0.33092 -1.75608,-0.60166 -1.9861,-0.60166 -0.23001,0 -0.41821,-0.81 -0.41821,-1.8 0,-2.35499 1.88282,-4.1822 3.62186,-3.51487 1.85584,0.71216 1.82544,-3.06902 -0.0371,-4.61479 -1.05976,-0.87953 -1.18856,-1.96498 -0.51277,-4.32132 0.87845,-3.06297 0.40218,-4.02384 -2.49903,-5.04178 -1.53722,-0.53936 0.4063,-2.70724 2.42704,-2.70724 1.03508,0 2.14392,-0.42385 2.46409,-0.94189 0.65169,-1.05447 -4.81801,-7.05811 -6.43039,-7.05811 -2.55714,0 -0.60781,-1.93692 3.90168,-3.87686 6.49327,-2.79332 7.90513,-2.69059 8.61478,0.62686 0.32354,1.5125 1.00711,3.78367 1.51905,5.04705 0.51193,1.26338 0.93393,3.28838 0.93776,4.5 0.004,1.21162 1.16841,5.57795 2.58794,9.70295 2.50547,7.28064 6.51635,23.96563 6.49049,27 -0.007,0.825 -0.0549,3.6388 -0.10633,6.25288 -0.0515,2.61408 0.20946,5.24315 0.5798,5.84238 0.37034,0.59922 1.44361,4.29584 2.38504,8.21471 1.40857,5.86338 1.48984,7.55286 0.45894,9.53992 -1.29044,2.48733 -0.55603,6.05568 1.84069,8.94355 0.85308,1.02791 0.77808,1.58032 -0.30784,2.26746 -1.94025,1.22774 -2.5009,1.16792 -3.80732,-0.40621 z m -9.12838,-42.65469 c 0,-1.1 -0.45,-2 -1,-2 -0.55,0 -1,0.9 -1,2 0,1.1 0.45,2 1,2 0.55,0 1,-0.9 1,-2 z m -56,36.57332 c 0,-0.92763 0.855,-1.57332 2.08333,-1.57332 2.43705,0 2.09257,2.33677 -0.4162,2.82332 -0.98676,0.19138 -1.66713,-0.31876 -1.66713,-1.25 z m 4,-28.45088 c 0,-1.16734 0.42344,-2.12244 0.94098,-2.12244 1.73246,0 2.053,1.7601 0.54801,3.00914 -1.23911,1.02837 -1.48899,0.87956 -1.48899,-0.8867 z m 206.03388,-9.08034 c -1.17288,-0.74181 -0.9061,-1.14019 1.33392,-1.99184 3.53833,-1.34527 5.63676,-0.25798 3.09256,1.60238 -2.16651,1.58419 -2.49217,1.61285 -4.42648,0.38946 z m -214.24726,-0.86262 c -2.82515,-1.12117 -0.56571,-3.41312 2.58511,-2.62232 2.14545,0.53848 2.45209,0.9502 1.5327,2.05799 -1.26091,1.5193 -1.59578,1.56519 -4.11781,0.56433 z m 184.05429,-0.91081 c -7.73869,-0.61594 -12.82285,-7.45023 -6.48061,-8.71143 7.98708,-1.58828 8.6397,-1.55489 8.6397,0.44208 0,2.63689 5.25303,5.21803 9.8082,4.81939 2.72195,-0.23821 3.72323,0.0893 3.96422,1.29681 0.22422,1.12342 -0.6439,1.80878 -2.85,2.25 -3.14349,0.62869 -4.05019,0.62198 -13.08151,-0.0969 z m 51.1744,-0.87578 c 0.0424,-2.46967 2.08916,-3.83374 5.33321,-3.55425 2.54388,0.21917 3.99888,-0.29516 5.55249,-1.96276 1.7586,-1.88763 2.55761,-2.10133 4.85213,-1.29769 3.2739,1.14665 4.23988,4.81441 1.54973,5.88422 -2.86971,1.14122 -17.3045,1.91815 -17.28756,0.93048 z m -73.26531,-5.19231 c -3.90036,-0.33419 -4.63587,-1.22049 -2.49046,-3.00102 1.50426,-1.24842 7.92517,-0.14542 8.45796,1.45294 0.48497,1.45492 -1.38699,1.94054 -5.9675,1.54808 z m 181.25,-6.2327 c 0,-0.56766 0.60438,-2.48016 1.34308,-4.25 0.73869,-1.76983 1.66268,-5.01788 2.05331,-7.21788 1.15294,-6.49322 1.63906,-7.5 3.62131,-7.5 1.0356,0 2.32501,0.7875 2.86534,1.75 0.93484,1.66523 1.12592,1.6655 3.94479,0.005 2.66122,-1.56722 3.02385,-1.58432 3.56727,-0.16821 1.73907,4.53195 -2.12818,9.98836 -10.59724,14.95195 -6.51049,3.81612 -6.79786,3.91879 -6.79786,2.42914 z m 26.39301,-39.54967 c 0.33385,-0.86998 0.60699,-2.44498 0.60699,-3.5 0,-1.36706 0.70136,-1.91821 2.44098,-1.91821 3.4203,0 3.86925,1.33589 1.47281,4.38246 -2.2787,2.89691 -5.51993,3.6395 -4.52078,1.03575 z m -132.862,-15.36804 c -0.79913,-1.29302 3.25311,-3.34699 5.15975,-2.61534 1.23855,0.47527 1.29629,0.87585 0.29942,2.077 -1.38732,1.67162 -4.5651,1.98499 -5.45917,0.53834 z m -42.53101,-1.73488 c 0,-1.58376 5.78145,-5.31621 8.20951,-5.29998 1.25977,0.008 2.96549,0.44215 3.79049,0.96384 1.31762,0.8332 1.2963,1.15227 -0.17533,2.6243 -1.81854,1.81903 -11.82467,3.2676 -11.82467,1.71184 z m -87,-75.76967 c -1.375,-0.80191 -3.175,-1.263 -4,-1.02464 -2.84905,0.82312 -4.36388,-1.2662 -4.67233,-6.44431 -0.22746,-3.81857 0.043,-5.07667 1.09134,-5.07667 0.87789,0 1.2095,-0.70456 0.89595,-1.9036 -0.57186,-2.18678 2.4823,-3.61291 5.61082,-2.61996 1.26891,0.40274 2.27105,-6.4e-4 2.93802,-1.18261 0.69654,-1.23436 2.20114,-1.79383 4.82422,-1.79383 3.68609,0 3.8036,-0.10733 3.55817,-3.25 -0.25995,-3.32868 1.08325,-4.43984 2.11544,-1.75 0.65258,1.70061 11.0921,2.19289 12.09489,0.57035 0.31601,-0.51131 2.91568,-0.75536 5.77704,-0.54232 3.85925,0.28732 5.67769,-0.0427 7.043,-1.27831 1.48427,-1.34325 2.16791,-1.43137 3.53198,-0.45529 2.94065,2.10422 6.50764,3.31602 10.6644,3.62296 2.21489,0.16356 5.29385,0.81155 6.84216,1.43999 1.5483,0.62844 3.22015,1.14262 3.7152,1.14262 2.83341,0 10.9697,9.98921 10.9697,13.46788 0,0.29267 -2.88055,0.53212 -6.40122,0.53212 -6.22949,0 -6.45547,-0.0919 -8.42285,-3.42639 -2.01517,-3.41547 -6.77728,-7.30559 -7.75108,-6.33179 -0.282,0.282 -1.50546,2.48046 -2.71879,4.88546 -3.37268,6.68513 -6.85901,8.02439 -19.95729,7.66649 -5.91318,-0.16157 -10.75068,0.0437 -10.75,0.45623 6.8e-4,0.4125 1.12623,0.75 2.50123,0.75 1.55556,0 2.5,0.56667 2.5,1.5 0,0.825 -0.1125,1.52995 -0.25,1.56657 -0.1375,0.0366 -4.525,0.26243 -9.75,0.50181 -7.14581,0.3274 -10.11952,0.074 -12,-1.02276 z m 22,-6.93484 c 0,-2.52037 -3.3875,-5.78305 -5.25876,-5.06498 -2.5718,0.98689 -2.11737,3.18627 1.00876,4.88223 3.47202,1.88359 4.25,1.91705 4.25,0.18275 z m 158.97293,6.13922 c -3.96207,-2.00292 -4.62999,-2.85398 -6.08223,-7.75 -0.92662,-3.12399 -2.28098,-5.6292 -3.13506,-5.79906 -0.82702,-0.16449 -2.88073,1.07799 -4.5638,2.76106 -1.74346,1.74347 -3.32899,2.62511 -3.685,2.04907 -1.06967,-1.73077 -2.51622,-1.11659 -3.50684,1.48893 -1.7825,4.68832 -6.10064,1.54316 -4.55733,-3.31938 1.38241,-4.35558 11.53455,-9.10166 18.16702,-8.493 6.59944,0.60563 7.76319,0.55449 11.825,-0.51972 2.48793,-0.65797 4.57799,-0.6963 5.68425,-0.10424 0.96227,0.51499 2.88299,0.93634 4.26827,0.93634 1.38527,0 3.55236,0.41886 4.81574,0.93079 1.26338,0.51194 3.44681,1.17349 4.85207,1.47012 1.40527,0.29663 4.55527,1.89458 7,3.55101 2.44474,1.65643 5.17738,3.01987 6.07254,3.02988 0.89515,0.01 2.18775,0.6932 2.87244,1.5182 0.68469,0.825 2.00378,1.5 2.93132,1.5 0.92753,0 2.55993,0.63873 3.62755,1.41941 1.90569,1.39349 1.89901,1.46424 -0.36575,3.875 -1.97123,2.0983 -3.2142,2.45559 -8.54264,2.45559 -3.42966,0 -7.79157,0.30144 -9.69312,0.66987 l -3.45736,0.66987 2.96092,-2.50062 c 3.17113,-2.67814 3.16942,-2.73062 -0.14518,-4.45367 -3.62495,-1.88437 -5.44951,-1.32333 -9.31574,2.86455 -3.35015,3.62887 -4.15129,4 -8.6345,4 -3.13931,0 -6.56509,-0.82065 -9.39257,-2.25 z m 49.02707,0.25 c 0,-0.55 0.64844,-1 1.44098,-1 0.79254,0 1.7191,0.45 2.05902,1 0.33992,0.55 -0.30852,1 -1.44098,1 -1.13246,0 -2.05902,-0.45 -2.05902,-1 z m -65,-4.96862 c 0,-0.53273 0.675,-0.70959 1.5,-0.39301 0.825,0.31659 1.5,0.75246 1.5,0.96862 0,0.21615 -0.675,0.39301 -1.5,0.39301 -0.825,0 -1.5,-0.43588 -1.5,-0.96862 z m -178.25,-9.72071 c -0.9625,-0.25152 -1.75,-0.92247 -1.75,-1.49098 0,-0.56852 0.7118,-0.76052 1.58179,-0.42668 0.86998,0.33385 2.21998,0.60699 3,0.60699 0.78001,0 1.41821,0.45 1.41821,1 0,1.02655 -1.18044,1.11284 -4.25,0.31067 z m 18.58455,-61.00532 c -1.191,-0.23226 -2.41437,-1.07098 -2.71861,-1.86382 -0.43088,-1.12284 0.43474,-1.44153 3.91544,-1.44153 3.34614,0 4.46862,-0.38467 4.46862,-1.53138 0,-2.08934 2.99356,-3.089 4.08561,-1.36434 1.39884,2.20918 1.07995,2.89572 -1.34506,2.89572 -1.2427,0 -2.82152,0.9 -3.50848,2 -0.68696,1.1 -1.5827,1.93872 -1.99054,1.86382 -0.40784,-0.0749 -1.71598,-0.32621 -2.90698,-0.55847 z m 15.66545,-0.30535 c 0,-0.55 0.42344,-1 0.94098,-1 0.51754,0 1.2191,0.45 1.55902,1 0.33992,0.55 -0.0835,1 -0.94098,1 -0.85746,0 -1.55902,-0.45 -1.55902,-1 z"
         id="path2998"
         inkscape:connector-curvature="0" />
    </g>
  </g>
</svg>
