<?xml version="1.0" encoding="UTF-8" standalone="no"?>
<!-- Created with Inkscape (http://www.inkscape.org/) -->

<svg
   xmlns:dc="http://purl.org/dc/elements/1.1/"
   xmlns:cc="http://creativecommons.org/ns#"
   xmlns:rdf="http://www.w3.org/1999/02/22-rdf-syntax-ns#"
   xmlns:svg="http://www.w3.org/2000/svg"
   xmlns="http://www.w3.org/2000/svg"
   xmlns:sodipodi="http://sodipodi.sourceforge.net/DTD/sodipodi-0.dtd"
   xmlns:inkscape="http://www.inkscape.org/namespaces/inkscape"
   width="900"
   height="300"
   id="svg2"
   version="1.1"
   inkscape:version="0.48.2 r9819"
   sodipodi:docname="TypeTest.ps">
  <defs
     id="defs4" />
  <sodipodi:namedview
     id="base"
     pagecolor="#ffffff"
     bordercolor="#666666"
     borderopacity="1.0"
     inkscape:pageopacity="0.0"
     inkscape:pageshadow="2"
     inkscape:zoom="1.4343333"
     inkscape:cx="442.37449"
     inkscape:cy="226.25304"
     inkscape:document-units="px"
     inkscape:current-layer="flowRoot2985"
     showgrid="false"
     inkscape:window-width="1680"
     inkscape:window-height="1002"
     inkscape:window-x="-4"
     inkscape:window-y="-4"
     inkscape:window-maximized="1" />
  <metadata
     id="metadata7">
    <rdf:RDF>
      <cc:Work
         rdf:about="">
        <dc:format>image/svg+xml</dc:format>
        <dc:type
           rdf:resource="http://purl.org/dc/dcmitype/StillImage" />
        <dc:title></dc:title>
      </cc:Work>
    </rdf:RDF>
  </metadata>
  <g
     inkscape:label="Layer 1"
     inkscape:groupmode="layer"
     id="layer1"
     transform="translate(0,-752.36218)">
    <g
       transform="translate(0,752.36218)"
       style="font-size:160px;font-style:normal;font-weight:normal;line-height:125%;letter-spacing:0px;word-spacing:0px;fill:#000000;fill-opacity:1;stroke:none;font-family:Bitstream Vera Sans"
       id="flowRoot2985">
      <path
         d="m 64.921875,156.81676 0,-101.015629 -37.734375,0 0,-13.515625 90.78125,0 0,13.515625 -37.890625,0 0,101.015629 z"
         style=""
         id="path2994" />
      <path
         d="m 131.17187,188.76988 -1.5625,-13.20312 c 3.07291,0.83331 5.7552,1.24998 8.04688,1.25 3.12498,-2e-5 5.62498,-0.52086 7.5,-1.5625 1.87497,-1.04169 3.41143,-2.50002 4.60937,-4.375 0.88539,-1.40627 2.31768,-4.89585 4.29688,-10.46875 0.26038,-0.78126 0.67705,-1.92709 1.25,-3.4375 l -31.48437,-83.125004 15.15624,0 17.26563,48.046874 c 2.23955,6.09378 4.24475,12.50002 6.01562,19.21875 1.61455,-6.45831 3.54163,-12.76039 5.78125,-18.90625 l 17.73438,-48.359374 14.0625,0 -31.5625,84.375004 c -3.38546,9.11457 -6.01567,15.3906 -7.89063,18.82812 -2.50003,4.63539 -5.36461,8.03383 -8.59375,10.19531 -3.22919,2.16143 -7.08335,3.24216 -11.5625,3.24219 -2.70834,-3e-5 -5.72917,-0.57295 -9.0625,-1.71875 z"
         style=""
         id="path2996" />
      <path
         d="m 211.79687,188.61363 0,-114.765624 12.8125,0 0,10.78125 c 3.02081,-4.218673 6.43227,-7.382733 10.23438,-9.492187 3.80205,-2.109291 8.41142,-3.163978 13.82812,-3.164063 7.08328,8.5e-5 13.33328,1.823 18.75,5.46875 5.4166,3.645909 9.50514,8.789133 12.26563,15.429688 2.76034,6.640682 4.14054,13.919316 4.14062,21.835936 -8e-5,8.48962 -1.52351,16.13284 -4.57031,22.92969 -3.04695,6.79689 -7.47403,12.00521 -13.28125,15.625 -5.80735,3.61979 -11.91411,5.42968 -18.32031,5.42969 -4.68754,-10e-6 -8.89327,-0.98959 -12.61719,-2.96875 -3.72399,-1.97917 -6.78388,-4.47916 -9.17969,-7.5 l 0,40.39062 z m 12.73438,-72.8125 c -2e-5,10.67711 2.16143,18.56773 6.48437,23.67188 4.32289,5.10418 9.55726,7.65626 15.70313,7.65625 6.24995,1e-5 11.60151,-2.64322 16.05469,-7.92969 4.45306,-5.28644 6.67962,-13.47653 6.67968,-24.57031 -6e-5,-10.57287 -2.17454,-18.489526 -6.52343,-23.750004 -4.34902,-5.260345 -9.54433,-7.890551 -15.58594,-7.890625 -5.98962,7.4e-5 -11.2891,2.79955 -15.89844,8.398438 -4.6094,5.599018 -6.91408,13.737031 -6.91406,24.414061 z"
         style=""
         id="path2998" />
      <path
         d="m 295.625,115.33238 c -10e-6,-15.364525 4.27082,-26.744722 12.8125,-34.140624 7.13539,-6.145751 15.8333,-9.218665 26.09375,-9.21875 11.40619,8.5e-5 20.7291,3.737061 27.96875,11.210938 7.2395,7.474024 10.85929,17.799536 10.85937,30.976566 -8e-5,10.67711 -1.60164,19.07554 -4.80468,25.19531 -3.2032,6.1198 -7.86466,10.8724 -13.98438,14.25781 -6.11985,3.38542 -12.79953,5.07812 -20.03906,5.07813 -11.61462,-10e-6 -21.00263,-3.72396 -28.16406,-11.17188 -7.16147,-7.4479 -10.7422,-18.17705 -10.74219,-32.1875 z m 14.45312,0 c -1e-5,10.62503 2.31769,18.58075 6.95313,23.86719 4.63539,5.28647 10.46871,7.9297 17.5,7.92969 6.97912,1e-5 12.7864,-2.65624 17.42187,-7.96875 4.63536,-5.31248 6.95306,-13.41143 6.95313,-24.29688 -7e-5,-10.26036 -2.3308,-18.033793 -6.99219,-23.320311 -4.66151,-5.286388 -10.45578,-7.929615 -17.38281,-7.929688 -7.03129,7.3e-5 -12.86461,2.630279 -17.5,7.890625 -4.63544,5.260477 -6.95314,13.203174 -6.95313,23.828124 z"
         style=""
         id="path3000" />
      <path
         d="m 387.34375,163.69176 13.67187,2.03125 c 0.5729,4.21873 2.16144,7.29165 4.76563,9.21875 3.48955,2.60414 8.25517,3.90622 14.29687,3.90625 6.51037,-3e-5 11.53641,-1.30211 15.07813,-3.90625 3.54161,-2.60419 5.93744,-6.25002 7.1875,-10.9375 0.7291,-2.86459 1.06764,-8.88021 1.01562,-18.04688 -6.14589,7.23959 -13.80213,10.85938 -22.96875,10.85938 -11.40627,0 -20.23439,-4.11458 -26.48437,-12.34375 -6.25001,-8.22915 -9.37501,-18.09893 -9.375,-29.60938 -10e-6,-7.91662 1.43229,-15.221296 4.29687,-21.914061 2.86458,-6.692638 7.01822,-11.861904 12.46094,-15.507813 5.44268,-3.64575 11.83591,-5.468665 19.17969,-5.46875 9.79162,8.5e-5 17.86452,3.958414 24.21875,11.875 l 0,-10 12.96875,0 0,71.718754 c -8e-5,12.91666 -1.31518,22.0703 -3.94531,27.46093 -2.63028,5.39061 -6.79695,9.64842 -12.5,12.77344 -5.70318,3.12497 -12.72141,4.68747 -21.05469,4.6875 -9.89586,-3e-5 -17.89065,-2.22659 -23.98438,-6.67969 -6.09376,-4.45314 -9.03646,-11.15887 -8.82812,-20.11718 z m 11.64062,-49.84375 c -1e-5,10.88545 2.16144,18.82815 6.48438,23.82812 4.32289,5.00002 9.73955,7.50001 16.25,7.5 6.45828,1e-5 11.87495,-2.48696 16.25,-7.46094 4.37494,-4.97393 6.56243,-12.7734 6.5625,-23.39843 -7e-5,-10.1562 -2.25267,-17.812443 -6.75781,-22.968754 -4.50526,-5.156179 -9.93495,-7.734302 -16.28907,-7.734375 -6.25003,7.3e-5 -11.56253,2.539133 -15.9375,7.617188 -4.37502,5.078185 -6.56251,12.617241 -6.5625,22.617191 z"
         style=""
         id="path3002" />
      <path
         d="m 478.82812,156.81676 0,-82.968754 12.65625,0 0,12.578125 c 3.22915,-5.88534 6.21091,-9.765545 8.94532,-11.640625 2.73434,-1.874916 5.74215,-2.812415 9.02343,-2.8125 4.73954,8.5e-5 9.55725,1.5105 14.45313,4.53125 l -4.84375,13.046875 c -3.43755,-2.03118 -6.87504,-3.046804 -10.3125,-3.046875 -3.07295,7.1e-5 -5.83337,0.924549 -8.28125,2.773438 -2.44795,1.849024 -4.19274,4.414125 -5.23438,7.695312 -1.56252,5.000054 -2.34377,10.468804 -2.34375,16.406254 l 0,43.4375 z"
         style=""
         id="path3004" />
      <path
         d="m 586.5625,146.58238 c -5.20839,4.42709 -10.22141,7.55209 -15.03906,9.375 -4.81776,1.82292 -9.98702,2.73437 -15.50782,2.73438 -9.1146,-10e-6 -16.1198,-2.22657 -21.01562,-6.67969 -4.89584,-4.45312 -7.34376,-10.14322 -7.34375,-17.07031 -10e-6,-4.06248 0.92447,-7.77341 2.77344,-11.13282 1.84895,-3.35933 4.27082,-6.05464 7.26562,-8.08593 2.99478,-2.03121 6.36717,-3.56767 10.11719,-4.60938 2.76039,-0.72912 6.92705,-1.43224 12.5,-2.10937 11.35412,-1.35412 19.71348,-2.9687 25.07812,-4.84375 0.052,-1.92703 0.0781,-3.15099 0.0781,-3.67188 -6e-5,-5.729103 -1.32819,-9.765558 -3.98438,-12.109374 -3.5938,-3.177011 -8.93234,-4.765552 -16.01562,-4.765625 -6.61462,7.3e-5 -11.49743,1.158926 -14.64844,3.476563 -3.15106,2.317776 -5.48179,6.419334 -6.99219,12.304687 l -13.75,-1.875 c 1.25,-5.885351 3.30729,-10.637951 6.17188,-14.257812 2.86457,-3.619715 7.00519,-6.40617 12.42187,-8.359375 5.41664,-1.953041 11.69267,-2.929603 18.82813,-2.929688 7.08328,8.5e-5 12.83848,0.833418 17.26562,2.5 4.42702,1.666748 7.68223,3.7631 9.76563,6.289063 2.08326,2.526115 3.54159,5.716216 4.375,9.570312 0.46867,2.395898 0.70305,6.71881 0.70312,12.968749 l 0,18.75 c -7e-5,13.07294 0.29941,21.34116 0.89844,24.80469 0.59888,3.46355 1.78378,6.78386 3.55469,9.96094 l -14.6875,0 c -1.4584,-2.91667 -2.3959,-6.32812 -2.8125,-10.23438 z m -1.17188,-31.40625 c -5.10422,2.08337 -12.76046,3.85421 -22.96875,5.3125 -5.78128,0.83337 -9.86982,1.77087 -12.26562,2.8125 -2.39586,1.0417 -4.24482,2.56514 -5.54688,4.57031 -1.3021,2.00524 -1.95314,4.2318 -1.95312,6.67969 -2e-5,3.75002 1.41925,6.87502 4.25781,9.375 2.83852,2.50001 6.99216,3.75001 12.46094,3.75 5.41662,1e-5 10.23433,-1.18488 14.45312,-3.55469 4.2187,-2.36977 7.31765,-5.61196 9.29688,-9.72656 1.51035,-3.17706 2.26556,-7.86455 2.26562,-14.0625 z"
         style=""
         id="path3006" />
      <path
         d="m 621.48437,188.61363 0,-114.765624 12.8125,0 0,10.78125 c 3.02081,-4.218673 6.43227,-7.382733 10.23438,-9.492187 3.80205,-2.109291 8.41142,-3.163978 13.82812,-3.164063 7.08328,8.5e-5 13.33328,1.823 18.75,5.46875 5.4166,3.645909 9.50514,8.789133 12.26563,15.429688 2.76034,6.640682 4.14054,13.919316 4.14062,21.835936 -8e-5,8.48962 -1.52351,16.13284 -4.57031,22.92969 -3.04695,6.79689 -7.47403,12.00521 -13.28125,15.625 -5.80735,3.61979 -11.91411,5.42968 -18.32031,5.42969 -4.68754,-10e-6 -8.89327,-0.98959 -12.61719,-2.96875 -3.72399,-1.97917 -6.78388,-4.47916 -9.17969,-7.5 l 0,40.39062 z m 12.73438,-72.8125 c -2e-5,10.67711 2.16143,18.56773 6.48437,23.67188 4.32289,5.10418 9.55726,7.65626 15.70313,7.65625 6.24995,1e-5 11.60151,-2.64322 16.05469,-7.92969 4.45306,-5.28644 6.67962,-13.47653 6.67968,-24.57031 -6e-5,-10.57287 -2.17454,-18.489526 -6.52343,-23.750004 -4.34902,-5.260345 -9.54433,-7.890551 -15.58594,-7.890625 -5.98962,7.4e-5 -11.2891,2.79955 -15.89844,8.398438 -4.6094,5.599018 -6.91408,13.737031 -6.91406,24.414061 z"
         style=""
         id="path3008" />
      <path
         d="m 710.54687,156.81676 0,-114.531254 14.0625,0 0,41.09375 c 6.56247,-7.604085 14.84372,-11.406165 24.84375,-11.40625 6.14578,8.5e-5 11.48432,1.211021 16.01563,3.632813 4.53118,2.421954 7.77336,5.768304 9.72656,10.039062 1.95305,4.270901 2.92961,10.468811 2.92969,18.593749 l 0,52.57813 -14.0625,0 0,-52.57813 c -6e-5,-7.031189 -1.5235,-12.148372 -4.57031,-15.351561 -3.04693,-3.203054 -7.35683,-4.804615 -12.92969,-4.804688 -4.16671,7.3e-5 -8.08598,1.080801 -11.75781,3.242188 -3.67191,2.161525 -6.28909,5.09121 -7.85157,8.789062 -1.56252,3.697974 -2.34377,8.802139 -2.34375,15.312499 l 0,45.39063 z"
         style=""
         id="path3010" />
      <path
         d="m 798.98437,188.76988 -1.5625,-13.20312 c 3.07291,0.83331 5.7552,1.24998 8.04688,1.25 3.12498,-2e-5 5.62498,-0.52086 7.5,-1.5625 1.87497,-1.04169 3.41143,-2.50002 4.60937,-4.375 0.88539,-1.40627 2.31768,-4.89585 4.29688,-10.46875 0.26038,-0.78126 0.67705,-1.92709 1.25,-3.4375 l -31.48438,-83.125004 15.15625,0 17.26563,48.046874 c 2.23955,6.09378 4.24475,12.50002 6.01562,19.21875 1.61455,-6.45831 3.54163,-12.76039 5.78125,-18.90625 l 17.73438,-48.359374 14.0625,0 -31.5625,84.375004 c -3.38546,9.11457 -6.01567,15.3906 -7.89063,18.82812 -2.50003,4.63539 -5.36461,8.03383 -8.59375,10.19531 -3.22919,2.16143 -7.08335,3.24216 -11.5625,3.24219 -2.70834,-3e-5 -5.72917,-0.57295 -9.0625,-1.71875 z"
         style=""
         id="path3012" />
      <path
         style="fill:none;stroke:#d81111;stroke-width:1;stroke-linecap:butt;stroke-linejoin:miter;stroke-miterlimit:4;stroke-opacity:1;stroke-dasharray:1, 3;stroke-dashoffset:0"
         d="m 9.9207328,42.334852 864.9075172,0"
         id="path3014"
         inkscape:connector-curvature="0" />
      <path
         inkscape:connector-curvature="0"
         id="path3784"
         d="m 9.9207328,73.746957 864.9075172,0"
         style="fill:none;stroke:#d81111;stroke-width:1;stroke-linecap:butt;stroke-linejoin:miter;stroke-miterlimit:4;stroke-opacity:1;stroke-dasharray:1, 3;stroke-dashoffset:0" />
      <path
         style="fill:none;stroke:#d81111;stroke-width:1;stroke-linecap:butt;stroke-linejoin:miter;stroke-miterlimit:4;stroke-opacity:1;stroke-dasharray:1, 3;stroke-dashoffset:0"
         d="m 9.9207328,157.15906 864.9075172,0"
         id="path3786"
         inkscape:connector-curvature="0" />
      <path
         inkscape:connector-curvature="0"
         id="path3788"
         d="m 9.9207328,188.5755 864.9075172,0"
         style="fill:none;stroke:#d81111;stroke-width:1;stroke-linecap:butt;stroke-linejoin:miter;stroke-miterlimit:4;stroke-opacity:1;stroke-dasharray:1, 3;stroke-dashoffset:0" />
      <path
         style="fill:none;stroke:#d81111;stroke-width:1;stroke-linecap:butt;stroke-linejoin:miter;stroke-miterlimit:4;stroke-opacity:1;stroke-dasharray:1, 3;stroke-dashoffset:0"
         d="m 9.9207328,191.15906 864.9075172,0"
         id="path3790"
         inkscape:connector-curvature="0" />
      <path
         style="color:#000000;stroke:#a45050;stroke-width:15.19999981000000000;stroke-linecap:butt;stroke-linejoin:miter;stroke-miterlimit:4;stroke-opacity:1;stroke-dashoffset:0;marker:none;visibility:visible;display:inline;overflow:visible;enable-background:accumulate;fill:#a08080;fill-opacity:1"
         d="m 379.2703,257.82012 c 0,10.97382 -11.39318,19.86985 -25.44737,19.86985 -14.05419,0 -61.70114,-21.44541 -61.70114,-32.41923 0,-10.97382 11.39317,-19.86986 25.44736,-19.86986 14.05419,0 61.70115,21.44542 61.70115,32.41924 z"
         id="path3792"
         inkscape:connector-curvature="0"
         sodipodi:nodetypes="sssss" />
    </g>
  </g>
</svg>
