<?xml version="1.0" encoding="UTF-8" standalone="no"?>
<!-- Created with Inkscape (http://www.inkscape.org/) -->

<svg
   xmlns:dc="http://purl.org/dc/elements/1.1/"
   xmlns:cc="http://creativecommons.org/ns#"
   xmlns:rdf="http://www.w3.org/1999/02/22-rdf-syntax-ns#"
   xmlns:svg="http://www.w3.org/2000/svg"
   xmlns="http://www.w3.org/2000/svg"
   xmlns:sodipodi="http://sodipodi.sourceforge.net/DTD/sodipodi-0.dtd"
   xmlns:inkscape="http://www.inkscape.org/namespaces/inkscape"
   width="1388.0938"
   height="330.90625"
   id="svg3876"
   version="1.1"
   inkscape:version="0.48.2 r9819"
   sodipodi:docname="typetest4.svg">
  <defs
     id="defs3878" />
  <sodipodi:namedview
     id="base"
     pagecolor="#ffffff"
     bordercolor="#666666"
     borderopacity="1.0"
     inkscape:pageopacity="0.0"
     inkscape:pageshadow="2"
     inkscape:zoom="0.87815231"
     inkscape:cx="796.6562"
     inkscape:cy="16.419058"
     inkscape:document-units="px"
     inkscape:current-layer="layer1"
     showgrid="false"
     fit-margin-top="0"
     fit-margin-left="0"
     fit-margin-right="0"
     fit-margin-bottom="0"
     inkscape:window-width="1680"
     inkscape:window-height="1002"
     inkscape:window-x="-4"
     inkscape:window-y="-4"
     inkscape:window-maximized="1" />
  <metadata
     id="metadata3881">
    <rdf:RDF>
      <cc:Work
         rdf:about="">
        <dc:format>image/svg+xml</dc:format>
        <dc:type
           rdf:resource="http://purl.org/dc/dcmitype/StillImage" />
        <dc:title />
      </cc:Work>
    </rdf:RDF>
  </metadata>
  <g
     inkscape:label="Layer 1"
     inkscape:groupmode="layer"
     id="layer1"
     transform="translate(629.0625,-217.875)">
    <path
       style="font-size:220px;font-style:normal;font-variant:normal;font-weight:600;font-stretch:normal;line-height:125%;letter-spacing:-1.69000018px;word-spacing:-15.55998993px;fill:#000000;fill-opacity:1;stroke:none;font-family:Adobe Caslon Pro;-inkscape-font-specification:Adobe Caslon Pro Semi-Bold"
       d="m -546.4831,309.85437 c 0.002,1.42434 -0.002,5.80824 -0.0103,13.1517 -0.009,7.34362 -0.0327,15.70121 -0.0722,25.0728 -0.0396,9.3717 -0.1049,17.81179 -0.19593,25.3203 -0.0911,7.50857 -0.21834,12.13997 -0.38155,13.8942 -0.12382,1.69124 -0.81131,3.09372 -2.06248,4.20744 -1.25129,1.11375 -2.98377,1.69124 -5.19743,1.73248 l -12.53984,0 c -0.4492,-0.009 -0.81586,0.11918 -1.09998,0.385 -0.28421,0.26584 -0.43087,0.72417 -0.44,1.37498 l 0,5.05994 c -0.009,0.75624 0.11913,1.27873 0.385,1.56747 0.26579,0.28875 0.72412,0.42625 1.37498,0.4125 1.39333,-0.0275 4.76666,-0.1375 10.12,-0.33 5.35323,-0.1925 13.56648,-0.3025 24.63977,-0.32999 11.63229,0.0275 19.82719,0.1375 24.58474,0.33 4.75734,0.19249 7.56232,0.30249 8.41492,0.33 0.8614,-0.009 1.44796,-0.21085 1.75971,-0.60501 0.31152,-0.39415 0.45817,-0.92581 0.43996,-1.59497 l 0,-4.61994 c -1.2e-4,-0.56374 -0.11011,-1.03124 -0.33,-1.40249 -0.22011,-0.37124 -0.55011,-0.56373 -0.98998,-0.57749 l -12.75984,0 c -2.62173,0.16501 -4.52837,-1.26497 -5.71993,-4.28994 -1.19174,-3.02495 -1.7784,-8.63487 -1.75997,-16.82978 l 0,-117.25849 6.15992,0 c 4.49151,-0.0548 10.35809,0.16514 17.59977,0.65999 7.24145,0.49513 12.66804,1.59512 16.27979,3.29995 3.22649,2.56678 6.50812,6.45339 9.84488,11.65985 3.33647,5.20673 5.8481,9.53334 7.5349,12.97984 0.31609,0.66469 0.61859,1.15051 0.90748,1.45747 0.2886,0.3072 0.64609,0.40803 1.07249,0.3025 l 4.39994,-1.53998 c 0.33901,-0.0961 0.59567,-0.28863 0.76999,-0.57749 0.17401,-0.28863 0.21068,-0.75612 0.11,-1.40248 -0.62755,-3.76699 -1.42606,-8.65037 -2.39552,-14.65018 -0.96977,-5.99954 -1.86606,-11.63255 -2.68886,-16.89905 -0.8231,-5.26619 -1.32828,-8.68294 -1.51553,-10.25023 -0.20182,-1.30149 -0.45848,-2.21815 -0.77,-2.74997 -0.31181,-0.5315 -0.78847,-0.78816 -1.42997,-0.76999 -0.63264,0.009 -1.23764,0.211 -1.81499,0.605 -0.57764,0.39432 -1.29263,0.92598 -2.14496,1.59497 -1.84262,1.28349 -4.37259,2.5118 -7.58991,3.68496 -3.21759,1.17348 -5.96755,1.8518 -8.24989,2.03497 -4.73006,0.24765 -10.22999,0.52265 -16.49979,0.82499 -6.27002,0.30265 -15.28989,0.46765 -27.05965,0.49499 l -11.87984,0 c -10.46827,-0.0273 -18.79149,-0.19234 -24.96969,-0.49499 -6.17829,-0.30234 -12.08154,-0.57734 -17.70977,-0.82499 -3.04331,-0.0594 -5.75661,-0.49025 -8.13989,-1.29248 -2.38332,-0.80192 -4.65663,-2.27773 -6.81991,-4.42745 -0.64168,-0.66899 -1.22833,-1.20066 -1.75998,-1.59498 -0.53167,-0.394 -1.11833,-0.59566 -1.75998,-0.60499 -0.4675,-0.0273 -0.96249,0.24767 -1.48498,0.825 -0.5225,0.57765 -0.9075,1.62264 -1.15498,3.13495 -0.36667,1.31472 -1.24666,4.64998 -2.63997,10.0058 -1.39332,5.35613 -2.85997,11.00543 -4.39994,16.94793 -1.53998,5.94276 -2.7133,10.45134 -3.51996,13.52575 -0.25666,1.06344 0.0367,1.79676 0.87999,2.19997 l 4.39994,1.53998 c 0.54083,0.1972 0.99915,0.13303 1.37498,-0.1925 0.37583,-0.32529 0.72416,-0.77445 1.04499,-1.34748 2.20455,-4.12483 5.11035,-8.85476 8.71739,-14.18982 3.60702,-5.33479 7.2278,-8.96474 10.86236,-10.88985 4.94074,-1.47568 10.56899,-2.374 16.88478,-2.69498 6.31571,-0.32068 11.39397,-0.44901 15.23481,-0.38498 l 6.15992,0 z"
       id="path3019"
       inkscape:connector-curvature="0" />
    <path
       style="font-size:220px;font-style:normal;font-variant:normal;font-weight:600;font-stretch:normal;line-height:125%;letter-spacing:-1.69000018px;word-spacing:-15.55998993px;fill:#000000;fill-opacity:1;stroke:none;font-family:Adobe Caslon Pro;-inkscape-font-specification:Adobe Caslon Pro Semi-Bold"
       d="m -478.20805,461.21242 c 5.80241,-0.24756 10.14735,-1.95254 13.03483,-5.11494 2.88744,-3.16251 5.14241,-6.29746 6.76492,-9.40487 2.05327,-3.74 5.20656,-10.22991 9.45988,-19.46976 4.25323,-9.2399 9.1665,-19.90975 14.73981,-32.00958 8.1215,-18.33307 15.41806,-34.46618 21.88971,-48.39938 6.4715,-13.93308 10.90811,-22.5863 13.30983,-25.95966 1.25114,-1.50324 2.59863,-2.51156 4.04245,-3.02497 1.44364,-0.51324 2.73612,-0.75157 3.87745,-0.71499 l 2.63997,0 c 0.43989,0.009 0.76989,-0.11908 0.98998,-0.38499 0.2199,-0.26575 0.3299,-0.72407 0.33,-1.37498 l 0,-4.61994 c 0.0366,-1.13657 -0.47676,-1.72323 -1.53998,-1.75998 -1.01287,0.0275 -2.78194,0.1374 -5.30721,0.32977 -2.52545,0.19257 -5.66957,0.30256 -9.43236,0.32997 -5.82086,-0.0274 -10.12915,-0.13741 -12.92488,-0.33 -2.79587,-0.19241 -4.79418,-0.30241 -5.99493,-0.33 -0.65098,0.005 -1.10936,0.1607 -1.37515,0.46772 -0.26591,0.3072 -0.39425,0.73804 -0.38501,1.29252 l 0,4.83993 c -0.009,0.44925 0.1191,0.81591 0.385,1.09999 0.26576,0.28425 0.72409,0.43091 1.37497,0.43999 l 3.51996,0 c 2.0074,-0.009 3.43738,0.66925 4.28994,2.03498 0.85241,1.36589 0.96241,3.4742 0.33,6.32492 -0.52563,1.92165 -2.16338,6.3406 -4.91328,13.25686 -2.75003,6.91638 -5.65888,14.04048 -8.72655,21.37232 -3.06779,7.33191 -5.34109,12.58196 -6.81991,15.75017 l -0.87999,0 c -0.87868,-2.11031 -2.54359,-7.17839 -4.99475,-15.20425 -2.45125,-8.02578 -4.81689,-16.02715 -7.09694,-24.00414 -2.28014,-7.97686 -3.60283,-12.94716 -3.9681,-14.91092 -0.28878,-1.63614 -0.0963,-2.81863 0.5775,-3.54745 0.6737,-0.72866 1.58119,-1.08615 2.72246,-1.07249 l 3.29996,0 c 0.54536,-0.009 0.93952,-0.15574 1.18248,-0.43999 0.24286,-0.28408 0.36203,-0.65074 0.3575,-1.09999 l 0,-4.83993 c 0.009,-0.65074 -0.11921,-1.10907 -0.385,-1.37499 -0.26587,-0.26574 -0.7242,-0.39407 -1.37498,-0.38499 -1.27414,0.0275 -3.67575,0.1374 -7.20483,0.32977 -3.52915,0.19257 -8.46076,0.30256 -14.79483,0.32997 -7.9841,-0.0274 -13.6857,-0.13741 -17.10483,-0.33 -3.41913,-0.19241 -5.49078,-0.30241 -6.21493,-0.33 -0.65083,0.009 -1.10916,0.15612 -1.37499,0.44021 -0.26582,0.28428 -0.39415,0.65096 -0.38498,1.10003 l 0,4.83994 c -0.009,0.55466 0.11916,0.98548 0.38499,1.29248 0.26584,0.30716 0.72416,0.46299 1.37498,0.46749 l 4.39995,0 c 2.14955,0.0276 3.90036,0.85257 5.25243,2.47497 1.35206,1.62256 2.60787,3.87753 3.76745,6.76491 0.51045,1.26563 2.14324,5.59568 4.89837,12.99015 2.75511,7.39459 5.87975,15.8702 9.37394,25.42686 3.49415,9.55673 6.60504,18.21108 9.33269,25.9631 2.72758,7.75204 4.31913,12.61832 4.77463,14.59888 -0.98867,3.01749 -2.62914,7.10237 -4.92142,12.25465 -2.29235,5.15226 -4.58466,9.98676 -6.87695,14.50352 -2.29234,4.51669 -3.93281,7.33048 -4.92141,8.44137 -0.70585,0.65079 -1.60417,0.99912 -2.69497,1.04499 -1.09084,0.0458 -2.09916,-0.15587 -3.02496,-0.60499 -1.33833,-0.68753 -2.84164,-1.29253 -4.50994,-1.81498 -1.66833,-0.52254 -3.39164,-0.79753 -5.16993,-0.82499 -2.94247,0.0733 -5.41744,1.13662 -7.42491,3.18996 -2.00748,2.05326 -3.05246,4.65656 -3.13496,7.8099 0.055,3.5749 1.26499,6.43487 3.62995,8.57989 2.36497,2.14491 5.55492,3.2449 9.56988,3.29996 z"
       id="path3021"
       inkscape:connector-curvature="0" />
    <path
       style="font-size:220px;font-style:normal;font-variant:normal;font-weight:600;font-stretch:normal;line-height:125%;letter-spacing:-1.69000018px;word-spacing:-15.55998993px;fill:#000000;fill-opacity:1;stroke:none;font-family:Adobe Caslon Pro;-inkscape-font-specification:Adobe Caslon Pro Semi-Bold"
       d="m -353.72843,400.05321 c 3.39157,1.51247 6.83819,2.55746 10.33986,3.13495 3.50157,0.57749 6.5082,0.85249 9.01989,0.82499 13.74058,-0.29333 25.08875,-5.42659 34.04456,-15.3998 8.95561,-9.97318 13.59388,-23.02633 13.91482,-39.15949 0.0549,-6.79694 -0.8251,-12.6177 -2.63997,-17.46228 -1.81508,-4.84445 -4.89504,-9.51022 -9.23988,-13.99732 -3.48338,-3.5382 -7.29666,-6.25149 -11.43985,-8.13989 -4.14336,-1.88822 -8.83663,-2.84154 -14.07982,-2.85997 -6.47164,0.12843 -12.33823,1.52174 -17.59977,4.17995 -5.26165,2.65839 -9.36826,5.81168 -12.31984,9.45988 l -0.44,0 -1.53998,-10.77986 c -0.11003,-0.79282 -0.33003,-1.46198 -0.65999,-2.00748 -0.33004,-0.54531 -0.77003,-0.82947 -1.31998,-0.85249 -0.8617,0.005 -1.77835,0.16052 -2.74997,0.4675 -0.97169,0.30717 -2.10834,0.738 -3.40995,1.29248 l -25.07968,10.99986 c -0.65084,0.21091 -1.10917,0.44924 -1.37499,0.71499 -0.26583,0.26591 -0.39416,0.61424 -0.38499,1.04499 l 0,2.19997 c -0.009,0.42174 0.11916,0.7884 0.385,1.09998 0.26583,0.31174 0.72415,0.6784 1.37498,1.09999 l 4.83994,2.63997 c 3.19911,1.67755 5.27074,3.49252 6.21491,5.44493 0.94414,1.95254 1.3658,4.5375 1.26499,7.7549 l 0,75.89902 c 0.009,8.27737 -0.009,14.82228 -0.055,19.63475 -0.0459,4.81239 -0.17418,8.38734 -0.38499,10.72486 -0.20168,1.77826 -0.67834,3.17158 -1.42999,4.17994 -0.75167,1.00827 -1.88832,1.5216 -3.40995,1.53998 l -7.9199,0 c -0.44,0.009 -0.76999,0.15578 -0.98999,0.44 -0.22,0.28411 -0.33,0.65077 -0.32999,1.09998 l 0,4.83994 c -0.009,0.65076 0.11916,1.10909 0.385,1.37498 0.26583,0.26577 0.72415,0.39411 1.37498,0.385 0.87082,-0.0275 3.30913,-0.13744 7.31494,-0.32986 4.00578,-0.19254 9.63405,-0.30253 16.88483,-0.32997 8.46071,0.0274 14.63897,0.13744 18.53481,0.33 3.89574,0.19244 6.22404,0.30244 6.98493,0.33 0.86152,0.009 1.44813,-0.11936 1.75984,-0.38515 0.31159,-0.26591 0.45825,-0.72424 0.43998,-1.375 l 0,-4.61994 c 0.009,-0.55463 -0.11922,-0.98546 -0.385,-1.29248 -0.26588,-0.30714 -0.72421,-0.46297 -1.37498,-0.4675 l -7.9199,0 c -2.16793,0.22912 -3.71707,-0.44921 -4.64743,-2.03497 -0.93045,-1.58587 -1.43461,-5.45414 -1.51249,-11.60485 z m 0,-70.6191 c 2.27326,-3.09821 5.09655,-5.48151 8.46988,-7.14991 3.37324,-1.66823 6.85652,-2.51155 10.44987,-2.52996 9.25356,0.54549 15.88097,5.2846 19.88224,14.21732 4.00112,8.93286 5.95359,18.78689 5.85743,29.56212 -0.44008,11.43529 -2.80505,19.63934 -7.09491,24.61218 -4.29002,4.97286 -9.18495,7.40199 -14.68481,7.28741 -3.52001,0.009 -6.70997,-0.39416 -9.56988,-1.20999 -2.86002,-0.81582 -5.38998,-2.09913 -7.5899,-3.84995 -2.16335,-1.3658 -3.66666,-3.14411 -4.50994,-5.33493 -0.84337,-2.19079 -1.24669,-4.51909 -1.20998,-6.98491 z"
       id="path3023"
       inkscape:connector-curvature="0" />
    <path
       style="font-size:220px;font-style:normal;font-variant:normal;font-weight:600;font-stretch:normal;line-height:125%;letter-spacing:-1.69000018px;word-spacing:-15.55998993px;fill:#000000;fill-opacity:1;stroke:none;font-family:Adobe Caslon Pro;-inkscape-font-specification:Adobe Caslon Pro Semi-Bold"
       d="m -224.20239,306.9944 c -4.57416,-0.1099 -9.56076,0.55009 -14.95981,1.97998 -5.39914,1.43007 -10.82573,4.29003 -16.27979,8.57989 -6.54493,5.48167 -11.27487,11.56826 -14.18982,18.25976 -2.91498,6.69164 -4.34495,12.77822 -4.28994,18.25977 -0.11001,6.57704 0.65998,12.50779 2.30996,17.79227 1.64997,5.28454 4.83993,10.72029 9.56988,16.30729 4.94991,5.85743 10.39484,9.98237 16.33479,12.37484 5.93988,2.39247 12.37479,3.54745 19.30475,3.46495 7.42485,-0.0275 14.29976,-1.40248 20.62474,-4.12494 6.32484,-2.72246 11.76976,-6.62741 16.33479,-11.71485 4.22568,-4.66576 7.54397,-9.85402 9.95487,-15.5648 2.4107,-5.71073 3.63901,-11.66898 3.68495,-17.87477 0.0136,-6.4807 -1.22383,-12.60395 -3.71245,-18.36977 -2.48881,-5.76569 -6.31126,-11.22894 -11.46735,-16.38978 -3.73546,-3.71695 -8.36456,-6.78774 -13.88733,-9.21239 -5.52291,-2.42446 -11.96699,-3.68027 -19.33224,-3.76745 z m -0.44,87.77887 c -4.34041,-0.0229 -7.86952,-0.85706 -10.58736,-2.50247 -2.71793,-1.64538 -4.98206,-3.96451 -6.79241,-6.9574 -2.88292,-4.61534 -4.76207,-9.29945 -5.63744,-14.05233 -0.87543,-4.75281 -1.26959,-10.2619 -1.18248,-16.52728 -0.0321,-7.91985 0.69205,-14.46476 2.17248,-19.63475 1.48036,-5.16986 3.90949,-9.6248 7.2874,-13.36483 1.85618,-2.07614 3.91865,-3.58862 6.18742,-4.53744 2.26867,-0.94865 4.82614,-1.41614 7.6724,-1.40248 5.38071,0.0826 10.45897,3.43754 15.2348,10.06487 4.7757,6.62749 7.324,16.03235 7.64491,28.21464 -0.009,11.51322 -1.86089,21.10142 -5.55493,28.76463 -3.69419,7.66324 -9.17578,11.64152 -16.44479,11.93484 z"
       id="path3025"
       inkscape:connector-curvature="0" />
    <path
       style="font-size:220px;font-style:normal;font-variant:normal;font-weight:600;font-stretch:normal;line-height:125%;letter-spacing:-1.69000018px;word-spacing:-15.55998993px;fill:#000000;fill-opacity:1;stroke:none;font-family:Adobe Caslon Pro;-inkscape-font-specification:Adobe Caslon Pro Semi-Bold"
       d="m -122.98384,461.21242 c 10.40397,0.0366 19.29551,-1.24671 26.674651,-3.84996 7.379,-2.60335 12.86059,-5.42664 16.4448,-8.46988 4.80317,-3.73084 8.28645,-7.70912 10.44986,-11.93486 2.1632,-4.22581 3.22652,-8.75407 3.18996,-13.58481 0.0916,-3.37331 -0.64176,-6.9666 -2.19997,-10.77987 -1.55842,-3.81329 -4.49171,-7.40657 -8.79989,-10.77986 -4.74836,-3.86827 -10.10161,-6.36157 -16.05979,-7.4799 -5.95833,-1.11831 -13.071571,-1.41164 -21.339731,-0.87999 -9.62492,0.605 -16.66482,0.495 -21.11972,-0.33 -4.45498,-0.82498 -6.65495,-3.35494 -6.59992,-7.5899 0.14664,-2.65828 1.22829,-4.93158 3.24496,-6.81991 2.01661,-1.88829 4.08824,-3.2816 6.21492,-4.17995 2.24118,0.42169 4.30365,0.67836 6.18742,0.76999 1.88368,0.0917 4.00115,0.12836 6.35242,0.11 5.24779,0.0459 10.31689,-0.7058 15.2073,-2.25497 4.89028,-1.54912 9.134391,-4.17075 12.732341,-7.8649 3.27237,-3.56116 5.63734,-7.43861 7.0949,-11.63235 1.4574,-4.19364 2.17239,-8.45608 2.14498,-12.78733 -0.0276,-3.51989 -0.30258,-6.48985 -0.82499,-8.90989 -0.52258,-2.4199 -1.12757,-4.28987 -1.81498,-5.60993 0.90741,-0.63241 1.8424,-1.01741 2.80497,-1.15499 0.9624,-0.13742 1.78739,-0.19242 2.47496,-0.16499 0.8799,0.0276 1.75989,0.30258 2.63997,0.82499 0.8799,0.52257 1.75988,1.12756 2.63997,1.81498 0.65531,0.70589 1.54446,1.38421 2.66746,2.03497 1.1228,0.65089 2.50695,0.99922 4.15245,1.04499 2.48402,-0.0916 4.55566,-1.00825 6.21492,-2.74997 1.65903,-1.74157 2.52069,-3.75821 2.58497,-6.04992 0.22446,-2.94238 -0.60969,-5.41734 -2.50248,-7.42491 -1.893,-2.00738 -4.87212,-3.05237 -8.93738,-3.13495 -2.95173,0.078 -6.12335,0.91215 -9.51488,2.50246 -3.39171,1.59049 -6.45333,3.46963 -9.18488,5.63743 -1.02673,-1.58115 -3.92336,-3.97362 -8.68989,-7.17741 -4.766671,-3.20362 -11.843241,-4.99109 -21.229721,-5.36243 -14.11194,0.43093 -24.44263,3.96921 -30.9921,10.61487 -6.54952,6.64582 -9.78531,13.81406 -9.70738,21.50472 0.26582,9.24452 2.37413,16.44025 6.32492,21.58722 3.95077,5.14705 8.14904,8.87784 12.59484,11.19236 l 0,0.43999 c -3.67582,1.54001 -7.6541,4.17997 -11.93485,7.9199 -4.2808,3.73997 -6.60909,8.5799 -6.98491,14.51981 0.0183,3.62079 1.30164,6.93908 3.84995,9.95488 2.54828,3.01579 6.25157,5.12409 11.10986,6.32491 l 0,1.31999 c -5.57328,2.20912 -10.70654,5.38074 -15.3998,9.51487 -4.69328,4.13409 -7.18658,9.17569 -7.47991,15.12481 -0.0367,3.51533 0.80665,6.71445 2.52997,9.59737 1.7233,2.88284 4.5466,5.47697 8.46989,7.78241 5.00492,2.69032 10.61484,4.51446 16.82978,5.47242 6.21489,0.95785 12.04481,1.40701 17.48978,1.34749 z m 2.63997,-93.4988 c -3.02501,-0.009 -5.49998,-0.43079 -7.42491,-1.26498 -1.92501,-0.83412 -3.62999,-2.02577 -5.11493,-3.57496 -1.86543,-1.72785 -3.24958,-4.15699 -4.15245,-7.28741 -0.90294,-3.13033 -1.3521,-6.49445 -1.34748,-10.09236 -0.0459,-4.40447 0.3758,-8.85024 1.26499,-13.33733 0.88912,-4.48696 2.52076,-8.32774 4.89493,-11.52235 1.64994,-1.96157 3.46492,-3.37322 5.44493,-4.23495 1.97993,-0.86157 4.1249,-1.28323 6.43492,-1.26498 2.61699,0.0322 4.7528,0.463 6.40742,1.29248 1.6545,0.82966 2.96532,1.86548 3.93244,3.10746 1.16409,1.42548 2.24575,3.57961 3.24496,6.46241 0.99909,2.88296 1.53075,6.52208 1.59498,10.91737 0.0824,8.11703 -1.01755,15.20277 -3.29996,21.25722 -2.28253,6.05454 -6.24248,9.23533 -11.87984,9.54238 z m 4.83993,45.53942 c 10.50481,-0.35751 18.204701,1.23747 23.099711,4.78494 4.89485,3.54743 7.31481,8.55236 7.2599,15.0148 -0.33925,6.49446 -3.84086,11.38023 -10.50486,14.65731 -6.664151,3.27699 -13.135731,4.9178 -19.414751,4.92244 -6.22872,0.0274 -11.26115,-0.35755 -15.09731,-1.15499 -3.83623,-0.79754 -7.38368,-2.17252 -10.64236,-4.12494 -2.15875,-1.30628 -4.00122,-3.36876 -5.52743,-6.18743 -1.52625,-2.81875 -2.32374,-5.81621 -2.39247,-8.99238 0.17415,-4.4733 1.64079,-8.28658 4.39995,-11.43985 2.7591,-3.15331 5.76572,-5.20661 9.01988,-6.15992 z"
       id="path3027"
       inkscape:connector-curvature="0" />
    <path
       style="font-size:220px;font-style:normal;font-variant:normal;font-weight:600;font-stretch:normal;line-height:125%;letter-spacing:-1.69000018px;word-spacing:-15.55998993px;fill:#000000;fill-opacity:1;stroke:none;font-family:Adobe Caslon Pro;-inkscape-font-specification:Adobe Caslon Pro Semi-Bold"
       d="m -43.462549,387.95336 c -0.0183,2.07623 -0.53168,3.58871 -1.53998,4.53744 -1.00834,0.94874 -2.40165,1.41624 -4.17995,1.40249 l -7.6999,0 c -0.75624,-0.009 -1.27874,0.11917 -1.56748,0.38499 -0.28875,0.26584 -0.42625,0.72417 -0.41249,1.37498 l 0,4.83994 c -0.0367,1.06332 0.47666,1.57664 1.53998,1.53998 0.87999,-0.0275 3.46497,-0.1375 7.75493,-0.33 4.28995,-0.1925 10.28488,-0.3025 17.98482,-0.32999 8.06654,0.0275 14.42814,0.1375 19.08481,0.33 4.6565603,0.19249 7.3882003,0.30249 8.1949203,0.33 1.06312,0.0367 1.57639,-0.47667 1.53982,-1.53999 l 0,-5.05993 c 0.009,-0.54541 -0.11923,-0.93957 -0.385,-1.18249 -0.26589,-0.24291 -0.72422,-0.36208 -1.37498,-0.35749 l -9.6798803,0 c -2.18168,0.055 -3.75833,-0.60499 -4.72994,-1.97998 -0.9717,-1.37497 -1.44836,-3.79494 -1.42998,-7.25991 l 0,-42.45945 c -4e-5,-1.50784 0.21996,-3.27698 0.65999,-5.30744 0.43995,-2.03032 1.09995,-3.85446 1.97998,-5.47242 1.37493,-2.28698 2.91491,-3.9278 4.61994,-4.92244 1.70492,-0.9945 3.2449003,-1.48032 4.6199403,-1.45748 1.1091,-0.009 2.19075,0.11924 3.24496,0.385 1.05409,0.26591 2.02575,0.72423 2.91496,1.37498 0.8891,0.4584 1.97075004,0.86173 3.24496004,1.20998 1.27407996,0.3484 2.68572996,0.53173 4.23493996,0.55 2.99739,-0.10993 5.6923597,-1.31992 8.0848997,-3.62996 2.39239,-2.30989 3.65737,-5.05985 3.79495,-8.24989 -0.0367,-3.15321 -1.0634,-5.7565 -3.07996,-7.8099 -2.01672,-2.05322 -4.8033497,-3.11654 -8.3598897,-3.18996 -4.86749996,0.0551 -9.54244,1.81507 -14.02482,5.27993 -4.4825003,3.46504 -8.6074403,8.30498 -12.3748403,14.51982 l -0.87999,0 -1.97997,-15.8398 c -0.0963,-0.6874 -0.28879,-1.2924 -0.5775,-1.81498 -0.28878,-0.5224 -0.75628,-0.7974 -1.40248,-0.82499 -0.6417,0.009 -1.22835,0.10093 -1.75998,0.275 -0.53169,0.17426 -1.11835,0.37592 -1.75997,0.60499 l -26.61966,12.53984 c -0.65084,0.31633 -1.10917,0.61882 -1.37499,0.90749 -0.26584,0.28882 -0.39416,0.64632 -0.38499,1.07249 l 0,1.31998 c -0.009,0.4309 0.11916,0.77923 0.385,1.04499 0.26582,0.26591 0.72415,0.50424 1.37498,0.71499 l 3.95995,2.19997 c 3.23577,1.62255 5.45408,3.65753 6.65491,6.10492 1.2008,2.44753 1.76912,6.13248 1.70498,11.05486 z"
       id="path3029"
       inkscape:connector-curvature="0" />
    <path
       style="font-size:220px;font-style:normal;font-variant:normal;font-weight:600;font-stretch:normal;line-height:125%;letter-spacing:-1.69000018px;word-spacing:-15.55998993px;fill:#000000;fill-opacity:1;stroke:none;font-family:Adobe Caslon Pro;-inkscape-font-specification:Adobe Caslon Pro Semi-Bold"
       d="m 72.419761,390.59333 c 1.59492,4.69786 4.01489,8.11697 7.25991,10.25736 3.24488,2.14039 6.98483,3.19454 11.21985,3.16246 6.28817,-0.28416 10.981439,-1.91581 14.079819,-4.89494 3.0982,-2.97912 5.1515,-5.60075 6.15992,-7.86489 0.42156,-1.08164 0.56823,-1.8883 0.43999,-2.41997 -0.12843,-0.53165 -0.42176,-0.89831 -0.87998,-1.09999 l -2.63997,-1.75997 c -0.42175,-0.23832 -0.78841,-0.31165 -1.09999,-0.22 -0.31176,0.0917 -0.67842,0.45834 -1.09998,1.09999 -0.48592,0.91667 -1.38424,1.72332 -2.69497,2.41996 -1.31091,0.69667 -2.75922,1.06333 -4.344939,1.09999 -1.97089,0.10085 -3.41921,-0.98081 -4.34495,-3.24496 -0.9259,-2.26412 -1.38423,-6.31573 -1.37498,-12.15484 l 0,-10.55987 -0.43999,-34.75955 c 0.0824,-3.01114 -0.19258,-5.9536 -0.82499,-8.82739 -0.63257,-2.87362 -2.11755,-5.43109 -4.45494,-7.6724 -1.80589,-1.79655 -4.13419,-3.26319 -6.98492,-4.39994 -2.85086,-1.13656 -7.26913,-1.72322 -13.25482,-1.75998 -7.25996,0.0734 -13.85986,1.24675 -19.79975,3.51996 -5.93995,2.27339 -11.21988,5.20668 -15.83979,8.79989 -3.30915,2.48421 -5.82078,5.32584 -7.53491,8.52489 -1.71416,3.19919 -2.57581,6.37081 -2.58496,9.51487 0.0642,2.4292 0.81581,4.28084 2.25497,5.55493 1.43913,1.2742 3.18078,1.91586 5.22493,1.92498 4.59242,-0.0366 7.94738,-1.17327 10.06487,-3.40996 2.11744,-2.23658 3.16243,-5.3532 3.13496,-9.34988 -0.15586,-2.62156 -0.39419,-4.8032 -0.71499,-6.54491 -0.32086,-1.74157 0.2108,-3.15322 1.59498,-4.23495 1.82411,-1.3199 3.89575,-2.30989 6.21492,-2.96997 2.3191,-0.65991 4.50073,-0.9899 6.54491,-0.98998 2.43826,-0.0137 4.60156,0.23383 6.48992,0.74249 1.88825,0.50883 3.39157,1.36131 4.50994,2.55747 1.2741,1.39339 2.13576,3.2267 2.58497,5.49993 0.44911,2.27337 0.76077,4.54668 0.93499,6.81991 l 0,11.43985 c -2.38336,1.69587 -5.75665,3.58418 -10.11987,5.66493 -4.36332,2.08086 -9.93658,4.73915 -16.71979,7.9749 -7.77325,3.57499 -13.12651,7.69993 -16.05979,12.37484 -2.93331,4.67496 -4.32662,9.56989 -4.17995,14.68481 0.12375,6.17827 1.63623,10.87153 4.53745,14.07982 2.90119,3.20828 6.44864,4.8216 10.64236,4.83993 2.19536,0.0321 4.4595,-0.0321 6.79241,-0.19249 2.33285,-0.16042 4.76199,-0.60958 7.28741,-1.34749 4.24865,-1.41623 7.9061,-3.0937 10.97236,-5.03243 3.06615,-1.93872 5.78861,-4.22119 8.16739,-6.84741 z m -2.19997,-9.23988 c -0.20172,2.14499 -1.77837,4.34496 -4.72995,6.59991 -2.95167,2.25498 -6.0683,3.57497 -9.34987,3.95995 -2.73167,0.005 -5.07831,-1.10456 -7.03991,-3.32746 -1.96168,-2.22288 -2.98833,-5.58699 -3.07996,-10.09237 0.40329,-7.72278 3.22658,-13.28687 8.46989,-16.69228 5.24322,-3.40533 10.48648,-6.49446 15.7298,-9.26738 z"
       id="path3031"
       inkscape:connector-curvature="0" />
    <path
       style="font-size:220px;font-style:normal;font-variant:normal;font-weight:600;font-stretch:normal;line-height:125%;letter-spacing:-1.69000018px;word-spacing:-15.55998993px;fill:#000000;fill-opacity:1;stroke:none;font-family:Adobe Caslon Pro;-inkscape-font-specification:Adobe Caslon Pro Semi-Bold"
       d="m 150.00905,400.05321 c 3.39158,1.51247 6.8382,2.55746 10.33987,3.13495 3.50157,0.57749 6.50819,0.85249 9.01988,0.82499 13.74059,-0.29333 25.08876,-5.42659 34.04457,-15.3998 8.95561,-9.97318 13.59388,-23.02633 13.91482,-39.15949 0.0549,-6.79694 -0.8251,-12.6177 -2.63997,-17.46228 -1.81508,-4.84445 -4.89504,-9.51022 -9.23988,-13.99732 -3.48338,-3.5382 -7.29666,-6.25149 -11.43985,-8.13989 -4.14337,-1.88822 -8.83663,-2.84154 -14.07982,-2.85997 -6.47165,0.12843 -12.33823,1.52174 -17.59977,4.17995 -5.26165,2.65839 -9.36826,5.81168 -12.31985,9.45988 l -0.43999,0 -1.53998,-10.77986 c -0.11004,-0.79282 -0.33003,-1.46198 -0.65999,-2.00748 -0.33004,-0.54531 -0.77003,-0.82947 -1.31999,-0.85249 -0.86169,0.005 -1.77834,0.16052 -2.74996,0.4675 -0.97169,0.30717 -2.10834,0.738 -3.40996,1.29248 l -25.07967,10.99986 c -0.65084,0.21091 -1.10917,0.44924 -1.37499,0.71499 -0.26583,0.26591 -0.39416,0.61424 -0.38499,1.04499 l 0,2.19997 c -0.009,0.42174 0.11916,0.7884 0.385,1.09998 0.26583,0.31174 0.72415,0.6784 1.37498,1.09999 l 4.83993,2.63997 c 3.19911,1.67755 5.27075,3.49252 6.21492,5.44493 0.94414,1.95254 1.3658,4.5375 1.26499,7.7549 l 0,75.89902 c 0.009,8.27737 -0.009,14.82228 -0.055,19.63475 -0.0459,4.81239 -0.17419,8.38734 -0.385,10.72486 -0.20168,1.77826 -0.67834,3.17158 -1.42998,4.17994 -0.75167,1.00827 -1.88832,1.5216 -3.40995,1.53998 l -7.9199,0 c -0.44,0.009 -0.77,0.15578 -0.98999,0.44 -0.22,0.28411 -0.33,0.65077 -0.32999,1.09998 l 0,4.83994 c -0.009,0.65076 0.11916,1.10909 0.38499,1.37498 0.26583,0.26577 0.72416,0.39411 1.37498,0.385 0.87083,-0.0275 3.30914,-0.13744 7.31494,-0.32986 4.00578,-0.19254 9.63405,-0.30253 16.88483,-0.32997 8.46071,0.0274 14.63898,0.13744 18.53481,0.33 3.89574,0.19244 6.22405,0.30244 6.98493,0.33 0.86153,0.009 1.44814,-0.11936 1.75984,-0.38515 0.31159,-0.26591 0.45825,-0.72424 0.43998,-1.375 l 0,-4.61994 c 0.009,-0.55463 -0.11922,-0.98546 -0.38499,-1.29248 -0.26589,-0.30714 -0.72421,-0.46297 -1.37498,-0.4675 l -7.9199,0 c -2.16793,0.22912 -3.71708,-0.44921 -4.64744,-2.03497 -0.93045,-1.58587 -1.43461,-5.45414 -1.51248,-11.60485 z m 0,-70.6191 c 2.27327,-3.09821 5.09656,-5.48151 8.46989,-7.14991 3.37324,-1.66823 6.85652,-2.51155 10.44987,-2.52996 9.25356,0.54549 15.88097,5.2846 19.88224,14.21732 4.00111,8.93286 5.95359,18.78689 5.85743,29.56212 -0.44008,11.43529 -2.80505,19.63934 -7.09492,24.61218 -4.29002,4.97286 -9.18494,7.40199 -14.6848,7.28741 -3.52002,0.009 -6.70997,-0.39416 -9.56988,-1.20999 -2.86002,-0.81582 -5.38998,-2.09913 -7.5899,-3.84995 -2.16335,-1.3658 -3.66667,-3.14411 -4.50994,-5.33493 -0.84337,-2.19079 -1.2467,-4.51909 -1.20999,-6.98491 z"
       id="path3033"
       inkscape:connector-curvature="0" />
    <path
       style="font-size:220px;font-style:normal;font-variant:normal;font-weight:600;font-stretch:normal;line-height:125%;letter-spacing:-1.69000018px;word-spacing:-15.55998993px;fill:#000000;fill-opacity:1;stroke:none;font-family:Adobe Caslon Pro;-inkscape-font-specification:Adobe Caslon Pro Semi-Bold"
       d="m 299.07479,367.93362 c 0.009,3.78582 -0.009,7.87409 -0.055,12.26484 -0.0459,4.3908 -0.17425,7.48909 -0.38499,9.29488 -0.28425,1.72333 -1.03591,2.89664 -2.25498,3.51996 -1.21923,0.62333 -2.52087,0.91666 -3.90494,0.87999 l -3.73996,0 c -1.06339,0 -1.57671,0.44 -1.53998,1.31998 l 0,5.27993 c -0.009,0.54541 0.1191,0.93957 0.385,1.18248 0.26577,0.24291 0.72409,0.36208 1.37498,0.3575 1.10918,-0.0275 3.62087,-0.1375 7.53509,-0.33 3.91407,-0.1925 9.17568,-0.3025 15.78487,-0.32999 6.69608,0.0275 11.83852,0.1375 15.42734,0.33 3.58861,0.19249 5.70608,0.30249 6.35244,0.33 0.65055,-0.005 1.10879,-0.16043 1.3747,-0.46751 0.26568,-0.30707 0.394,-0.7379 0.38496,-1.29248 l 0,-4.83993 c 0.0182,-0.54541 -0.12845,-0.93957 -0.44,-1.18249 -0.31178,-0.24291 -0.89844,-0.36208 -1.75997,-0.35749 l -3.95995,0 c -1.85175,0.0458 -3.5384,-0.15583 -5.05994,-0.605 -1.52175,-0.44915 -2.3284,-1.4208 -2.41997,-2.91496 l 0,-29.03963 0,-13.19983 c 0.22906,-6.2836 -0.11926,-12.14102 -1.04498,-17.57227 -0.92592,-5.43111 -3.80422,-10.35354 -8.63489,-14.76731 -3.19922,-2.86904 -6.48084,-5.05068 -9.84488,-6.54492 -3.3642,-1.49405 -7.41581,-2.24571 -12.15484,-2.25497 -5.32125,0.023 -10.57368,1.18717 -15.7573,3.49246 -5.18373,2.30548 -9.39117,5.6146 -12.62233,9.92737 l -1.31999,0 0,-13.63982 c -0.003,-4.05084 0.003,-10.46878 0.0163,-19.25383 0.0135,-8.78483 0.0516,-17.19088 0.11407,-25.2182 0.0624,-8.02703 0.16564,-12.92943 0.30963,-14.70721 0.22911,-1.75982 0.21078,-3.0798 -0.055,-3.95995 -0.26587,-0.87983 -0.83419,-1.31982 -1.70497,-1.31998 -1.05419,0.0185 -2.02585,0.20182 -2.91497,0.54999 -0.88919,0.34848 -1.97084,0.75181 -3.24495,1.20998 -3.85914,1.9618 -8.68074,4.30844 -14.46481,7.03991 -5.78411,2.73178 -10.49571,4.63842 -14.13482,5.71993 -1.28332,0.63264 -2.12665,1.12763 -2.52997,1.48498 -0.40333,0.35764 -0.58666,0.74263 -0.54999,1.15499 l 0,2.19997 c -0.009,0.43096 0.11916,0.77929 0.385,1.04499 0.26583,0.26597 0.72415,0.5043 1.37498,0.71498 l 3.95995,1.31999 c 3.6941,1.40261 6.31573,3.54758 7.86489,6.43491 1.54913,2.88759 2.30079,7.34253 2.25497,13.36483 l 0.44,78.53899 c 0.009,5.28913 -0.0642,10.55073 -0.22,15.7848 -0.15585,5.23412 -0.44918,9.06573 -0.87999,11.49485 -0.37126,1.30166 -1.22375,2.21831 -2.55747,2.74996 -1.33375,0.53167 -2.90122,0.78833 -4.70243,0.77 l -5.49993,0 c -0.56375,-0.005 -1.03125,0.11459 -1.40249,0.3575 -0.37125,0.24292 -0.56374,0.63708 -0.57749,1.18248 l 0,4.83993 c 0.005,0.65082 0.16042,1.10915 0.4675,1.37498 0.30707,0.26583 0.7379,0.39417 1.29248,0.385 0.90749,-0.0275 3.38247,-0.1375 7.42494,-0.33 4.04244,-0.1925 9.48738,-0.3025 16.33483,-0.32999 5.84825,0.0275 10.87152,0.1375 15.06985,0.33 4.19825,0.19249 6.80155,0.30249 7.80992,0.33 0.65071,-0.009 1.10899,-0.21085 1.37486,-0.60501 0.26575,-0.39415 0.39408,-0.92581 0.38498,-1.59497 l 0,-3.95995 c -0.009,-0.75624 -0.21089,-1.27873 -0.605,-1.56748 -0.39421,-0.28874 -0.92587,-0.42624 -1.59497,-0.41249 l -5.27994,0 c -1.51252,0.055 -2.55751,-0.60499 -3.13496,-1.97998 -0.57754,-1.37497 -0.85253,-3.79494 -0.82499,-7.25991 l 0,-47.51938 c 0.055,-2.14033 0.49496,-4.18447 1.31999,-6.13243 0.82494,-1.94782 1.70493,-3.49696 2.63996,-4.64744 2.43826,-2.44739 5.04155,-4.37236 7.8099,-5.77493 2.76824,-1.4024 5.59153,-2.11739 8.46989,-2.14496 2.60324,8e-5 4.87654,0.44007 6.81992,1.31998 1.94323,0.88007 3.77654,2.20005 5.49993,3.95995 2.74071,3.01587 4.40902,7.21414 5.00493,12.59483 0.59575,5.38083 0.83408,11.00908 0.71499,16.88479 z"
       id="path3035"
       inkscape:connector-curvature="0" />
    <path
       style="font-size:220px;font-style:normal;font-variant:normal;font-weight:600;font-stretch:normal;line-height:125%;letter-spacing:-1.69000018px;word-spacing:-15.55998993px;fill:#000000;fill-opacity:1;stroke:none;font-family:Adobe Caslon Pro;-inkscape-font-specification:Adobe Caslon Pro Semi-Bold"
       d="m 347.7485,461.21242 c 5.8024,-0.24756 10.14734,-1.95254 13.03483,-5.11494 2.88743,-3.16251 5.1424,-6.29746 6.76491,-9.40487 2.05328,-3.74 5.20659,-10.22991 9.45989,-19.46976 4.2532,-9.2399 9.1665,-19.90975 14.7398,-32.00958 8.1215,-18.33307 15.4181,-34.46618 21.8897,-48.39938 6.4715,-13.93308 10.9081,-22.5863 13.3099,-25.95966 1.2511,-1.50324 2.5986,-2.51156 4.0424,-3.02497 1.4436,-0.51324 2.7361,-0.75157 3.8775,-0.71499 l 2.6399,0 c 0.4399,0.009 0.7699,-0.11908 0.99,-0.38499 0.2199,-0.26575 0.3299,-0.72407 0.33,-1.37498 l 0,-4.61994 c 0.037,-1.13657 -0.4768,-1.72323 -1.54,-1.75998 -1.0129,0.0275 -2.7819,0.1374 -5.3072,0.32977 -2.5254,0.19257 -5.6696,0.30256 -9.4324,0.32997 -5.8208,-0.0274 -10.1291,-0.13741 -12.9248,-0.33 -2.7959,-0.19241 -4.7942,-0.30241 -5.995,-0.33 -0.6509,0.005 -1.1093,0.1607 -1.3751,0.46772 -0.2659,0.3072 -0.3943,0.73804 -0.385,1.29252 l 0,4.83993 c -0.01,0.44925 0.1191,0.81591 0.385,1.09999 0.2657,0.28425 0.7241,0.43091 1.375,0.43999 l 3.5199,0 c 2.0074,-0.009 3.4374,0.66925 4.2899,2.03498 0.8525,1.36589 0.9625,3.4742 0.33,6.32492 -0.5256,1.92165 -2.1633,6.3406 -4.9132,13.25686 -2.7501,6.91638 -5.6589,14.04048 -8.7266,21.37232 -3.0678,7.33191 -5.3411,12.58196 -6.8199,15.75017 l -0.88,0 c -0.8787,-2.11031 -2.5436,-7.17839 -4.9947,-15.20425 -2.4513,-8.02578 -4.8169,-16.02715 -7.097,-24.00414 -2.2801,-7.97686 -3.6028,-12.94716 -3.9681,-14.91092 -0.2888,-1.63614 -0.096,-2.81863 0.5775,-3.54745 0.6737,-0.72866 1.5812,-1.08615 2.7225,-1.07249 l 3.2999,0 c 0.5454,-0.009 0.9396,-0.15574 1.1825,-0.43999 0.2429,-0.28408 0.3621,-0.65074 0.3575,-1.09999 l 0,-4.83993 c 0.01,-0.65074 -0.1192,-1.10907 -0.385,-1.37499 -0.2658,-0.26574 -0.7242,-0.39407 -1.375,-0.38499 -1.2741,0.0275 -3.6757,0.1374 -7.2048,0.32977 -3.52914,0.19257 -8.46074,0.30256 -14.79482,0.32997 -7.9841,-0.0274 -13.6857,-0.13741 -17.10482,-0.33 -3.41914,-0.19241 -5.49078,-0.30241 -6.21494,-0.33 -0.65083,0.009 -1.10916,0.15612 -1.37499,0.44021 -0.26582,0.28428 -0.39415,0.65096 -0.38498,1.10003 l 0,4.83994 c -0.009,0.55466 0.11917,0.98548 0.385,1.29248 0.26583,0.30716 0.72416,0.46299 1.37498,0.46749 l 4.39994,0 c 2.14955,0.0276 3.90036,0.85257 5.25243,2.47497 1.35206,1.62256 2.60787,3.87753 3.76745,6.76491 0.51045,1.26563 2.14324,5.59568 4.89838,12.99015 2.7551,7.39459 5.87974,15.8702 9.37394,25.42686 3.49414,9.55673 6.60503,18.21108 9.33273,25.9631 2.7275,7.75204 4.3191,12.61832 4.7746,14.59888 -0.9887,3.01749 -2.6291,7.10237 -4.9214,12.25465 -2.29239,5.15226 -4.5847,9.98676 -6.87699,14.50352 -2.29234,4.51669 -3.93281,7.33048 -4.92141,8.44137 -0.70585,0.65079 -1.60417,0.99912 -2.69497,1.04499 -1.09084,0.0458 -2.09916,-0.15587 -3.02495,-0.60499 -1.33834,-0.68753 -2.84165,-1.29253 -4.50995,-1.81498 -1.66833,-0.52254 -3.39163,-0.79753 -5.16993,-0.82499 -2.94247,0.0733 -5.41743,1.13662 -7.42491,3.18996 -2.00747,2.05326 -3.05246,4.65656 -3.13495,7.8099 0.055,3.5749 1.26498,6.43487 3.62995,8.57989 2.36496,2.14491 5.55492,3.2449 9.56988,3.29996 z"
       id="path3037"
       inkscape:connector-curvature="0" />
    <path
       style="font-size:220px;font-style:normal;font-variant:normal;font-weight:600;font-stretch:normal;line-height:125%;letter-spacing:-1.69000018px;word-spacing:-15.55998993px;fill:none;stroke:#ff0000;stroke-width:1px;stroke-linecap:butt;stroke-linejoin:miter;stroke-opacity:1;font-family:Adobe Caslon Pro;-inkscape-font-specification:Adobe Caslon Pro Semi-Bold"
       d="m -629.06467,462.00486 1112.024,0"
       id="path3039"
       inkscape:connector-curvature="0" />
    <path
       inkscape:connector-curvature="0"
       id="path3809"
       d="m -629.06467,401.81688 1112.024,0"
       style="font-size:220px;font-style:normal;font-variant:normal;font-weight:600;font-stretch:normal;line-height:125%;letter-spacing:-1.69000018px;word-spacing:-15.55998993px;fill:none;stroke:#ff0000;stroke-width:1px;stroke-linecap:butt;stroke-linejoin:miter;stroke-opacity:1;font-family:Adobe Caslon Pro;-inkscape-font-specification:Adobe Caslon Pro Semi-Bold" />
    <path
       style="font-size:220px;font-style:normal;font-variant:normal;font-weight:600;font-stretch:normal;line-height:125%;letter-spacing:-1.69000018px;word-spacing:-15.55998993px;fill:none;stroke:#ff0000;stroke-width:1px;stroke-linecap:butt;stroke-linejoin:miter;stroke-opacity:1;font-family:Adobe Caslon Pro;-inkscape-font-specification:Adobe Caslon Pro Semi-Bold"
       d="m -629.06467,308.31731 1112.024,0"
       id="path3811"
       inkscape:connector-curvature="0" />
    <path
       inkscape:connector-curvature="0"
       id="path3919"
       d="m -629.06467,244.00486 1112.024,0"
       style="font-size:220px;font-style:normal;font-variant:normal;font-weight:600;font-stretch:normal;line-height:125%;letter-spacing:-1.69000018px;word-spacing:-15.55998993px;fill:none;stroke:#ff0000;stroke-width:1px;stroke-linecap:butt;stroke-linejoin:miter;stroke-opacity:1;font-family:Adobe Caslon Pro;-inkscape-font-specification:Adobe Caslon Pro Semi-Bold" />
    <path
       style="color:#000000;fill:#000000;fill-opacity:1;stroke:#ff0000;stroke-width:23.73500061;stroke-linecap:butt;stroke-linejoin:miter;stroke-miterlimit:4;stroke-opacity:1;stroke-dasharray:none;stroke-dashoffset:0;marker:none;visibility:visible;display:inline;overflow:visible;enable-background:accumulate"
       d="m 508.11564,229.74294 155.08872,0 79.36586,302.99784 -234.45458,-55.01497 z"
       id="rect4433"
       inkscape:connector-curvature="0"
       sodipodi:nodetypes="ccccc" />
  </g>
</svg>
