<?xml version="1.0" encoding="UTF-8" standalone="no"?>
<!-- Created with Inkscape (http://www.inkscape.org/) -->

<svg
   xmlns:dc="http://purl.org/dc/elements/1.1/"
   xmlns:cc="http://creativecommons.org/ns#"
   xmlns:rdf="http://www.w3.org/1999/02/22-rdf-syntax-ns#"
   xmlns:svg="http://www.w3.org/2000/svg"
   xmlns="http://www.w3.org/2000/svg"
   xmlns:sodipodi="http://sodipodi.sourceforge.net/DTD/sodipodi-0.dtd"
   xmlns:inkscape="http://www.inkscape.org/namespaces/inkscape"
   width="1410.751"
   height="487.40329"
   id="svg2985"
   version="1.1"
   inkscape:version="0.48.2 r9819"
   sodipodi:docname="drawing_normal3.ps">
  <defs
     id="defs2987" />
  <sodipodi:namedview
     id="base"
     pagecolor="#ffffff"
     bordercolor="#666666"
     borderopacity="1.0"
     inkscape:pageopacity="0.0"
     inkscape:pageshadow="2"
     inkscape:zoom="1.0299479"
     inkscape:cx="717.75887"
     inkscape:cy="147.54301"
     inkscape:current-layer="flowRoot2993"
     inkscape:document-units="px"
     showgrid="false"
     fit-margin-top="0"
     fit-margin-left="0"
     fit-margin-right="0"
     fit-margin-bottom="0"
     inkscape:window-width="1680"
     inkscape:window-height="1002"
     inkscape:window-x="-4"
     inkscape:window-y="-4"
     inkscape:window-maximized="1" />
  <metadata
     id="metadata2990">
    <rdf:RDF>
      <cc:Work
         rdf:about="">
        <dc:format>image/svg+xml</dc:format>
        <dc:type
           rdf:resource="http://purl.org/dc/dcmitype/StillImage" />
        <dc:title></dc:title>
      </cc:Work>
    </rdf:RDF>
  </metadata>
  <g
     id="layer1"
     inkscape:label="Layer 1"
     inkscape:groupmode="layer"
     transform="translate(46.690053,103.18202)">
    <g
       style="font-size:240px;font-style:normal;font-variant:normal;font-weight:normal;font-stretch:normal;line-height:125%;letter-spacing:0px;word-spacing:0px;fill:#000000;fill-opacity:1;stroke:none;font-family:Minion Pro;-inkscape-font-specification:Minion Pro"
       id="flowRoot2993">
      <path
         d="m 194.4988,74.857634 c -0.72513,-7.169782 -1.31513,-14.609679 -1.76998,-22.319712 -0.45514,-7.70975 -0.74513,-14.429656 -0.86999,-20.159741 l -5.03993,0 c -1.67012,2.245129 -3.3101,3.815105 -4.91994,4.709934 -1.6101,0.895144 -3.97007,1.32514 -7.07991,1.289989 l -94.798774,0 c -3.279982,0.09516 -5.899946,-0.214839 -7.859899,-0.929986 -1.959993,-0.714834 -3.739968,-2.404811 -5.339931,-5.069937 l -4.799939,0 c -0.255007,6.67507 -0.645002,13.724972 -1.169986,21.149726 -0.525001,7.425037 -1.094993,14.774935 -1.709977,22.049718 l 6.959911,0 c 1.399969,-5.264807 2.679951,-9.674745 3.83995,-13.229828 1.159964,-3.554819 2.439947,-6.344781 3.839951,-8.369894 1.279961,-2.619824 3.819926,-4.519799 7.619902,-5.69993 3.799918,-1.179839 10.539825,-1.759829 20.219742,-1.739974 l 14.87981,0 0,118.318481 c 0.37493,9.1549 -0.85506,15.14482 -3.68996,17.96977 -2.83502,2.82497 -9.52493,4.43495 -20.069738,4.82993 l 0,6.71992 68.639118,0 0,-6.71992 c -10.88996,-0.39499 -17.78987,-2.00497 -20.69974,-4.82994 -2.91005,-2.82495 -4.17003,-8.81486 -3.77995,-17.96976 l 0,-118.318481 16.79979,0 c 8.81477,-0.03985 14.94468,0.520143 18.38976,1.679978 3.44483,1.160128 6.0348,3.1601 7.7699,5.999923 1.31485,1.850114 2.58484,4.450077 3.80995,7.799896 1.22485,3.350084 2.43484,7.870023 3.62995,13.559829 z"
         id="path3002"
         inkscape:connector-curvature="0" />
      <path
         d="m 315.26415,89.497448 -43.43944,0 0,6.23992 c 6.78983,0.74009 10.96977,2.08007 12.53984,4.01995 1.56989,1.940072 1.54989,5.080022 -0.06,9.419872 -2.60004,8.08498 -6.04,17.89484 -10.31987,29.42963 -4.28001,11.53489 -8.19996,21.64475 -11.75984,30.32961 L 240.62511,108.9372 c -1.79501,-4.43486 -2.10501,-7.56481 -0.92999,-9.389882 1.17495,-1.82488 4.5249,-3.09486 10.04988,-3.80995 l -0.24,-6.23992 -48.47938,0 0,6.23992 c 6.30491,0.66009 10.73485,2.22006 13.28983,4.679932 2.55495,2.46006 5.00492,6.9 7.34991,13.31984 3.58493,8.80496 7.81487,19.75481 12.68983,32.84957 4.8749,13.09487 9.76483,26.62468 14.66982,40.58948 0.72493,2.00997 1.13493,3.86995 1.22998,5.57992 0.0949,1.70999 -0.15505,3.44996 -0.74999,5.21994 -0.56504,1.52997 -1.41503,3.62994 -2.54997,6.29992 -1.13503,2.66995 -2.76501,6.08991 -4.88993,10.25987 -2.79001,5.21491 -5.54997,9.48485 -8.2799,12.80983 -2.73,3.32492 -5.96995,6.09488 -9.71987,8.3099 -2.035,1.38994 -3.54498,2.74992 -4.52995,4.07994 -0.985,1.32994 -1.475,2.92991 -1.46998,4.79994 0.13999,2.99991 1.53997,5.63988 4.19995,7.9199 2.65993,2.27991 5.73989,3.47989 9.23988,3.59995 1.71494,0.0499 3.26492,-0.35005 4.64994,-1.19998 1.38495,-0.85005 2.39493,-2.45003 3.02996,-4.79994 1.49494,-5.86497 4.02491,-13.45487 7.58991,-22.76971 3.5649,-9.3149 9.27482,-23.32471 17.12977,-42.02945 8.11482,-19.53973 14.44474,-34.93952 18.98976,-46.19941 4.54486,-11.25979 8.2948,-19.93967 11.24985,-26.03966 2.91987,-6.47983 5.65983,-10.79977 8.2199,-12.95984 2.55986,-2.159872 6.8598,-3.599852 12.89983,-4.319942 z"
         id="path3004"
         inkscape:connector-curvature="0" />
      <path
         d="m 351.26136,103.17727 0,-18.959752 c -5.75497,2.32007 -11.70488,4.40005 -17.84978,6.23992 -6.14494,1.84007 -11.79486,3.20006 -16.94977,4.07994 l 0,5.759932 c 7.16989,0.61508 11.66982,1.90507 13.49982,3.86995 1.82995,1.96507 2.60994,6.675 2.33997,14.12982 l 0,108.4786 c 0.22998,7.61986 -0.77001,12.53979 -2.99996,14.75981 -2.22999,2.21992 -7.06993,3.5399 -14.51981,3.95995 l 0,6.47992 56.63927,0 0,-6.47992 c -8.92494,-0.37005 -14.59486,-1.79003 -17.00978,-4.25995 -2.41502,-2.47001 -3.465,-8.08993 -3.14996,-16.85978 l 0,-31.43959 c 1.60493,0.89998 3.8549,1.79997 6.74991,2.69996 2.89491,0.89999 6.16487,1.43998 9.80987,1.61998 16.13972,-2.97496 29.99953,-10.04487 41.57947,-21.20973 11.57974,-11.16482 17.63965,-25.85462 18.17977,-44.06943 -0.10512,-12.17977 -3.85506,-22.67963 -11.24986,-31.4996 -7.395,-8.819792 -17.80486,-13.439722 -31.2296,-13.859812 -1.48005,-0.005 -3.26003,0.3051 -5.33993,0.92998 -2.08004,0.6251 -4.22001,1.59509 -6.41992,2.90997 z m 0,8.1599 c 3.35491,-2.63489 7.20485,-4.98486 11.54985,-7.04992 4.34489,-2.06488 8.49483,-3.15486 12.44984,-3.26995 8.89981,0.0601 16.41971,3.54004 22.55971,10.43986 6.13982,6.89999 9.33978,16.85985 9.59987,29.87962 -0.14009,13.59986 -3.22005,24.31972 -9.23988,32.15959 -6.02,7.83991 -14.13989,11.83985 -24.35968,11.99984 -4.28501,-0.045 -8.43495,-0.91498 -12.44984,-2.60996 -4.015,-1.69497 -7.38495,-3.94494 -10.10987,-6.74992 z"
         id="path3006"
         inkscape:connector-curvature="0" />
      <path
         d="m 498.00609,86.617488 c -7.60293,-0.0221 -15.43689,2.0223 -23.50193,6.13325 -8.06511,4.11115 -14.90353,10.422172 -20.51529,18.933082 -5.61179,8.51108 -8.53916,19.35538 -8.7821,32.53292 0.13498,13.86486 4.78492,26.03469 13.94982,36.50953 9.16485,10.47487 22.03467,15.98479 38.6095,16.52979 12.56476,0.035 24.2146,-4.65494 34.94954,-14.06982 10.73476,-9.41486 16.44468,-23.76466 17.12979,-43.04944 -0.30011,-15.14475 -5.22005,-27.75457 -14.75982,-37.82952 -9.53996,-10.074772 -21.89979,-15.304692 -37.07951,-15.689792 z m -3.11996,7.91989 c 10.70479,0.3801 18.81467,5.38003 24.32968,14.999812 5.51484,9.61994 8.2848,21.57978 8.3099,35.87954 -0.20009,16.21482 -2.86006,27.64466 -7.97991,34.28955 -5.12001,6.64493 -11.49992,9.85488 -19.13975,9.62988 -10.08492,-0.30999 -18.05481,-5.32992 -23.90969,-15.0598 -5.85496,-9.72985 -8.84492,-22.30967 -8.96988,-37.73952 0.23996,-13.61475 2.99992,-24.00461 8.27989,-31.1696 5.27988,-7.164812 11.6398,-10.774762 19.07976,-10.829862 z"
         id="path3008"
         inkscape:connector-curvature="0" />
      <path
         d="m 669.7892,89.497448 c -4.52505,0.73509 -9.63498,1.42508 -15.32981,2.06997 -5.69501,0.64509 -11.46493,1.15508 -17.30977,1.52998 -3.61503,-2.15987 -7.36498,-3.77985 -11.24986,-4.85994 -3.88501,-1.07988 -7.81496,-1.61987 -11.78984,-1.61997 l -0.24,0 c -9.87492,-0.0349 -19.34479,3.21506 -28.40964,9.74987 -9.0649,6.535012 -13.91484,16.564872 -14.54981,30.089612 0.20499,8.19496 2.37496,15.02486 6.50992,20.48974 4.13493,5.46497 9.00486,9.35491 14.60981,11.66985 -1.96,2.485 -4.75996,5.07496 -8.39989,7.7699 -3.63998,2.69499 -7.87992,4.98496 -12.71984,6.86991 -0.13001,1.26 0.01,2.81998 0.42,4.67994 0.40998,1.85999 1.14997,3.65996 2.21997,5.39993 1.56496,2.58997 3.83492,5.08994 6.80991,7.4999 2.97493,2.40997 6.62489,4.30994 10.94986,5.69993 -3.04999,2.39497 -6.48994,5.16493 -10.31987,8.30989 -3.82997,3.14495 -7.02992,5.97491 -9.59987,8.48989 -1.815,1.80496 -3.22498,3.83493 -4.22995,6.08992 -1.005,2.25495 -1.51499,4.70491 -1.52998,7.34991 0.16499,7.20487 3.79494,13.79477 10.88985,19.76974 7.09489,5.97486 17.38475,9.14482 30.86961,9.50988 16.45472,-0.46505 30.40452,-5.35499 41.84946,-14.66981 11.44475,-9.31492 17.41467,-20.26477 17.90977,-32.84957 -0.5001,-11.46986 -4.36005,-19.12976 -11.57985,-22.97971 -7.22,-3.84994 -14.79989,-5.62991 -22.7397,-5.33993 -4.07503,0.01 -8.22497,0.05 -12.44985,0.11999 -4.225,0.07 -8.55494,0.11002 -12.98983,0.12001 -5.35497,-0.095 -9.22492,-1.04497 -11.60985,-2.84996 -2.38501,-1.80496 -3.55499,-3.89494 -3.50995,-6.26993 0.10496,-1.75495 0.91495,-3.58493 2.42997,-5.48993 1.51494,-1.90494 3.10492,-3.43492 4.76993,-4.58994 1.94994,0.36503 3.98991,0.65503 6.11992,0.86999 2.12993,0.21502 4.1699,0.32502 6.11993,0.33 10.67479,0.02 20.22466,-3.13993 28.64962,-9.47988 8.42481,-6.33987 12.87475,-15.97974 13.34984,-28.91963 -0.0301,-4.23987 -0.69009,-8.17982 -1.97998,-11.81985 -1.29008,-3.63987 -3.03005,-6.73982 -5.21993,-9.29988 l 13.67982,0.72 c 1.99488,-1.2149 4.00485,-3.04487 6.02993,-5.489942 2.02486,-2.44487 3.61484,-4.69483 4.76993,-6.74991 z m -58.55925,4.55994 c 7.03985,0.1701 12.57978,3.19006 16.61979,9.059892 4.03987,5.87 6.09984,13.5699 6.17992,23.0997 -0.17007,9.46993 -2.17004,16.56984 -5.99992,21.29972 -3.83002,4.72999 -8.46996,7.14995 -13.91982,7.25991 -6.71497,-0.16996 -12.1249,-3.18992 -16.2298,-9.05989 -4.10498,-5.86987 -6.21495,-13.56976 -6.32991,-23.0997 0.18996,-9.2748 2.20993,-16.3447 6.05992,-21.20973 3.84991,-4.864842 8.38985,-7.314812 13.61982,-7.349902 z m 5.27994,102.958672 c 5.22487,-0.02 9.7148,0.2 13.46982,0.66 3.75488,0.45999 7.10483,1.27998 10.04987,2.45996 3.38988,1.45998 6.02984,3.63995 7.9199,6.53992 1.88988,2.89995 2.84987,6.3999 2.87996,10.49986 -0.0151,7.61987 -2.92505,13.91979 -8.72989,18.89976 -5.805,4.97989 -14.41488,7.55986 -25.82966,7.7399 -9.08993,-0.13505 -16.58983,-2.32502 -22.49972,-6.56992 -5.90995,-4.24498 -8.96991,-9.73491 -9.17987,-16.46978 0.07,-3.38998 1.12996,-6.68994 3.17996,-9.89988 2.04994,-3.20997 4.6699,-6.14993 7.85989,-8.81988 2.06994,-1.78499 4.7099,-3.07497 7.9199,-3.86995 3.20991,-0.795 7.52985,-1.18499 12.95984,-1.16999 z"
         id="path3010"
         inkscape:connector-curvature="0" />
      <path
         d="m 714.61007,112.29715 0,-26.159662 c -5.71496,2.38008 -11.32488,4.34005 -16.82978,5.87992 -5.50495,1.54008 -11.17488,2.78006 -17.00978,3.71996 l 0,5.519932 c 6.70989,0.51508 10.92984,1.82506 12.65983,3.92994 1.72996,2.10506 2.46995,6.955 2.21997,14.54982 l 0,49.67936 c 0.23998,7.61992 -0.66001,12.53985 -2.69996,14.75981 -2.04,2.21997 -6.65993,3.53996 -13.85982,3.95995 l 0,6.23992 55.19929,0 0,-6.23992 c -8.90494,-0.41999 -14.49487,-1.73998 -16.76979,-3.95995 -2.27501,-2.21996 -3.245,-7.13989 -2.90996,-14.75981 l 0,-43.91944 c 2.71991,-6.72983 5.79987,-11.80976 9.23988,-15.2398 3.4399,-3.42987 6.75986,-5.14985 9.95987,-5.15993 1.88492,-0.01 3.6349,0.37008 5.24994,1.13999 1.6149,0.77008 3.30488,1.99006 5.06993,3.65995 0.70992,0.72507 1.56991,1.13506 2.57997,1.22998 1.00991,0.0951 2.22989,-0.15491 3.65995,-0.74999 2.31489,-1.1349 4.16486,-2.76488 5.54993,-4.88994 1.38489,-2.12489 2.09488,-4.41485 2.12997,-6.869912 -0.0701,-2.91487 -1.37007,-5.60483 -3.89995,-8.0699 -2.53005,-2.46486 -5.87,-3.77484 -10.01987,-3.92994 -5.79999,0.3051 -11.17992,3.05506 -16.1398,8.24989 -4.95998,5.195022 -9.25992,11.004942 -12.89983,17.429772 z"
         id="path3012"
         inkscape:connector-curvature="0" />
      <path
         d="m 864.15179,185.01622 -2.39997,-6.23992 c -1.23008,0.74 -2.61007,1.35999 -4.13995,1.85997 -1.53008,0.50001 -3.03006,0.76001 -4.49994,0.77999 -2.13506,0.075 -4.04503,-0.97497 -5.72992,-3.14996 -1.68507,-2.17496 -2.57506,-5.9249 -2.66997,-11.24985 l 0,-44.39943 c 0.0749,-6.34484 -0.67508,-11.95476 -2.24997,-16.82978 -1.57506,-4.87484 -4.42502,-9.104782 -8.54989,-12.689842 -2.68004,-2.15987 -5.72,-3.77985 -9.11988,-4.85994 -3.40002,-1.07988 -6.91997,-1.61987 -10.55987,-1.61997 -7.07995,1.66008 -13.97986,4.22005 -20.69973,7.6799 -6.71994,3.46005 -11.81987,6.500002 -15.2998,9.119882 -2.30499,1.66007 -4.11497,3.26005 -5.42994,4.79994 -1.31499,1.54006 -1.98498,3.14004 -2.00997,4.79994 0.16,2.95004 1.33998,5.39 3.53996,7.3199 2.19996,1.93004 4.45992,2.93003 6.77991,2.99996 1.68496,0.0101 3.11494,-0.42992 4.28995,-1.31998 1.17496,-0.88992 2.06494,-2.2899 2.66996,-4.19995 0.94996,-3.59987 1.98995,-6.71983 3.11996,-9.35988 1.12995,-2.63987 2.40994,-4.79984 3.83995,-6.47991 1.31995,-1.44989 2.87992,-2.569872 4.67994,-3.359962 1.79993,-0.78989 3.83991,-1.18989 6.11992,-1.19998 6.20487,0.0351 11.1348,2.36506 14.78981,6.989912 3.65488,4.62502 5.52486,11.33493 5.60993,20.12974 l 0,4.07994 c -2.96003,2.24004 -8.01996,4.78 -15.17981,7.61991 -7.15995,2.84001 -14.49985,5.49998 -22.01971,7.97989 -6.58494,2.25002 -11.47487,5.30998 -14.66981,9.17989 -3.19497,3.86998 -4.78495,8.72992 -4.76994,14.57981 0.13499,7.83491 2.80495,14.60482 8.00989,20.30973 5.20491,5.70493 12.13482,8.69489 20.78974,8.96989 3.72991,-0.235 8.14984,-1.98497 13.25982,-5.24993 5.10988,-3.26495 10.12981,-6.63491 15.05981,-10.10987 0.56993,2.02998 1.28992,3.90995 2.15998,5.63992 0.86992,1.72999 2.0699,3.36997 3.59995,4.91994 1.39991,1.35498 3.15989,2.48497 5.27993,3.38996 2.11989,0.90498 4.11986,1.37498 5.99992,1.40998 z m -37.91951,-10.79986 c -2.40503,2.35498 -5.39499,4.36496 -8.96989,6.02992 -3.57501,1.66499 -6.98496,2.53498 -10.22986,2.60997 -3.965,0.005 -7.73495,-1.50497 -11.30987,-4.52994 -3.57498,-3.02495 -5.48495,-7.59488 -5.72991,-13.70983 0.025,-4.35491 1.29495,-7.88486 3.80995,-10.58986 2.51493,-2.70492 6.12488,-5.09489 10.82986,-7.16991 2.78991,-1.30494 6.38986,-2.95491 10.79986,-4.94994 4.40989,-1.99492 8.00984,-3.70489 10.79986,-5.12993 z"
         id="path3014"
         inkscape:connector-curvature="0" />
      <path
         d="m 906.26136,103.17727 0,-18.959752 c -5.75497,2.32007 -11.70488,4.40005 -17.84978,6.23992 -6.14494,1.84007 -11.79486,3.20006 -16.94977,4.07994 l 0,5.759932 c 7.16989,0.61508 11.66982,1.90507 13.49982,3.86995 1.82995,1.96507 2.60994,6.675 2.33997,14.12982 l 0,108.4786 c 0.22998,7.61986 -0.77001,12.53979 -2.99996,14.75981 -2.22999,2.21992 -7.06993,3.5399 -14.51981,3.95995 l 0,6.47992 56.63927,0 0,-6.47992 c -8.92494,-0.37005 -14.59486,-1.79003 -17.00978,-4.25995 -2.41502,-2.47001 -3.465,-8.08993 -3.14996,-16.85978 l 0,-31.43959 c 1.60493,0.89998 3.8549,1.79997 6.74991,2.69996 2.89491,0.89999 6.16487,1.43998 9.80987,1.61998 16.13972,-2.97496 29.99953,-10.04487 41.57947,-21.20973 11.57974,-11.16482 17.63965,-25.85462 18.17977,-44.06943 -0.10512,-12.17977 -3.85506,-22.67963 -11.24986,-31.4996 -7.395,-8.819792 -17.80486,-13.439722 -31.2296,-13.859812 -1.48005,-0.005 -3.26003,0.3051 -5.33993,0.92998 -2.08004,0.6251 -4.22001,1.59509 -6.41992,2.90997 z m 0,8.1599 c 3.35491,-2.63489 7.20485,-4.98486 11.54985,-7.04992 4.34489,-2.06488 8.49483,-3.15486 12.44984,-3.26995 8.89981,0.0601 16.41971,3.54004 22.55971,10.43986 6.13982,6.89999 9.33978,16.85985 9.59987,29.87962 -0.14009,13.59986 -3.22005,24.31972 -9.23988,32.15959 -6.02,7.83991 -14.13989,11.83985 -24.35968,11.99984 -4.28501,-0.045 -8.43495,-0.91498 -12.44984,-2.60996 -4.015,-1.69497 -7.38495,-3.94494 -10.10987,-6.74992 z"
         id="path3016"
         inkscape:connector-curvature="0" />
      <path
         d="m 1114.4453,194.3761 0,-6.23992 c -6.75,-0.30499 -11.13,-1.55497 -13.1398,-3.74996 -2.0101,-2.19496 -2.9101,-7.10489 -2.7,-14.7298 l 0,-41.99946 c -0.1651,-14.30974 -3.255,-24.7496 -9.2699,-31.319602 -6.015,-6.56982 -13.9649,-9.80977 -23.8497,-9.71987 -6.5599,0.1901 -12.8199,2.03008 -18.7797,5.51992 -5.96,3.49005 -11.1399,7.49 -15.5398,11.999852 l 0,-80.638964 c -4.845,1.505148 -10.4549,3.055126 -16.8298,4.649938 -6.375,1.595144 -12.5249,2.845128 -18.44978,3.749954 l 0,5.759925 c 7.60988,0.415148 12.30988,1.625131 14.09978,3.629952 1.79,2.005127 2.53,6.635064 2.22,13.889823 l 0,114.478532 c 0.22,7.62491 -0.7,12.53484 -2.76,14.7298 -2.0599,2.19499 -6.5799,3.44497 -13.55978,3.74996 l -0.24,6.23992 51.11938,0 0,-6.23992 c -6.95,-0.43999 -11.3499,-1.77997 -13.1998,-4.01995 -1.8501,-2.23996 -2.6501,-7.05989 -2.4,-14.45981 l 0,-57.11927 c 3.4099,-3.86986 7.2698,-6.86982 11.5798,-8.99989 4.3099,-2.12988 8.7699,-3.20986 13.3799,-3.23995 8.0148,1e-4 13.9447,2.46006 17.7897,7.37991 3.8449,4.92001 5.7549,12.29991 5.73,22.13971 l 0,39.83949 c 0.2099,7.50491 -0.6901,12.35484 -2.7,14.5498 -2.0101,2.19499 -6.39,3.50497 -13.1398,3.92996 l 0,6.23992 z"
         id="path3018"
         inkscape:connector-curvature="0" />
      <path
         d="m 1234.0142,89.497448 -43.4395,0 0,6.23992 c 6.7899,0.74009 10.9698,2.08007 12.5399,4.01995 1.5699,1.940072 1.5499,5.080022 -0.06,9.419872 -2.6001,8.08498 -6.04,17.89484 -10.3199,29.42963 -4.28,11.53489 -8.2,21.64475 -11.7598,30.32961 l -21.5998,-59.99923 c -1.795,-4.43486 -2.105,-7.56481 -0.93,-9.389882 1.175,-1.82488 4.5249,-3.09486 10.0499,-3.80995 l -0.24,-6.23992 -48.4794,0 0,6.23992 c 6.305,0.66009 10.7349,2.22006 13.2899,4.679932 2.5549,2.46006 5.0049,6.9 7.3499,13.31984 3.5849,8.80496 7.8148,19.75481 12.6898,32.84957 4.8749,13.09487 9.7648,26.62468 14.6698,40.58948 0.725,2.00997 1.135,3.86995 1.23,5.57992 0.095,1.70999 -0.155,3.44996 -0.75,5.21994 -0.565,1.52997 -1.415,3.62994 -2.5499,6.29992 -1.1351,2.66995 -2.7651,6.08991 -4.89,10.25987 -2.79,5.21491 -5.55,9.48485 -8.2799,12.80983 -2.73,3.32492 -5.9699,6.09488 -9.7199,8.3099 -2.0349,1.38994 -3.5449,2.74992 -4.5299,4.07994 -0.985,1.32994 -1.475,2.92991 -1.47,4.79994 0.14,2.99991 1.54,5.63988 4.2,7.9199 2.6599,2.27991 5.7399,3.47989 9.2399,3.59995 1.7149,0.0499 3.2649,-0.35005 4.6499,-1.19998 1.3849,-0.85005 2.3949,-2.45003 3.03,-4.79994 1.4949,-5.86497 4.0249,-13.45487 7.5899,-22.76971 3.5649,-9.3149 9.2748,-23.32471 17.1297,-42.02945 8.1149,-19.53973 14.4448,-34.93952 18.9898,-46.19941 4.5448,-11.25979 8.2948,-19.93967 11.2498,-26.03966 2.9199,-6.47983 5.6599,-10.79977 8.2199,-12.95984 2.5599,-2.159872 6.8598,-3.599852 12.8999,-4.319942 z"
         id="path3020"
         inkscape:connector-curvature="0" />
      <path
         style="fill:none;stroke:#000000;stroke-width:1;stroke-linecap:butt;stroke-linejoin:miter;stroke-opacity:1;stroke-miterlimit:4;stroke-dasharray:4,4;stroke-dashoffset:0"
         d="m 2.827014,252.14036 1296.181986,0"
         id="path3024"
         inkscape:connector-curvature="0" />
      <path
         inkscape:connector-curvature="0"
         id="path3794"
         d="m 2.827014,194.14036 1296.181986,0"
         style="fill:none;stroke:#000000;stroke-width:1;stroke-linecap:butt;stroke-linejoin:miter;stroke-miterlimit:4;stroke-opacity:1;stroke-dasharray:4, 4;stroke-dashoffset:0" />
      <path
         style="fill:none;stroke:#000000;stroke-width:1;stroke-linecap:butt;stroke-linejoin:miter;stroke-miterlimit:4;stroke-opacity:1;stroke-dasharray:4, 4;stroke-dashoffset:0"
         d="m 2.827014,88.14036 1296.181986,0"
         id="path3796"
         inkscape:connector-curvature="0" />
      <path
         inkscape:connector-curvature="0"
         id="path3798"
         d="m 2.827014,38.14036 1296.181986,0"
         style="fill:none;stroke:#000000;stroke-width:1;stroke-linecap:butt;stroke-linejoin:miter;stroke-miterlimit:4;stroke-opacity:1;stroke-dasharray:4, 4;stroke-dashoffset:0" />
      <path
         style="fill:none;stroke:#000000;stroke-width:1;stroke-linecap:butt;stroke-linejoin:miter;stroke-miterlimit:4;stroke-opacity:1;stroke-dasharray:4, 4;stroke-dashoffset:0"
         d="m 2.827014,22.14036 1296.181986,0"
         id="path3800"
         inkscape:connector-curvature="0" />
      <path
         inkscape:connector-curvature="0"
         id="path3802"
         d="m 2.827014,256.14036 1296.181986,0"
         style="fill:none;stroke:#000000;stroke-width:1;stroke-linecap:butt;stroke-linejoin:miter;stroke-miterlimit:4;stroke-opacity:1;stroke-dasharray:4, 4;stroke-dashoffset:0" />
    </g>
  </g>
</svg>
